<?xml version="1.0" encoding="UTF-8" standalone="no"?>
<!DOCTYPE svg  PUBLIC '-//W3C//DTD SVG 1.1//EN'  'http://www.w3.org/Graphics/SVG/1.1/DTD/svg11.dtd'>
<svg version="1.1" xmlns="http://www.w3.org/2000/svg">
<defs>
<font id="Canaro-Bold" horiz-adv-x="627">
<font-face font-family="Canaro Bold" cap-height="680" ascent="800" bbox="-67 -277 1056 964" units-per-em="1000" descent="-200" x-height="485" unicode-range="U+0020-FB02" underline-position="-150" underline-thickness="50" font-weight="700" panose-1="0 0 8 0 0 0 0 0 0 0"/>
<missing-glyph/>
<glyph horiz-adv-x="227" glyph-name="space" unicode=" "/>
<glyph horiz-adv-x="277" glyph-name="exclam" unicode="!" d="M140 -18q-39 0 -67 27t-28 66q0 38 28 64.5t67 26.5q40 0 68 -26.5t28 -64.5q0 -39 -28 -66t-68 -27zM229 680l-12 -467h-158l-12 467h182z"/>
<glyph horiz-adv-x="439" glyph-name="quotedbl" unicode='&quot;' d="M404 768l-32 -267h-130v267h162zM220 768l-32 -267h-130v267h162z"/>
<glyph horiz-adv-x="793" glyph-name="numbersign" unicode="#" d="M342 382l-31 -100h136l31 100h-136zM603 282h109v-136h-152l-46 -146h-156l46 146h-136l-45 -146h-156l45 146h-85v136h128l31 100h-104v136h147l51 163h156l-51 -163h135l51 163h156l-51 -163h91v-136h-133z"/>
<glyph horiz-adv-x="679" glyph-name="dollar" unicode="$" d="M630 204q0 -91 -56 -146t-159 -69v-99h-131v98q-121 12 -241 56l38 149q151 -57 259 -58h5q104 0 104 58q0 26 -23 41q-10 9 -37 17q-5 2 -48 13q-6 2 -27.5 6t-27.5 5q-117 25 -170 69q-52 43 -52 131q0 89 58.5 144.5t161.5 67.5v112h131v-113q113 -11 200 -42 l-36 -146q-147 45 -238 45q-95 0 -95 -60q0 -28 26.5 -41t104.5 -29l20 -4q117 -26 175 -70q58 -43 58 -135z"/>
<glyph horiz-adv-x="1091" glyph-name="percent" unicode="%" d="M913 186q0 41 -27 67.5t-66 26.5t-66 -26.5t-27 -67.5q0 -42 26.5 -69t66.5 -27t66.5 27t26.5 69zM820 386q88 0 146 -56q58 -55 58 -144q0 -91 -58 -146q-56 -55 -146 -55q-88 0 -146 55q-57 55 -57 146q0 88 57 144q59 56 146 56zM204 426q26 -26 66 -26t66 26 q27 27 27 69q0 43 -27 68q-27 27 -66 27t-66 -27q-27 -25 -27 -68q0 -42 27 -69zM348 0h-82l468 680h82zM271 695q87 0 145 -56q58 -55 58 -144q0 -91 -58 -146q-56 -55 -145 -55t-147 55q-57 55 -57 146q0 89 57 144q59 56 147 56z"/>
<glyph horiz-adv-x="641" glyph-name="ampersand" unicode="&amp;" d="M411 287h-105q-61 0 -93.5 -20.5t-32.5 -58.5t32 -62t84 -24t83 25q32 26 32 66v74zM564 287v-74q0 -103 -74 -166q-74 -62 -194 -62q-122 0 -195 58q-74 59 -74 153q0 114 109 157q-70 43 -70 141q0 90 69 145q70 56 184 56q83 0 159 -22l-30 -132q-79 17 -131 17 q-44 0 -71 -19.5t-27 -51.5q0 -41 19 -58t68 -17h318v-125h-60z"/>
<glyph horiz-adv-x="256" glyph-name="quotesingle" unicode="&apos;" d="M221 768l-32 -267h-131v267h163z"/>
<glyph horiz-adv-x="378" glyph-name="parenleft" unicode="(" d="M224 787l126 -75q-76 -122 -113 -219q-37 -96 -37 -232t37 -232q39 -102 113 -222l-126 -76q-187 239 -187 530q0 294 187 526z"/>
<glyph horiz-adv-x="373" glyph-name="parenright" unicode=")" d="M23 712l126 75q187 -232 187 -526q0 -291 -187 -530l-126 76q74 120 113 222q37 96 37 232q0 133 -38 232q-38 101 -112 219z"/>
<glyph horiz-adv-x="400" glyph-name="asterisk" unicode="*" d="M373 470l-42 -72l-89 53v-96h-84v96l-89 -53l-42 72l91 55l-91 55l42 73l89 -54v94h84v-94l89 54l42 -73l-91 -55z"/>
<glyph horiz-adv-x="669" glyph-name="plus" unicode="+" d="M401 264v-173h-133v173h-171v128h171v174h133v-174h171v-128h-171z"/>
<glyph horiz-adv-x="325" glyph-name="comma" unicode="," d="M57 -130l61 130q-61 25 -61 84q0 42 31 71.5t74 29.5q44 0 75 -29.5t31 -71.5q0 -29 -17 -61q-23 -44 -89 -153h-105z"/>
<glyph horiz-adv-x="524" glyph-name="hyphen" unicode="-" d="M428 335v-154h-331v154h331z"/>
<glyph horiz-adv-x="324" glyph-name="period" unicode="." d="M236 11q-31 -29 -74 -29t-75 29q-30 30 -30 73q0 44 30 72q32 29 75 29t74 -29q31 -28 31 -72q0 -43 -31 -73z"/>
<glyph horiz-adv-x="525" glyph-name="slash" unicode="/" d="M137 -272h-135l378 1040h135z"/>
<glyph horiz-adv-x="738" glyph-name="zero" unicode="0" d="M251 191q45 -56 118 -56t117 56q45 57 45 149t-45 148q-44 57 -117 57t-118 -57q-44 -56 -44 -148q0 -91 44 -149zM369 695q147 0 236 -98t89 -257q0 -160 -89 -258q-88 -97 -236 -97q-146 0 -236 97q-89 98 -89 258q0 159 89 257q90 98 236 98z"/>
<glyph horiz-adv-x="439" glyph-name="one" unicode="1" d="M359 0h-162v493l-154 -37l-33 139l295 85h54v-680z"/>
<glyph horiz-adv-x="585" glyph-name="two" unicode="2" d="M546 0h-495v110l224 208q54 50 74.5 77.5t20.5 57.5q0 45 -29 68.5t-82 23.5q-71 0 -182 -37l-35 139q132 48 244 48q123 0 187 -62q64 -61 64 -156q0 -67 -37.5 -125.5t-120.5 -132.5l-89 -74h256v-145z"/>
<glyph horiz-adv-x="608" glyph-name="three" unicode="3" d="M540 588l-162 -190l8 -1q83 -10 132 -60.5t49 -123.5q0 -109 -70 -168.5t-203 -59.5q-135 0 -259 56l48 128q114 -47 213 -47q50 0 80.5 24t30.5 64q0 30 -31 49t-82 19h-128v70l161 187h-264v145h477v-92z"/>
<glyph horiz-adv-x="668" glyph-name="four" unicode="4" d="M222 243h191v244zM566 243h76v-134h-76v-109h-153v109h-381v113l381 458h153v-437z"/>
<glyph horiz-adv-x="617" glyph-name="five" unicode="5" d="M257 433l65 -3q120 -7 186.5 -62.5t66.5 -150.5q0 -104 -73 -168q-71 -64 -202 -64q-135 0 -258 57l47 134q116 -49 208 -49q53 0 83.5 23.5t30.5 62.5q0 36 -32 57.5t-86 23.5l-199 10l33 376h419v-151h-280z"/>
<glyph horiz-adv-x="635" glyph-name="six" unicode="6" d="M447 245q0 55 -36 88t-94 33q-59 0 -94.5 -33.5t-35.5 -87.5q0 -57 36 -91t94 -34t94 34t36 91zM488 680l-144 -190q116 -7 187 -74q70 -64 70 -171q0 -117 -79 -189q-79 -71 -205 -71t-206 71q-78 72 -78 189q0 75 63 161l202 274h190z"/>
<glyph horiz-adv-x="574" glyph-name="seven" unicode="7" d="M549 585l-249 -585h-177l230 529h-320v151h516v-95z"/>
<glyph glyph-name="eight" unicode="8" d="M423 204q0 38 -30.5 62t-78.5 24q-49 0 -79 -24t-30 -62q0 -36 31 -60.5t78 -24.5t78 24.5t31 60.5zM222 491q0 -36 25.5 -58.5t66.5 -22.5t66.5 22.5t25.5 58.5q0 35 -25.5 57t-66.5 22t-66.5 -22t-25.5 -57zM472 353q122 -50 122 -166q0 -92 -76 -147t-204 -55t-204 55 t-76 147q0 116 122 166q-95 44 -95 150q0 87 70 139q71 53 183 53q110 0 181 -53t71 -139q0 -107 -94 -150z"/>
<glyph horiz-adv-x="645" glyph-name="nine" unicode="9" d="M187 435q0 -55 36 -88t94 -33q59 0 95 33.5t36 87.5q0 57 -36.5 91t-94.5 34t-94 -34t-36 -91zM317 695q127 0 205 -72q79 -70 79 -188q0 -74 -49 -145l-192 -290h-186l127 189q-120 4 -194 71q-74 68 -74 175q0 118 79 188q80 72 205 72z"/>
<glyph horiz-adv-x="324" glyph-name="colon" unicode=":" d="M268 84q0 -43 -31 -72.5t-75 -29.5t-74.5 29.5t-30.5 72.5t30.5 72t74.5 29t75 -29.5t31 -71.5zM236 328q-31 -29 -74 -29t-75 29q-30 28 -30 72t30 72q32 29 75 29t74 -29q31 -28 31 -72t-31 -72z"/>
<glyph horiz-adv-x="331" glyph-name="semicolon" unicode=";" d="M57 -130l61 130q-61 25 -61 84q0 42 31 71.5t74 29.5q44 0 75 -29.5t31 -71.5q0 -29 -17 -61q-23 -44 -89 -153h-105zM168 299q-43 0 -74 29.5t-31 71.5t31 71.5t74 29.5q44 0 75 -29.5t31 -71.5q0 -43 -31 -72t-75 -29z"/>
<glyph horiz-adv-x="529" glyph-name="less" unicode="&lt;" d="M465 570v-147l-258 -116l258 -117v-147l-422 190v147z"/>
<glyph horiz-adv-x="675" glyph-name="equal" unicode="=" d="M579 154h-482v128h482v-128zM579 361h-482v128h482v-128z"/>
<glyph horiz-adv-x="529" glyph-name="greater" unicode="&gt;" d="M485 233l-422 -190v147l258 117l-258 116v147l422 -190v-147z"/>
<glyph horiz-adv-x="506" glyph-name="question" unicode="?" d="M200 166q40 0 68 -26.5t28 -64.5q0 -39 -28 -66t-68 -27q-39 0 -67 27t-28 66q0 38 28 64.5t67 26.5zM231 695q112 0 182 -59q69 -58 69 -153q0 -90 -58 -151q-57 -61 -148 -61h-8l3 -61h-147l-19 179h118q48 0 77 24t29 66q0 36 -27 57.5t-73 21.5q-51 0 -173 -18 l-21 131q102 24 196 24z"/>
<glyph horiz-adv-x="1009" glyph-name="at" unicode="@" d="M486 357q-54 0 -81.5 -32t-27.5 -89q0 -50 29 -83t73 -33q53 0 100 41v26v164q-48 6 -93 6zM510 690q207 0 333 -123q127 -121 127 -324q0 -122 -65 -185q-65 -62 -169 -62q-106 0 -137 60q-68 -61 -152 -61q-88 0 -153 68q-65 70 -65 182q5 107 66 170.5t164 63.5 q86 0 190 -13l81 -10v-297q0 -40 9 -55.5t33 -15.5q131 0 131 155q0 172 -109 277q-107 106 -284 106q-167 0 -280 -110t-113 -273q0 -165 102 -274q103 -108 268 -110q99 0 271 38l12 -60q-168 -42 -283 -42q-195 0 -316 127t-121 321q0 191 131 319q133 128 329 128z"/>
<glyph horiz-adv-x="788" glyph-name="A" unicode="A" d="M394 482l-93 -227h187zM243 112l-46 -112h-184l303 684h157l302 -684h-183l-47 112h-302z"/>
<glyph horiz-adv-x="669" glyph-name="B" unicode="B" d="M355 130q114 0 114 80q0 33 -26.5 51t-71.5 18h-136v-146q1 0 59 -2q29 -1 61 -1zM342 548h-107v-150h119q43 0 69 21.5t26 57.5q0 71 -107 71zM489 344q66 -15 105.5 -58t39.5 -100q0 -92 -68.5 -143t-189.5 -51q-128 0 -309 8v680q166 6 296 6q115 0 179.5 -47.5 t64.5 -133.5q0 -58 -32 -101.5t-86 -59.5z"/>
<glyph horiz-adv-x="714" glyph-name="C" unicode="C" d="M673 662l-28 -153q-139 27 -200 27q-103 0 -162 -53t-59 -141q0 -90 58 -145t154 -55q72 0 209 27l28 -147q-135 -37 -249 -37q-170 0 -276 98q-104 98 -104 258q0 158 104 256q106 98 276 98q122 0 249 -33z"/>
<glyph horiz-adv-x="734" glyph-name="D" unicode="D" d="M341 143q75 0 124 55q51 56 51 144t-53 141q-53 54 -136 54q-50 0 -92 -2v-390q46 -2 106 -2zM320 688q168 0 268 -94q102 -94 102 -252q0 -159 -99 -255q-100 -95 -254 -95q-112 0 -270 8v680q158 8 253 8z"/>
<glyph glyph-name="E" unicode="E" d="M235 412h301v-144h-301v-121h346v-147h-514v680h514v-147h-346v-121z"/>
<glyph horiz-adv-x="588" glyph-name="F" unicode="F" d="M235 384h286v-153h-286v-231h-168v680h499v-149h-331v-147z"/>
<glyph horiz-adv-x="787" glyph-name="G" unicode="G" d="M728 402v-344q-188 -73 -314 -73q-165 0 -268 98q-102 97 -102 259q0 159 103 256t273 97q124 0 254 -32l-29 -150q-142 24 -209 24q-96 0 -155 -54q-59 -53 -59 -141t53 -144q54 -55 141 -55q70 0 168 23v98h-216v138h360z"/>
<glyph horiz-adv-x="754" glyph-name="H" unicode="H" d="M688 0h-169v255h-284v-255h-168v680h168v-273h284v273h169v-680z"/>
<glyph horiz-adv-x="299" glyph-name="I" unicode="I" d="M234 680v-680h-169v680h169z"/>
<glyph horiz-adv-x="560" glyph-name="J" unicode="J" d="M503 680v-399q0 -140 -68.5 -218t-191.5 -78q-108 0 -234 43l31 147q118 -29 196 -29q45 0 70.5 34.5t25.5 96.5v403h171z"/>
<glyph horiz-adv-x="723" glyph-name="K" unicode="K" d="M235 229v-229h-168v680h168v-287h33l222 287h204l-247 -317l263 -363h-206l-164 229h-105z"/>
<glyph horiz-adv-x="595" glyph-name="L" unicode="L" d="M569 0h-502v680h168v-531h334v-149z"/>
<glyph horiz-adv-x="933" glyph-name="M" unicode="M" d="M691 328l-163 -328h-123l-163 328l-21 -328h-164l35 680h151l224 -460l223 460h150l36 -680h-164z"/>
<glyph horiz-adv-x="772" glyph-name="N" unicode="N" d="M705 680v-680h-154l-316 395v-395h-168v680h155l315 -398v398h168z"/>
<glyph horiz-adv-x="818" glyph-name="O" unicode="O" d="M271 195q54 -55 138 -55q85 0 137 55q54 55 54 145q0 88 -54 144q-52 55 -137 55q-84 0 -138 -55q-53 -56 -53 -144q0 -89 53 -145zM145 597q103 98 264 98q162 0 263 -98q102 -97 102 -257t-102 -257q-101 -98 -263 -98q-161 0 -264 98q-101 98 -101 257t101 257z"/>
<glyph horiz-adv-x="650" glyph-name="P" unicode="P" d="M235 331h104q54 0 86 28.5t32 76.5q0 50 -32 77.5t-86 27.5q-14 0 -104 -2v-208zM329 688q137 0 216 -67q80 -66 80 -184q0 -116 -81 -185q-80 -68 -215 -68h-94v-184h-168v680q171 8 262 8z"/>
<glyph horiz-adv-x="818" glyph-name="Q" unicode="Q" d="M409 140q84 0 136 55q54 55 54 145q0 88 -54 144q-52 55 -136 55t-138 -55q-53 -56 -53 -144q0 -89 53 -145q54 -55 138 -55zM775 340q0 -107 -48 -189t-135 -125l158 -191h-202l-126 150h-13q-161 0 -264 98q-101 98 -101 257t101 257q103 98 264 98t264 -98 q102 -97 102 -257z"/>
<glyph horiz-adv-x="680" glyph-name="R" unicode="R" d="M235 337h108q52 0 83.5 29t31.5 76q0 99 -122 99q-27 0 -50 -1h-51v-203zM346 195h-40h-71v-195h-168v680q139 6 273 6q135 0 210.5 -63t75.5 -179q0 -138 -118 -206l163 -238h-200z"/>
<glyph horiz-adv-x="679" glyph-name="S" unicode="S" d="M615 644l-36 -146q-147 45 -238 45q-95 0 -95 -60q0 -34 49 -50q19 -7 102 -24q117 -26 175 -70q58 -43 58 -135q0 -105 -75.5 -162t-208.5 -57q-146 0 -303 59l38 149q151 -57 258 -58h5q105 0 105 58q0 26 -23 41q-10 9 -37 17q-5 2 -48 13q-6 2 -27.5 6t-27.5 5 q-118 25 -171 69q-52 45 -52 131q0 100 74 157q74 58 203 58q146 0 275 -46z"/>
<glyph horiz-adv-x="675" glyph-name="T" unicode="T" d="M422 529v-529h-169v529h-228v151h625v-151h-228z"/>
<glyph horiz-adv-x="749" glyph-name="U" unicode="U" d="M693 680v-373q0 -151 -86 -237q-85 -85 -233 -85q-147 0 -232 85t-85 237v373h170v-373q0 -77 39.5 -120.5t107.5 -43.5q69 0 109 43.5t40 120.5v373h170z"/>
<glyph horiz-adv-x="780" glyph-name="V" unicode="V" d="M474 0h-168l-289 680h191l182 -456l183 456h190z"/>
<glyph horiz-adv-x="1065" glyph-name="W" unicode="W" d="M836 0h-164l-139 400l-140 -400h-164l-215 680h179l126 -416l144 416h139l144 -416l126 416h179z"/>
<glyph horiz-adv-x="753" glyph-name="X" unicode="X" d="M491 335l247 -335h-197l-164 208l-165 -208h-197l246 335l-242 345h206l152 -209l151 209h205z"/>
<glyph horiz-adv-x="745" glyph-name="Y" unicode="Y" d="M288 215l-274 465h189l169 -286l170 286h189l-273 -465v-215h-170v215z"/>
<glyph horiz-adv-x="668" glyph-name="Z" unicode="Z" d="M620 574l-332 -423h338v-151h-585v106l340 423h-324v151h563v-106z"/>
<glyph horiz-adv-x="383" glyph-name="bracketleft" unicode="[" d="M211 -99h145v-151h-307v1020h307v-151h-145v-718z"/>
<glyph horiz-adv-x="525" glyph-name="backslash" unicode="\" d="M192 768l318 -1040h-162l-318 1040h162z"/>
<glyph horiz-adv-x="383" glyph-name="bracketright" unicode="]" d="M27 619v151h307v-1020h-307v151h145v718h-145z"/>
<glyph horiz-adv-x="436" glyph-name="asciicircum" unicode="^" d="M218 563l-67 -106h-139l144 223h123l146 -223h-140z"/>
<glyph horiz-adv-x="621" glyph-name="underscore" unicode="_" d="M27 -91h568v-137h-568v137z"/>
<glyph horiz-adv-x="600" glyph-name="grave" unicode="`" d="M409 560h-155l-130 153h202z"/>
<glyph horiz-adv-x="626" glyph-name="a" unicode="a" d="M305 369q-56 0 -85.5 -34t-29.5 -93q0 -55 30.5 -89t78.5 -34q55 0 104 42v203q-62 5 -98 5zM276 500q82 0 290 -24v-476h-163v33q-61 -48 -140 -48q-95 0 -162 69q-68 71 -68 191q3 117 67 185q64 70 176 70z"/>
<glyph glyph-name="b" unicode="b" d="M317 369q-34 0 -93 -8v-235q66 -7 98 -7q56 0 86 33.5t30 93.5q0 123 -121 123zM224 710v-219q68 9 120 9q117 0 182.5 -68t67.5 -186q0 -124 -69 -191q-68 -67 -167 -67q-118 0 -296 20v702h162z"/>
<glyph horiz-adv-x="514" glyph-name="c" unicode="c" d="M483 476l-20 -123q-100 17 -135 17q-63 0 -100.5 -35t-37.5 -92q0 -56 36 -89.5t96 -33.5q54 0 144 18l17 -123q-90 -30 -173 -30q-123 0 -200 71t-77 189q0 116 77 187t203 71q89 0 170 -27z"/>
<glyph glyph-name="d" unicode="d" d="M310 369q-121 0 -121 -123q0 -60 30 -93.5t86 -33.5q32 0 98 7v235q-59 8 -93 8zM565 710v-702q-178 -20 -296 -20q-99 0 -167 67q-69 68 -69 191q2 118 67.5 186t182.5 68q53 0 120 -9v219h162z"/>
<glyph horiz-adv-x="563" glyph-name="e" unicode="e" d="M292 377q-41 0 -68 -23t-35 -65h200q-2 40 -28.5 64t-68.5 24zM287 500q105 0 173 -60q67 -60 69 -158q0 -44 -9 -92h-325q28 -73 121 -73q60 0 174 24l21 -118q-117 -38 -198 -38q-132 0 -207 72q-74 72 -74 186q0 115 71 186q73 71 184 71z"/>
<glyph horiz-adv-x="433" glyph-name="f" unicode="f" d="M429 340h-157v-340h-162v340h-103v145h103v63q0 102 55.5 159t149.5 57q39 0 102 -11l-18 -132q-23 4 -54 4q-73 0 -73 -86v-54h157v-145z"/>
<glyph horiz-adv-x="622" glyph-name="g" unicode="g" d="M305 369q-56 0 -85.5 -34t-29.5 -93q0 -51 30.5 -84t78.5 -33q58 0 104 7v232q-62 5 -98 5zM276 500q57 0 99 -3q32 -2 104 -11l87 -10v-469q0 -124 -75 -194.5t-214 -70.5q-79 0 -176 30l23 124q115 -20 147 -20q128 0 132 121q-58 -5 -133 -5q-97 0 -168 68 q-69 69 -69 185q2 116 66 185q64 70 177 70z"/>
<glyph horiz-adv-x="623" glyph-name="h" unicode="h" d="M368 500q89 0 144 -52q55 -51 55 -135v-313h-162v265q0 43 -22 65.5t-60 22.5q-37 0 -99 -9v-344h-162v710h162v-221q90 11 144 11z"/>
<glyph horiz-adv-x="276" glyph-name="i" unicode="i" d="M219 485v-485h-162v485h162zM138 544q-42 0 -70.5 27.5t-28.5 68.5q0 42 28.5 70t70.5 28q40 0 69 -28.5t29 -69.5t-29 -68.5t-69 -27.5z"/>
<glyph horiz-adv-x="279" glyph-name="j" unicode="j" d="M215 485v-479q0 -67 -9.5 -108t-34.5 -75q-49 -70 -203 -71l-10 135q61 2 77 25q18 22 18 79v494h162zM133 738q42 0 71 -28t29 -70q0 -41 -29 -68.5t-71 -27.5t-70.5 27.5t-28.5 68.5q0 42 28.5 70t70.5 28z"/>
<glyph horiz-adv-x="608" glyph-name="k" unicode="k" d="M224 319h22l143 166h189l-174 -203l189 -282h-186l-114 169h-69v-169h-162v710h162v-391z"/>
<glyph horiz-adv-x="289" glyph-name="l" unicode="l" d="M226 710v-710h-163v710h163z"/>
<glyph horiz-adv-x="932" glyph-name="m" unicode="m" d="M673 500q96 0 149.5 -47.5t53.5 -139.5v-313h-162v265q0 47 -21 67.5t-65 20.5q-38 0 -81 -8q3 -25 3 -53v-292h-162v265q0 46 -21 67t-64 21t-79 -4v-349h-162v474q176 26 286 26q69 0 115 -25q118 25 210 25z"/>
<glyph horiz-adv-x="623" glyph-name="n" unicode="n" d="M369 500q90 0 143 -52q55 -51 55 -135v-313h-162v265q0 43 -22 65.5t-60 22.5q-24 0 -99 -5v-348h-162v476q199 24 307 24z"/>
<glyph horiz-adv-x="616" glyph-name="o" unicode="o" d="M428 245q0 54 -33.5 87t-86.5 33t-86.5 -33t-33.5 -87q0 -55 33.5 -89t86.5 -34t86.5 34t33.5 89zM308 504q122 0 199 -71q76 -70 76 -188q0 -117 -76 -190q-77 -72 -199 -72t-199 72q-76 73 -76 190t76 187q77 72 199 72z"/>
<glyph horiz-adv-x="632" glyph-name="p" unicode="p" d="M329 125q48 0 78.5 33t30.5 84q0 59 -29.5 93t-85.5 34q-36 0 -99 -5v-232q46 -7 105 -7zM351 500q110 0 174.5 -68.5t68.5 -186.5q0 -118 -69 -185q-70 -68 -167 -68q-76 0 -134 5v-222h-162v701q181 24 289 24z"/>
<glyph horiz-adv-x="632" glyph-name="q" unicode="q" d="M303 125q58 0 104 7v232q-62 5 -98 5q-56 0 -85.5 -34t-29.5 -93q0 -51 30.5 -84t78.5 -33zM280 500q108 0 290 -24v-701h-163v222q-58 -5 -133 -5q-97 0 -168 68q-69 69 -69 185q4 118 68.5 186.5t174.5 68.5z"/>
<glyph horiz-adv-x="415" glyph-name="r" unicode="r" d="M390 498v-157q-84 0 -166 -6v-335h-162v467q173 31 328 31z"/>
<glyph horiz-adv-x="528" glyph-name="s" unicode="s" d="M40 28l31 123q117 -43 193 -43q68 0 68 30q0 24 -47 33q-8 2 -34 7t-29 6q-89 18 -129 52t-40 97q0 79 57 122.5t159 43.5q109 0 209 -35l-31 -120q-111 34 -177 34q-58 0 -58 -34q0 -18 20 -26t72 -17q10 -2 16 -3q88 -18 128 -51t40 -98q0 -80 -58 -122t-162 -42 q-111 0 -228 43z"/>
<glyph horiz-adv-x="472" glyph-name="t" unicode="t" d="M433 138l15 -133q-77 -20 -152 -20q-91 0 -139.5 53t-48.5 153v149h-93v145h93v165h162v-165h149v-145h-149v-133q0 -77 69 -77q32 0 94 8z"/>
<glyph horiz-adv-x="625" glyph-name="u" unicode="u" d="M566 485v-476q-179 -22 -307 -22q-94 0 -146.5 47.5t-52.5 139.5v311h163v-276q0 -88 81 -88q24 0 99 5v359h163z"/>
<glyph horiz-adv-x="620" glyph-name="v" unicode="v" d="M392 0h-164l-210 485h175l117 -292l117 292h175z"/>
<glyph horiz-adv-x="826" glyph-name="w" unicode="w" d="M657 0h-155l-89 260l-88 -260h-155l-152 485h164l76 -274l95 274h121l94 -275l77 275h163z"/>
<glyph horiz-adv-x="590" glyph-name="x" unicode="x" d="M402 242l170 -242h-179l-98 139l-98 -139h-179l170 242l-170 243h186l91 -127l91 127h186z"/>
<glyph horiz-adv-x="665" glyph-name="y" unicode="y" d="M647 485l-327 -709h-179l115 251l-231 458h182l135 -270l123 270h182z"/>
<glyph horiz-adv-x="517" glyph-name="z" unicode="z" d="M470 399l-207 -262h224v-137h-451v80l215 268h-213v137h432v-86z"/>
<glyph horiz-adv-x="378" glyph-name="braceleft" unicode="{" d="M278 568v-189q0 -51 -20.5 -79.5t-69.5 -44.5q50 -16 70 -44.5t20 -80.5v-189q0 -35 15.5 -46.5t57.5 -11.5v-151q-235 0 -235 203v199q0 33 -17.5 44.5t-61.5 11.5v129q44 0 61.5 11.5t17.5 44.5v199q0 203 235 203v-151q-42 0 -57.5 -11.5t-15.5 -46.5z"/>
<glyph horiz-adv-x="330" glyph-name="bar" unicode="|" d="M237 761v-918h-144v918h144z"/>
<glyph horiz-adv-x="378" glyph-name="braceright" unicode="}" d="M100 379v189q0 35 -15.5 46.5t-57.5 11.5v151q235 0 235 -203v-199q0 -33 17.5 -44.5t61.5 -11.5v-129q-44 0 -61.5 -11.5t-17.5 -44.5v-199q0 -203 -235 -203v151q42 0 57.5 11.5t15.5 46.5v189q0 52 20 80.5t70 44.5q-49 16 -69.5 44.5t-20.5 79.5z"/>
<glyph horiz-adv-x="473" glyph-name="asciitilde" unicode="~" d="M321 418h138q1 -85 -42 -129t-102 -44q-41 0 -75 20l-42 26q-18 7 -24 7q-22 0 -22 -35h-137q0 85 42 128t101 43q40 0 75 -19l43 -25q17 -7 24 -7q21 0 21 35z"/>
<glyph horiz-adv-x="287" glyph-name="exclamdown" unicode="¡" d="M64 272h158l12 -467h-182zM145 319q-40 0 -68 26.5t-28 65.5t28 65.5t68 26.5t68 -26.5t28 -65.5t-28.5 -65.5t-67.5 -26.5z"/>
<glyph horiz-adv-x="513" glyph-name="cent" unicode="¢" d="M467 150l17 -125q-67 -21 -113 -25v-110h-131v112q-96 19 -151.5 86t-55.5 165t56 165.5t151 86.5v114h131v-112q46 -4 113 -25l-21 -125q-100 17 -144 17q-57 0 -92 -33.5t-35 -87.5t35 -87.5t92 -33.5q58 0 148 18z"/>
<glyph horiz-adv-x="608" glyph-name="sterling" unicode="£" d="M572 0h-544v139h56v130h-56v126h56v85q0 96 69 154q68 58 182 58q88 0 197 -23l-22 -131q-119 17 -167 17q-47 0 -72.5 -23t-25.5 -65v-72h182v-126h-182v-130h327v-139z"/>
<glyph horiz-adv-x="745" glyph-name="yen" unicode="¥" d="M654 296v-97h-196v-43h196v-97h-196v-59h-170v59h-197v97h197v43h-197v97h149l-226 384h189l169 -286l170 286h189l-225 -384h148z"/>
<glyph horiz-adv-x="330" glyph-name="brokenbar" unicode="¦" d="M237 -158h-144v408h144v-408zM237 352h-144v408h144v-408z"/>
<glyph horiz-adv-x="579" glyph-name="section" unicode="§" d="M216 353q-32 -37 -32 -70q0 -28 28 -46t94 -38q21 -6 57 -19q32 37 32 69q0 29 -28.5 47.5t-92.5 36.5q-33 11 -58 20zM304 695q115 0 207 -47l-46 -119q-93 43 -162 43q-80 0 -80 -51q0 -16 10.5 -25.5t32.5 -21.5q4 -2 19.5 -6.5t19.5 -5.5t13 -3.5t20.5 -5.5t14.5 -4 q97 -29 144 -67q49 -39 49 -116q0 -92 -80 -148q40 -40 40 -102q0 -83 -61.5 -131t-169.5 -48q-119 0 -206 48l45 119q96 -44 162 -44q80 0 80 49q0 36 -44 48q-12 6 -38 13l-47 14q-102 29 -148 68.5t-46 113.5q0 94 80 148q-40 41 -40 102q0 83 61.5 131t169.5 48z"/>
<glyph horiz-adv-x="600" glyph-name="dieresis" unicode="¨" d="M350 700q26 26 65 26q38 0 64 -26q27 -24 27 -62q0 -36 -27 -63q-28 -25 -64 -25q-37 0 -65 25q-27 27 -27 63q0 38 27 62zM121 700q26 26 65 26q38 0 64 -26q27 -24 27 -62q0 -36 -27 -63q-28 -25 -64 -25q-37 0 -65 25q-27 27 -27 63q0 38 27 62z"/>
<glyph horiz-adv-x="803" glyph-name="copyright" unicode="©" d="M535 505l-14 -89q-75 14 -103 14q-45 0 -69 -23.5t-24 -65.5q0 -41 24 -64t69 -23q42 0 105 12l12 -88q-67 -21 -121 -21q-95 0 -148 50t-53 134t53 134.5t148 50.5q58 0 121 -21zM606 539q-82 81 -204 81t-204 -81q-82 -79 -82 -199q0 -119 82 -200q83 -80 204 -80 t204 80q82 81 82 200q0 120 -82 199zM141 593q105 102 261 102t260 -102q104 -101 104 -253t-104 -254q-104 -101 -260 -101q-155 0 -261 101q-104 102 -104 254t104 253z"/>
<glyph horiz-adv-x="462" glyph-name="ordfeminine" unicode="ª" d="M292 481l-87 -5q-45 -2 -45 -30q0 -29 49 -29q26 0 83 6v58zM244 695h3q79 0 120 -33.5t41 -98.5v-216q-130 -18 -227 -18q-65 0 -101.5 30.5t-36.5 84.5q0 50 37.5 75t117.5 30l94 5v3q-3 35 -54 35q-46 0 -148 -12l-14 98q114 17 168 17z"/>
<glyph horiz-adv-x="630" glyph-name="guillemotleft" unicode="«" d="M572 111l-92 -83l-193 220l193 218l93 -77l-110 -139zM318 111l-92 -83l-193 220l193 218l94 -77l-111 -139z"/>
<glyph horiz-adv-x="803" glyph-name="registered" unicode="®" d="M408 441q-41 0 -53 -1v-90h57q20 0 34 14t14 33q0 44 -52 44zM406 526q73 0 114 -34t41 -96q0 -67 -59 -105l86 -123h-121l-63 99h-7h-42v-99h-101v356q32 0 69 1t83 1zM606 539q-82 81 -204 81t-204 -81q-82 -79 -82 -199q0 -119 82 -200q83 -80 204 -80t204 80 q82 81 82 200q0 120 -82 199zM141 593q105 102 261 102t260 -102q104 -101 104 -253t-104 -254q-104 -101 -260 -101q-155 0 -261 101q-104 102 -104 254t104 253z"/>
<glyph horiz-adv-x="600" glyph-name="overscore" unicode="¯" d="M443 692v-124h-286v124h286z"/>
<glyph horiz-adv-x="462" glyph-name="degree" unicode="°" d="M302 521q0 30 -20.5 50t-50.5 20t-50.5 -20t-20.5 -50q0 -29 20.5 -49.5t50.5 -20.5t50.5 20.5t20.5 49.5zM103 645q52 50 128 50t128 -50q51 -49 51 -124t-51 -125q-50 -49 -128 -49t-128 49q-51 50 -51 125t51 124z"/>
<glyph horiz-adv-x="669" glyph-name="plusminus" unicode="±" d="M572 162v-128h-475v128h475zM572 324h-171v-123h-133v123h-171v128h171v124h133v-124h171v-128z"/>
<glyph horiz-adv-x="357" glyph-name="twosuperior" unicode="²" d="M334 278h-311v77l152 128q30 23 30 55q0 42 -55 42q-49 0 -112 -19l-21 98q78 26 152 26q76 0 115.5 -35.5t39.5 -92.5q0 -44 -21.5 -79.5t-70.5 -76.5l-28 -25h130v-98z"/>
<glyph horiz-adv-x="368" glyph-name="threesuperior" unicode="³" d="M333 617l-95 -98l6 -1q45 -7 73.5 -37t28.5 -70q0 -138 -171 -138q-86 0 -160 33l35 90q69 -27 126 -27q62 0 62 37q0 29 -45 29h-104v50l89 95h-141v100h296v-63z"/>
<glyph horiz-adv-x="600" glyph-name="acute" unicode="´" d="M496 713l-130 -153h-155l83 153h202z"/>
<glyph horiz-adv-x="766" glyph-name="paragraph" unicode="¶" d="M350 555l-80 1q-52 0 -81 -28t-29 -80q0 -53 29 -84t81 -31h80v222zM286 689q302 0 428 -9v-791h-146v661q-64 2 -71 2v-663h-147v314h-64q-123 0 -194 67q-72 68 -72 179t72 175q73 65 194 65z"/>
<glyph horiz-adv-x="324" glyph-name="middot" unicode="·" d="M236 195q-31 -29 -74 -29t-75 29q-30 29 -30 72t30 72q32 29 75 29t74 -29q31 -28 31 -72t-31 -72z"/>
<glyph horiz-adv-x="600" glyph-name="cedilla" unicode="¸" d="M319 -211h-121l43 163h145z"/>
<glyph horiz-adv-x="319" glyph-name="onesuperior" unicode="¹" d="M296 382v-101h-272v101h79v166l-73 -18l-23 97l174 53h36v-298h79z"/>
<glyph horiz-adv-x="459" glyph-name="ordmasculine" unicode="º" d="M304 512q0 33 -21.5 54.5t-53.5 21.5q-31 0 -53 -21.5t-22 -54.5q0 -34 21.5 -55.5t53.5 -21.5q33 0 54 21t21 56zM229 695q86 0 140 -51q55 -49 55 -131q0 -83 -55 -135q-54 -51 -140 -51q-85 0 -140 51q-54 52 -54 135q0 81 54 131q55 51 140 51z"/>
<glyph horiz-adv-x="630" glyph-name="guillemotright" unicode="»" d="M307 389l93 77l193 -218l-193 -220l-92 83l109 139zM53 389l94 77l193 -218l-193 -220l-92 83l109 139z"/>
<glyph horiz-adv-x="921" glyph-name="onequarter" unicode="¼" d="M713 278l-93 -108h93v108zM875 170v-92h-54v-78h-108v78h-229v79l219 242h118v-229h54zM749 680l-467 -680h-82l467 680h82zM67 281v101h79v166l-73 -18l-23 97l174 53h36v-298h79v-101h-272z"/>
<glyph horiz-adv-x="925" glyph-name="onehalf" unicode="½" d="M891 98v-98h-311v77l153 128q30 24 30 55q0 42 -55 42q-49 0 -112 -19l-22 98q78 26 153 26q76 0 115.5 -35.5t39.5 -92.5q0 -44 -21.5 -79.5t-70.5 -76.5l-29 -25h130zM741 680l-468 -680h-82l468 680h82zM65 281v101h79v166l-73 -18l-23 97l174 53h36v-298h79v-101 h-272z"/>
<glyph horiz-adv-x="929" glyph-name="threequarters" unicode="¾" d="M286 0h-82l467 680h82zM355 617l-95 -98l6 -1q45 -7 73.5 -37t28.5 -70q0 -138 -171 -138q-87 0 -160 33l35 90q69 -27 126 -27q62 0 62 37q0 29 -45 29h-104v50l89 95h-141v100h296v-63zM634 170h93v108zM836 170h54v-92h-54v-78h-109v78h-228v79l219 242h118v-229z"/>
<glyph horiz-adv-x="512" glyph-name="questiondown" unicode="¿" d="M286 -196q-114 0 -182 58q-69 58 -69 154q0 88 57 150q58 61 149 61h8l-3 62h147l19 -179h-118q-48 0 -77 -24.5t-29 -65.5q0 -36 27 -57.5t73 -21.5q54 0 173 17l21 -131q-107 -23 -196 -23zM317 333q-40 0 -68 26t-28 65t28 65.5t68 26.5q39 0 67 -26.5t28 -65.5 t-28 -65t-67 -26z"/>
<glyph horiz-adv-x="788" glyph-name="Agrave" unicode="À" d="M395 482l-94 -227h187zM243 112l-46 -112h-184l303 684h157l302 -684h-183l-47 112h-302zM475 743h-154l-130 147h201z"/>
<glyph horiz-adv-x="788" glyph-name="Aacute" unicode="Á" d="M395 482l-94 -227h187zM243 112l-46 -112h-184l303 684h157l302 -684h-183l-47 112h-302zM610 890l-130 -147h-162l90 147h202z"/>
<glyph horiz-adv-x="788" glyph-name="Acircumflex" unicode="Â" d="M395 482l-94 -227h187zM243 112l-46 -112h-184l303 684h157l302 -684h-183l-47 112h-302zM394 802l-45 -59h-148l123 147h141l123 -147h-148z"/>
<glyph horiz-adv-x="788" glyph-name="Atilde" unicode="Ã" d="M395 482l-94 -227h187zM243 112l-46 -112h-184l303 684h157l302 -684h-183l-47 112h-302zM475 892h121q0 -76 -37.5 -114.5t-89.5 -38.5q-33 0 -66 18l-38 23q-14 6 -22 6q-19 0 -19 -31h-121q0 76 37 113.5t90 37.5q37 0 66 -16l38 -23q10 -5 21 -5q20 0 20 30z"/>
<glyph horiz-adv-x="788" glyph-name="Adieresis" unicode="Ä" d="M395 482l-94 -227h187zM243 112l-46 -112h-184l303 684h157l302 -684h-183l-47 112h-302zM573 758q-28 -25 -65 -25t-65 25q-26 26 -26 63q0 39 26 62q26 26 65 26t65 -26q27 -24 27 -62q0 -36 -27 -63zM343 758q-28 -25 -64 -25q-37 0 -65 25q-27 27 -27 63q0 38 27 62 q26 26 65 26q38 0 64 -26q27 -24 27 -62q0 -36 -27 -63z"/>
<glyph horiz-adv-x="788" glyph-name="Aring" unicode="Å" d="M395 482l-94 -227h187zM243 112l-46 -112h-184l303 684h157l302 -684h-183l-47 112h-302zM360 812q12 -12 34 -12q21 0 33 12q13 13 13 33q0 19 -13 32q-12 12 -33 12q-22 0 -34 -12t-12 -32q0 -21 12 -33zM523 845q0 -54 -36 -87t-93 -33t-92.5 33t-35.5 87 q0 53 35.5 86t92.5 33t93 -33t36 -86z"/>
<glyph horiz-adv-x="1099" glyph-name="AE" unicode="Æ" d="M542 499l-163 -244h163v244zM711 412h300v-144h-300v-121h345v-147h-514v110h-258l-74 -110h-197l467 680h576v-147h-345v-121z"/>
<glyph horiz-adv-x="714" glyph-name="Ccedilla" unicode="Ç" d="M382 -211h-121l43 163h145zM674 662l-28 -153q-140 27 -201 27q-103 0 -161.5 -53t-58.5 -141q0 -90 58 -145t153 -55q70 0 210 27l27 -147q-135 -37 -248 -37q-171 0 -277 98q-104 98 -104 258q0 158 104 256q106 98 276 98q121 0 250 -33z"/>
<glyph glyph-name="Egrave" unicode="È" d="M236 412h300v-144h-300v-121h345v-147h-514v680h514v-147h-345v-121zM399 743h-154l-130 147h201z"/>
<glyph glyph-name="Eacute" unicode="É" d="M236 412h300v-144h-300v-121h345v-147h-514v680h514v-147h-345v-121zM535 890l-130 -147h-162l90 147h202z"/>
<glyph glyph-name="Ecircumflex" unicode="Ê" d="M236 412h300v-144h-300v-121h345v-147h-514v680h514v-147h-345v-121zM319 802l-45 -59h-148l123 147h141l123 -147h-148z"/>
<glyph glyph-name="Edieresis" unicode="Ë" d="M236 412h300v-144h-300v-121h345v-147h-514v680h514v-147h-345v-121zM498 758q-28 -25 -65 -25t-65 25q-26 26 -26 63q0 39 26 62q26 26 65 26t65 -26q27 -24 27 -62q0 -36 -27 -63zM268 758q-28 -25 -64 -25q-37 0 -65 25q-27 27 -27 63q0 38 27 62q26 26 65 26 q38 0 64 -26q27 -24 27 -62q0 -36 -27 -63z"/>
<glyph horiz-adv-x="299" glyph-name="Igrave" unicode="Ì" d="M230 743h-154l-130 147h201zM234 680v-680h-169v680h169z"/>
<glyph horiz-adv-x="299" glyph-name="Iacute" unicode="Í" d="M365 890l-130 -147h-162l90 147h202zM234 680v-680h-169v680h169z"/>
<glyph horiz-adv-x="299" glyph-name="Icircumflex" unicode="Î" d="M234 680v-680h-169v680h169zM149 802l-45 -59h-148l123 147h141l123 -147h-148z"/>
<glyph horiz-adv-x="299" glyph-name="Idieresis" unicode="Ï" d="M234 680v-680h-169v680h169zM328 758q-28 -25 -65 -25t-65 25q-26 26 -26 63q0 39 26 62q26 26 65 26t65 -26q27 -24 27 -62q0 -36 -27 -63zM98 758q-28 -25 -64 -25q-37 0 -65 25q-27 27 -27 63q0 38 27 62q26 26 65 26q38 0 64 -26q27 -24 27 -62q0 -36 -27 -63z"/>
<glyph horiz-adv-x="734" glyph-name="Eth" unicode="Ð" d="M340 143q76 0 125 55q50 56 50 144q0 90 -52 142q-53 53 -136 53q-50 0 -92 -2v-130h119v-146h-119v-114q46 -2 105 -2zM320 688q168 0 269 -94q102 -94 102 -252q0 -159 -99 -255q-100 -95 -254 -95q-111 0 -271 8v259h-47v146h47v275q160 8 253 8z"/>
<glyph horiz-adv-x="772" glyph-name="Ntilde" unicode="Ñ" d="M706 680v-680h-154l-316 395v-395h-169v680h155l315 -398v398h169zM461 892h121q0 -76 -37.5 -114.5t-89.5 -38.5q-33 0 -66 18l-38 23q-13 6 -22 6q-19 0 -19 -31h-121q0 76 37 113.5t90 37.5q37 0 66 -16l38 -23q10 -5 21 -5q20 0 20 30z"/>
<glyph horiz-adv-x="818" glyph-name="Ograve" unicode="Ò" d="M409 140q84 0 136 55q54 55 54 145q0 88 -54 144q-52 55 -136 55t-138 -55q-53 -56 -53 -144q0 -89 53 -145q54 -55 138 -55zM145 597q103 98 264 98t264 -98q102 -97 102 -257t-102 -257q-103 -98 -264 -98t-264 98q-101 98 -101 257t101 257zM490 743h-154l-130 147 h201z"/>
<glyph horiz-adv-x="818" glyph-name="Oacute" unicode="Ó" d="M409 140q84 0 136 55q54 55 54 145q0 88 -54 144q-52 55 -136 55t-138 -55q-53 -56 -53 -144q0 -89 53 -145q54 -55 138 -55zM145 597q103 98 264 98t264 -98q102 -97 102 -257t-102 -257q-103 -98 -264 -98t-264 98q-101 98 -101 257t101 257zM625 890l-130 -147h-162 l90 147h202z"/>
<glyph horiz-adv-x="818" glyph-name="Ocircumflex" unicode="Ô" d="M409 140q84 0 136 55q54 55 54 145q0 88 -54 144q-52 55 -136 55t-138 -55q-53 -56 -53 -144q0 -89 53 -145q54 -55 138 -55zM145 597q103 98 264 98t264 -98q102 -97 102 -257t-102 -257q-103 -98 -264 -98t-264 98q-101 98 -101 257t101 257zM409 802l-45 -59h-148 l123 147h141l123 -147h-148z"/>
<glyph horiz-adv-x="818" glyph-name="Otilde" unicode="Õ" d="M409 140q84 0 136 55q54 55 54 145q0 88 -54 144q-52 55 -136 55t-138 -55q-53 -56 -53 -144q0 -89 53 -145q54 -55 138 -55zM145 597q103 98 264 98t264 -98q102 -97 102 -257t-102 -257q-103 -98 -264 -98t-264 98q-101 98 -101 257t101 257zM490 892h121 q0 -76 -37.5 -114.5t-89.5 -38.5q-33 0 -66 18l-38 23q-13 6 -22 6q-19 0 -19 -31h-121q0 76 37 113.5t90 37.5q37 0 66 -16l38 -23q10 -5 21 -5q20 0 20 30z"/>
<glyph horiz-adv-x="818" glyph-name="Odieresis" unicode="Ö" d="M409 140q84 0 136 55q54 55 54 145q0 88 -54 144q-52 55 -136 55t-138 -55q-53 -56 -53 -144q0 -89 53 -145q54 -55 138 -55zM145 597q103 98 264 98t264 -98q102 -97 102 -257t-102 -257q-103 -98 -264 -98t-264 98q-101 98 -101 257t101 257zM588 758q-28 -25 -65 -25 t-65 25q-26 26 -26 63q0 39 26 62q26 26 65 26t65 -26q27 -24 27 -62q0 -36 -27 -63zM358 758q-28 -25 -64 -25q-37 0 -65 25q-27 27 -27 63q0 38 27 62q26 26 65 26q38 0 64 -26q27 -24 27 -62q0 -36 -27 -63z"/>
<glyph horiz-adv-x="655" glyph-name="multiply" unicode="×" d="M557 183l-91 -91l-139 139l-139 -139l-91 91l139 139l-139 139l91 91l139 -139l139 139l91 -91l-139 -139z"/>
<glyph horiz-adv-x="818" glyph-name="Oslash" unicode="Ø" d="M409 140q84 0 136 55q54 55 54 145q0 65 -29 112l-253 -291q43 -21 92 -21zM218 340q0 -57 23 -101l247 284q-32 16 -79 16q-84 0 -138 -55q-53 -56 -53 -144zM724 628l-38 -44q89 -98 89 -244q0 -160 -102 -257q-103 -98 -264 -98q-114 0 -201 51l-43 -49l-82 70l42 48 q-81 93 -81 235q0 159 101 257q103 98 264 98q104 0 190 -44l42 48z"/>
<glyph horiz-adv-x="749" glyph-name="Ugrave" unicode="Ù" d="M693 680v-373q0 -151 -86 -237q-85 -85 -232 -85q-148 0 -233 85t-85 237v373h170v-373q0 -77 39.5 -120.5t108.5 -43.5t108.5 43.5t39.5 120.5v373h170zM456 743h-154l-130 147h201z"/>
<glyph horiz-adv-x="749" glyph-name="Uacute" unicode="Ú" d="M693 680v-373q0 -151 -86 -237q-85 -85 -232 -85q-148 0 -233 85t-85 237v373h170v-373q0 -77 39.5 -120.5t108.5 -43.5t108.5 43.5t39.5 120.5v373h170zM591 890l-130 -147h-162l90 147h202z"/>
<glyph horiz-adv-x="749" glyph-name="Ucircumflex" unicode="Û" d="M693 680v-373q0 -151 -86 -237q-85 -85 -232 -85q-148 0 -233 85t-85 237v373h170v-373q0 -77 39.5 -120.5t108.5 -43.5t108.5 43.5t39.5 120.5v373h170zM375 802l-45 -59h-148l123 147h141l123 -147h-148z"/>
<glyph horiz-adv-x="749" glyph-name="Udieresis" unicode="Ü" d="M693 680v-373q0 -151 -86 -237q-85 -85 -232 -85q-148 0 -233 85t-85 237v373h170v-373q0 -77 39.5 -120.5t108.5 -43.5t108.5 43.5t39.5 120.5v373h170zM554 758q-28 -25 -65 -25t-65 25q-26 26 -26 63q0 39 26 62q26 26 65 26t65 -26q27 -24 27 -62q0 -36 -27 -63z M324 758q-28 -25 -64 -25q-37 0 -65 25q-27 27 -27 63q0 38 27 62q26 26 65 26q38 0 64 -26q27 -24 27 -62q0 -36 -27 -63z"/>
<glyph horiz-adv-x="745" glyph-name="Yacute" unicode="Ý" d="M589 890l-130 -147h-162l90 147h202zM288 215l-274 465h189l169 -286l170 286h189l-273 -465v-215h-170v215z"/>
<glyph horiz-adv-x="652" glyph-name="Thorn" unicode="Þ" d="M235 241h104q54 0 86 28.5t32 76.5q0 50 -32 77.5t-86 27.5q-14 0 -104 -2v-208zM329 598q137 0 216 -67q80 -66 80 -184q0 -116 -81 -185q-80 -68 -215 -68h-94v-94h-168v680h168v-83q21 1 94 1z"/>
<glyph horiz-adv-x="676" glyph-name="germandbls" unicode="ß" d="M297 764v-139q-73 0 -73 -76v-64h390v-92l-119 -164l6 -1q70 -13 111 -66t41 -134q0 -106 -68 -169q-67 -63 -182 -63q-76 0 -160 22l20 129q79 -13 138 -13q45 0 72 26.5t27 69.5q0 34 -26 56.5t-67 22.5h-97v71l104 161h-190v-341h-162v561q0 203 235 203z"/>
<glyph horiz-adv-x="626" glyph-name="agrave" unicode="à" d="M305 369q-56 0 -85.5 -34t-29.5 -93q0 -55 30.5 -89t78.5 -34q55 0 104 42v203q-62 5 -98 5zM276 500q84 0 289 -24v-476h-162v33q-61 -48 -140 -48q-95 0 -162 69q-68 71 -68 191q3 117 67 185q64 70 176 70zM409 563h-155l-130 153h202z"/>
<glyph horiz-adv-x="626" glyph-name="aacute" unicode="á" d="M305 369q-56 0 -85.5 -34t-29.5 -93q0 -55 30.5 -89t78.5 -34q55 0 104 42v203q-62 5 -98 5zM276 500q84 0 289 -24v-476h-162v33q-61 -48 -140 -48q-95 0 -162 69q-68 71 -68 191q3 117 67 185q64 70 176 70zM529 716l-130 -153h-155l83 153h202z"/>
<glyph horiz-adv-x="626" glyph-name="acircumflex" unicode="â" d="M305 369q-56 0 -85.5 -34t-29.5 -93q0 -55 30.5 -89t78.5 -34q55 0 104 42v203q-62 5 -98 5zM276 500q84 0 289 -24v-476h-162v33q-61 -48 -140 -48q-95 0 -162 69q-68 71 -68 191q3 117 67 185q64 70 176 70zM325 619l-46 -53h-148l123 144h141l123 -144h-148z"/>
<glyph horiz-adv-x="626" glyph-name="atilde" unicode="ã" d="M305 369q-56 0 -85.5 -34t-29.5 -93q0 -55 30.5 -89t78.5 -34q55 0 104 42v203q-62 5 -98 5zM276 500q84 0 289 -24v-476h-162v33q-61 -48 -140 -48q-95 0 -162 69q-68 71 -68 191q3 117 67 185q64 70 176 70zM402 708h119q0 -74 -37 -111.5t-88 -37.5q-35 0 -64 17 l-38 22q-12 6 -20 6q-20 0 -20 -30h-119q0 74 37 111t88 37q36 0 64 -16l38 -22q12 -6 20 -6q20 0 20 30z"/>
<glyph horiz-adv-x="626" glyph-name="adieresis" unicode="ä" d="M305 369q-56 0 -85.5 -34t-29.5 -93q0 -55 30.5 -89t78.5 -34q55 0 104 42v203q-62 5 -98 5zM276 500q84 0 289 -24v-476h-162v33q-61 -48 -140 -48q-95 0 -162 69q-68 71 -68 191q3 117 67 185q64 70 176 70zM375 703q26 26 65 26q38 0 64 -26q27 -24 27 -62 q0 -36 -27 -63q-28 -25 -64 -25q-37 0 -65 25q-27 27 -27 63q0 38 27 62zM146 703q26 26 65 26q38 0 64 -26q27 -24 27 -62q0 -36 -27 -63q-28 -25 -64 -25q-37 0 -65 25q-27 27 -27 63q0 38 27 62z"/>
<glyph horiz-adv-x="626" glyph-name="aring" unicode="å" d="M305 369q-56 0 -85.5 -34t-29.5 -93q0 -55 30.5 -89t78.5 -34q55 0 104 42v203q-62 5 -98 5zM276 500q84 0 289 -24v-476h-162v33q-61 -48 -140 -48q-95 0 -162 69q-68 71 -68 191q3 117 67 185q64 70 176 70zM291 638q12 -12 34 -12q21 0 33 12q13 13 13 33q0 19 -13 32 q-12 12 -33 12q-22 0 -34 -12t-12 -32q0 -21 12 -33zM232 757q36 33 93 33t93 -33q36 -31 36 -86q0 -54 -36 -87t-93 -33t-93 33q-35 33 -35 87t35 86z"/>
<glyph horiz-adv-x="886" glyph-name="ae" unicode="æ" d="M181 144q0 -43 77 -43q50 0 123 17q-15 27 -23 63l-107 -1q-70 0 -70 -36zM612 377q-84 0 -103 -88h200q-1 40 -27.5 64t-69.5 24zM850 279q0 -41 -9 -89h-326q28 -73 125 -73q57 0 171 24l20 -118q-116 -38 -197 -38q-97 0 -167 41q-127 -38 -190 -40q-14 -1 -59 -1 q-89 0 -138.5 43.5t-49.5 119.5q0 72 49.5 106t156.5 34h5l108 -1l-1 14q-2 38 -16.5 53t-54.5 15q-59 0 -184 -17l-17 128q130 21 217 23q109 0 159 -50q67 47 155 47q107 0 174 -61q68 -60 69 -157v-3z"/>
<glyph horiz-adv-x="514" glyph-name="ccedilla" unicode="ç" d="M285 -211h-121l43 163h145zM483 476l-21 -123q-100 17 -134 17q-63 0 -100.5 -35t-37.5 -92q0 -56 36 -89.5t96 -33.5q54 0 144 18l17 -123q-90 -30 -174 -30q-123 0 -200 71q-76 70 -76 189q0 116 77 187t203 71q89 0 170 -27z"/>
<glyph horiz-adv-x="563" glyph-name="egrave" unicode="è" d="M292 377q-41 0 -68 -23t-35 -65h200q-2 40 -28.5 64t-68.5 24zM287 500q107 0 174 -60t69 -158q0 -44 -9 -92h-326q28 -73 121 -73q61 0 175 24l20 -118q-116 -38 -197 -38q-132 0 -207 72t-75 186q0 115 71 186q73 71 184 71zM376 560h-155l-130 153h202z"/>
<glyph horiz-adv-x="563" glyph-name="eacute" unicode="é" d="M292 377q-41 0 -68 -23t-35 -65h200q-2 40 -28.5 64t-68.5 24zM287 500q107 0 174 -60t69 -158q0 -44 -9 -92h-326q28 -73 121 -73q61 0 175 24l20 -118q-116 -38 -197 -38q-132 0 -207 72t-75 186q0 115 71 186q73 71 184 71zM496 713l-130 -153h-155l83 153h202z"/>
<glyph horiz-adv-x="563" glyph-name="ecircumflex" unicode="ê" d="M292 377q-41 0 -68 -23t-35 -65h200q-2 40 -28.5 64t-68.5 24zM287 500q107 0 174 -60t69 -158q0 -44 -9 -92h-326q28 -73 121 -73q61 0 175 24l20 -118q-116 -38 -197 -38q-132 0 -207 72t-75 186q0 115 71 186q73 71 184 71zM292 616l-46 -53h-148l123 144h141 l123 -144h-148z"/>
<glyph horiz-adv-x="563" glyph-name="edieresis" unicode="ë" d="M292 377q-41 0 -68 -23t-35 -65h200q-2 40 -28.5 64t-68.5 24zM287 500q107 0 174 -60t69 -158q0 -44 -9 -92h-326q28 -73 121 -73q61 0 175 24l20 -118q-116 -38 -197 -38q-132 0 -207 72t-75 186q0 115 71 186q73 71 184 71zM342 700q26 26 65 26q38 0 64 -26 q27 -24 27 -62q0 -36 -27 -63q-28 -25 -64 -25q-37 0 -65 25q-27 27 -27 63q0 38 27 62zM113 700q26 26 65 26q38 0 64 -26q27 -24 27 -62q0 -36 -27 -63q-28 -25 -64 -25q-37 0 -65 25q-27 27 -27 63q0 38 27 62z"/>
<glyph horiz-adv-x="276" glyph-name="igrave" unicode="ì" d="M223 560h-155l-130 153h202zM219 485v-485h-162v485h162z"/>
<glyph horiz-adv-x="276" glyph-name="iacute" unicode="í" d="M343 713l-130 -153h-155l83 153h202zM219 485v-485h-162v485h162z"/>
<glyph horiz-adv-x="276" glyph-name="icircumflex" unicode="î" d="M219 485v-485h-162v485h162zM139 616l-46 -53h-148l123 144h141l123 -144h-148z"/>
<glyph horiz-adv-x="276" glyph-name="idieresis" unicode="ï" d="M219 485v-485h-162v485h162zM189 700q26 26 65 26q38 0 64 -26q27 -24 27 -62q0 -36 -27 -63q-28 -25 -64 -25q-37 0 -65 25q-27 27 -27 63q0 38 27 62zM-40 700q26 26 65 26q38 0 64 -26q27 -24 27 -62q0 -36 -27 -63q-28 -25 -64 -25q-37 0 -65 25q-27 27 -27 63 q0 38 27 62z"/>
<glyph horiz-adv-x="609" glyph-name="eth" unicode="ð" d="M188 245q0 -54 33 -88.5t84 -34.5t83.5 34.5t32.5 88.5q0 53 -32.5 86.5t-83.5 33.5t-84 -33.5t-33 -86.5zM128 675l130 51q49 -20 96 -52l100 36l33 -83l-54 -20q67 -63 105 -151.5t38 -186.5q0 -133 -75 -210q-73 -76 -196 -76q-119 0 -196 72q-76 73 -76 190 q0 115 73 187q74 72 180 72q44 0 86 -18q-48 53 -75 73l-147 -53l-32 82l98 35q-37 23 -88 52z"/>
<glyph horiz-adv-x="623" glyph-name="ntilde" unicode="ñ" d="M369 500q90 0 143 -52q55 -51 55 -135v-313h-162v265q0 43 -22 65.5t-60 22.5q-24 0 -99 -5v-348h-162v476q199 24 307 24zM389 705h119q0 -74 -37 -111.5t-88 -37.5q-35 0 -64 17l-38 22q-13 6 -21 6q-19 0 -19 -30h-119q0 74 37 111t88 37q36 0 64 -16l38 -22 q13 -6 21 -6q19 0 19 30z"/>
<glyph horiz-adv-x="616" glyph-name="ograve" unicode="ò" d="M428 245q0 54 -33.5 87t-86.5 33t-86.5 -33t-33.5 -87q0 -55 33.5 -89t86.5 -34t86.5 34t33.5 89zM582 245q0 -118 -76 -190t-198 -72t-199 72q-76 73 -76 190q0 118 76 188q77 71 199 71t198 -71q76 -70 76 -188zM393 560h-155l-130 153h202z"/>
<glyph horiz-adv-x="616" glyph-name="oacute" unicode="ó" d="M428 245q0 54 -33.5 87t-86.5 33t-86.5 -33t-33.5 -87q0 -55 33.5 -89t86.5 -34t86.5 34t33.5 89zM582 245q0 -118 -76 -190t-198 -72t-199 72q-76 73 -76 190q0 118 76 188q77 71 199 71t198 -71q76 -70 76 -188zM512 713l-130 -153h-155l83 153h202z"/>
<glyph horiz-adv-x="616" glyph-name="ocircumflex" unicode="ô" d="M428 245q0 54 -33.5 87t-86.5 33t-86.5 -33t-33.5 -87q0 -55 33.5 -89t86.5 -34t86.5 34t33.5 89zM582 245q0 -118 -76 -190t-198 -72t-199 72q-76 73 -76 190q0 118 76 188q77 71 199 71t198 -71q76 -70 76 -188zM309 616l-46 -53h-148l123 144h141l123 -144h-148z"/>
<glyph horiz-adv-x="616" glyph-name="otilde" unicode="õ" d="M428 245q0 54 -33.5 87t-86.5 33t-86.5 -33t-33.5 -87q0 -55 33.5 -89t86.5 -34t86.5 34t33.5 89zM582 245q0 -118 -76 -190t-198 -72t-199 72q-76 73 -76 190q0 118 76 188q77 71 199 71t198 -71q76 -70 76 -188zM386 705h119q0 -74 -37 -111.5t-88 -37.5q-35 0 -64 17 l-38 22q-12 6 -20 6q-20 0 -20 -30h-119q0 74 37 111t88 37q36 0 64 -16l38 -22q12 -6 20 -6q20 0 20 30z"/>
<glyph horiz-adv-x="616" glyph-name="odieresis" unicode="ö" d="M428 245q0 54 -33.5 87t-86.5 33t-86.5 -33t-33.5 -87q0 -55 33.5 -89t86.5 -34t86.5 34t33.5 89zM582 245q0 -118 -76 -190t-198 -72t-199 72q-76 73 -76 190q0 118 76 188q77 71 199 71t198 -71q76 -70 76 -188zM358 700q26 26 65 26q38 0 64 -26q27 -24 27 -62 q0 -36 -27 -63q-28 -25 -64 -25q-37 0 -65 25q-27 27 -27 63q0 38 27 62zM129 700q26 26 65 26q38 0 64 -26q27 -24 27 -62q0 -36 -27 -63q-28 -25 -64 -25q-37 0 -65 25q-27 27 -27 63q0 38 27 62z"/>
<glyph horiz-adv-x="682" glyph-name="divide" unicode="÷" d="M401 75q-23 -23 -60 -23t-60 23q-24 24 -24 58q0 33 24 57t60 24t60 -24q25 -25 25 -57q0 -33 -25 -58zM97 392h488v-128h-488v128zM401 470q-23 -23 -60 -23t-60 23q-24 24 -24 58q0 33 24 57t60 24t60 -24q25 -25 25 -57q0 -33 -25 -58z"/>
<glyph horiz-adv-x="616" glyph-name="oslash" unicode="ø" d="M308 122q53 0 86.5 34t33.5 89q0 37 -15 62l-150 -178q24 -7 45 -7zM188 245q0 -31 12 -57l144 172q-20 5 -36 5q-53 0 -86.5 -33t-33.5 -87zM558 480l-45 -54q69 -70 69 -181q0 -118 -76 -190t-198 -72q-79 0 -141 32l-50 -60l-66 56l47 56q-65 71 -65 178q0 118 76 188 q77 71 199 71q74 0 134 -28l50 60z"/>
<glyph horiz-adv-x="625" glyph-name="ugrave" unicode="ù" d="M565 485v-476q-177 -22 -306 -22q-94 0 -146.5 47.5t-52.5 139.5v311h162v-276q0 -88 82 -88q24 0 99 5v359h162zM397 560h-155l-130 153h202z"/>
<glyph horiz-adv-x="625" glyph-name="uacute" unicode="ú" d="M565 485v-476q-177 -22 -306 -22q-94 0 -146.5 47.5t-52.5 139.5v311h162v-276q0 -88 82 -88q24 0 99 5v359h162zM517 713l-130 -153h-155l83 153h202z"/>
<glyph horiz-adv-x="625" glyph-name="ucircumflex" unicode="û" d="M565 485v-476q-177 -22 -306 -22q-94 0 -146.5 47.5t-52.5 139.5v311h162v-276q0 -88 82 -88q24 0 99 5v359h162zM313 616l-46 -53h-148l123 144h141l123 -144h-148z"/>
<glyph horiz-adv-x="625" glyph-name="udieresis" unicode="ü" d="M565 485v-476q-177 -22 -306 -22q-94 0 -146.5 47.5t-52.5 139.5v311h162v-276q0 -88 82 -88q24 0 99 5v359h162zM363 700q26 26 65 26q38 0 64 -26q27 -24 27 -62q0 -36 -27 -63q-28 -25 -64 -25q-37 0 -65 25q-27 27 -27 63q0 38 27 62zM134 700q26 26 65 26 q38 0 64 -26q27 -24 27 -62q0 -36 -27 -63q-28 -25 -64 -25q-37 0 -65 25q-27 27 -27 63q0 38 27 62z"/>
<glyph horiz-adv-x="665" glyph-name="yacute" unicode="ý" d="M647 485l-327 -709h-179l115 252l-231 457h183l134 -270l123 270h182zM416 561h-155l83 153h202z"/>
<glyph horiz-adv-x="633" glyph-name="thorn" unicode="þ" d="M330 119q48 0 78.5 34t30.5 89q0 59 -29.5 93t-85.5 34q-36 0 -98 -5v-238q46 -7 104 -7zM353 500q110 0 174.5 -68.5t68.5 -186.5q0 -121 -69 -191q-69 -69 -168 -69q-75 0 -133 5v-215h-163v935h163v-216q60 6 127 6z"/>
<glyph horiz-adv-x="788" glyph-name="Amacron" unicode="Ā" d="M395 482l-94 -227h187zM243 112l-46 -112h-184l303 684h157l302 -684h-183l-47 112h-302zM561 880v-122h-334v122h334z"/>
<glyph horiz-adv-x="626" glyph-name="amacron" unicode="ā" d="M305 369q-56 0 -85.5 -34t-29.5 -93q0 -55 30.5 -89t78.5 -34q55 0 104 42v203q-62 5 -98 5zM276 500q84 0 289 -24v-476h-162v33q-61 -48 -140 -48q-95 0 -162 69q-68 71 -68 191q3 117 67 185q64 70 176 70zM468 695v-124h-286v124h286z"/>
<glyph horiz-adv-x="788" glyph-name="Abreve" unicode="Ă" d="M395 482l-94 -227h187zM243 112l-46 -112h-184l303 684h157l302 -684h-183l-47 112h-302zM443 905h126q0 -78 -47 -122t-128 -44t-128 44t-47 122h125q0 -52 50 -52q22 0 35.5 14t13.5 38z"/>
<glyph horiz-adv-x="626" glyph-name="abreve" unicode="ă" d="M305 369q-56 0 -85.5 -34t-29.5 -93q0 -55 30.5 -89t78.5 -34q55 0 104 42v203q-62 5 -98 5zM276 500q84 0 289 -24v-476h-162v33q-61 -48 -140 -48q-95 0 -162 69q-68 71 -68 191q3 117 67 185q64 70 176 70zM374 722h126q0 -77 -47.5 -121.5t-127.5 -44.5t-127.5 44.5 t-47.5 121.5h125q0 -25 13.5 -38.5t36.5 -13.5q22 0 35.5 14t13.5 38z"/>
<glyph horiz-adv-x="788" glyph-name="Aogonek" unicode="Ą" d="M488 255l-93 227l-94 -227h187zM694 -71q22 0 47 7l15 -120q-30 -14 -81 -14q-70 0 -114 34t-44 89q0 57 68 92l-40 95h-302l-46 -112h-184l303 684h157l302 -684h-107q-24 -16 -24 -37q0 -34 50 -34z"/>
<glyph horiz-adv-x="626" glyph-name="aogonek" unicode="ą" d="M299 119q55 0 104 42v203q-62 5 -98 5q-56 0 -85.5 -34t-29.5 -93q0 -55 30.5 -89t78.5 -34zM568 -76l15 -120q-30 -14 -81 -14q-70 0 -114 34t-44 89q0 53 59 88v32q-61 -48 -140 -48q-95 0 -162 69q-68 71 -68 191q3 117 67 185q64 70 176 70q84 0 289 -24v-476h-47 q-47 -20 -47 -49q0 -34 50 -34q22 0 47 7z"/>
<glyph horiz-adv-x="714" glyph-name="Cacute" unicode="Ć" d="M674 662l-28 -153q-140 27 -201 27q-103 0 -161.5 -53t-58.5 -141q0 -90 58 -145t153 -55q70 0 210 27l27 -147q-135 -37 -248 -37q-171 0 -277 98q-104 98 -104 258q0 158 104 256q106 98 276 98q121 0 250 -33zM635 890l-130 -147h-162l90 147h202z"/>
<glyph horiz-adv-x="514" glyph-name="cacute" unicode="ć" d="M483 476l-21 -123q-100 17 -134 17q-63 0 -100.5 -35t-37.5 -92q0 -56 36 -89.5t96 -33.5q54 0 144 18l17 -123q-90 -30 -174 -30q-123 0 -200 71q-76 70 -76 189q0 116 77 187t203 71q89 0 170 -27zM497 712l-130 -153h-155l83 153h202z"/>
<glyph horiz-adv-x="714" glyph-name="Cdotaccent" unicode="Ċ" d="M674 662l-28 -153q-140 27 -201 27q-103 0 -161.5 -53t-58.5 -141q0 -90 58 -145t153 -55q70 0 210 27l27 -147q-135 -37 -248 -37q-171 0 -277 98q-104 98 -104 258q0 158 104 256q106 98 276 98q121 0 250 -33zM329 819q0 37 25.5 61.5t63.5 24.5h5q36 0 60 -27.5 t24 -61.5q0 -35 -26 -58q-24 -25 -60 -25t-64 23t-28 58v5z"/>
<glyph horiz-adv-x="514" glyph-name="cdotaccent" unicode="ċ" d="M483 476l-21 -123q-100 17 -134 17q-63 0 -100.5 -35t-37.5 -92q0 -56 36 -89.5t96 -33.5q54 0 144 18l17 -123q-90 -30 -174 -30q-123 0 -200 71q-76 70 -76 189q0 116 77 187t203 71q89 0 170 -27zM357 574q-28 -25 -64 -25q-37 0 -65 25q-27 27 -27 63q0 38 27 62 q26 26 65 26q38 0 64 -26q27 -24 27 -62q0 -36 -27 -63z"/>
<glyph horiz-adv-x="714" glyph-name="Ccaron" unicode="Č" d="M674 662l-28 -153q-140 27 -201 27q-103 0 -161.5 -53t-58.5 -141q0 -90 58 -145t153 -55q70 0 210 27l27 -147q-135 -37 -248 -37q-171 0 -277 98q-104 98 -104 258q0 158 104 256q106 98 276 98q121 0 250 -33zM490 735h-141l-123 153h148l45 -59l46 59h148z"/>
<glyph horiz-adv-x="514" glyph-name="ccaron" unicode="č" d="M483 476l-21 -123q-100 17 -134 17q-63 0 -100.5 -35t-37.5 -92q0 -56 36 -89.5t96 -33.5q54 0 144 18l17 -123q-90 -30 -174 -30q-123 0 -200 71q-76 70 -76 189q0 116 77 187t203 71q89 0 170 -27zM363 559h-141l-123 153h148l45 -59l46 59h148z"/>
<glyph horiz-adv-x="734" glyph-name="Dcaron" unicode="Ď" d="M340 143q76 0 125 55q50 56 50 144q0 90 -52 142q-53 53 -136 53q-50 0 -92 -2v-390q46 -2 105 -2zM320 688q168 0 269 -94q102 -94 102 -252q0 -159 -99 -255q-100 -95 -254 -95q-111 0 -271 8v680q160 8 253 8zM405 735h-141l-123 153h148l45 -59l46 59h148z"/>
<glyph glyph-name="dcaron" unicode="ď" d="M310 369q-121 0 -121 -123q0 -60 30 -93.5t86 -33.5q32 0 98 7v235q-59 8 -93 8zM751 710l-39 -204h-115l6 204h148zM565 710v-702q-178 -20 -296 -20q-99 0 -167 67q-69 68 -69 191q2 118 67.5 186t182.5 68q53 0 120 -9v219h162z"/>
<glyph horiz-adv-x="734" glyph-name="Dcroat" unicode="Đ" d="M340 143q76 0 125 55q50 56 50 144q0 90 -52 142q-53 53 -136 53q-50 0 -92 -2v-130h119v-146h-119v-114q46 -2 105 -2zM320 688q168 0 269 -94q102 -94 102 -252q0 -159 -99 -255q-100 -95 -254 -95q-111 0 -271 8v259h-47v146h47v275q160 8 253 8z"/>
<glyph glyph-name="dslash" unicode="đ" d="M403 126v235q-59 8 -93 8q-121 0 -121 -123q0 -60 30 -93.5t86 -33.5q32 0 98 7zM599 545h-34v-537q-178 -20 -296 -20q-99 0 -167 67q-69 68 -69 191q2 118 67.5 186t182.5 68q53 0 120 -9v54h-144v114h144v51h162v-51h34v-114z"/>
<glyph glyph-name="Emacron" unicode="Ē" d="M236 412h300v-144h-300v-121h345v-147h-514v680h514v-147h-345v-121zM486 880v-122h-334v122h334z"/>
<glyph horiz-adv-x="563" glyph-name="emacron" unicode="ē" d="M292 377q-41 0 -68 -23t-35 -65h200q-2 40 -28.5 64t-68.5 24zM287 500q107 0 174 -60t69 -158q0 -44 -9 -92h-326q28 -73 121 -73q61 0 175 24l20 -118q-116 -38 -197 -38q-132 0 -207 72t-75 186q0 115 71 186q73 71 184 71zM435 692v-124h-286v124h286z"/>
<glyph glyph-name="Edotaccent" unicode="Ė" d="M236 412h300v-144h-300v-121h345v-147h-514v680h514v-147h-345v-121zM229 819q0 37 25.5 61.5t63.5 24.5h5q36 0 60 -27.5t24 -61.5q0 -35 -26 -58q-24 -25 -60 -25t-64 23t-28 58v5z"/>
<glyph horiz-adv-x="563" glyph-name="edotaccent" unicode="ė" d="M292 377q-41 0 -68 -23t-35 -65h200q-2 40 -28.5 64t-68.5 24zM287 500q107 0 174 -60t69 -158q0 -44 -9 -92h-326q28 -73 121 -73q61 0 175 24l20 -118q-116 -38 -197 -38q-132 0 -207 72t-75 186q0 115 71 186q73 71 184 71zM356 575q-28 -25 -64 -25q-37 0 -65 25 q-27 27 -27 63q0 38 27 62q26 26 65 26q38 0 64 -26q27 -24 27 -62q0 -36 -27 -63z"/>
<glyph glyph-name="Eogonek" unicode="Ę" d="M236 533v-121h300v-144h-300v-121h345v-147h-70q-47 -20 -47 -49q0 -34 50 -34q22 0 47 7l15 -120q-30 -14 -81 -14q-70 0 -114 34t-44 89q0 54 58 87h-328v680h514v-147h-345z"/>
<glyph horiz-adv-x="563" glyph-name="eogonek" unicode="ę" d="M189 289h200q-2 40 -28.5 64t-68.5 24q-41 0 -68 -23t-35 -65zM530 282q0 -44 -9 -92h-326q28 -73 121 -73q61 0 175 24l20 -118q-43 -14 -57 -17q-32 -12 -44.5 -24.5t-12.5 -28.5q0 -34 50 -34q22 0 47 7l15 -120q-30 -14 -81 -14q-70 0 -114 34t-44 89q0 40 34 70 q-127 3 -200 74q-72 72 -72 184q0 115 71 186q73 71 184 71q107 0 174 -60t69 -158z"/>
<glyph glyph-name="Ecaron" unicode="Ě" d="M236 412h300v-144h-300v-121h345v-147h-514v680h514v-147h-345v-121zM390 735h-141l-123 153h148l45 -59l46 59h148z"/>
<glyph horiz-adv-x="563" glyph-name="ecaron" unicode="ě" d="M292 377q-41 0 -68 -23t-35 -65h200q-2 40 -28.5 64t-68.5 24zM287 500q107 0 174 -60t69 -158q0 -44 -9 -92h-326q28 -73 121 -73q61 0 175 24l20 -118q-116 -38 -197 -38q-132 0 -207 72t-75 186q0 115 71 186q73 71 184 71zM362 560h-141l-123 153h148l45 -59l46 59 h148z"/>
<glyph horiz-adv-x="787" glyph-name="Gbreve" unicode="Ğ" d="M729 402v-344q-188 -73 -315 -73q-165 0 -268 98q-102 97 -102 259q0 159 103 256t274 97q124 0 254 -32l-29 -150q-144 24 -209 24q-97 0 -156 -54q-59 -53 -59 -141t53 -144q54 -55 142 -55q68 0 168 23v98h-217v138h361zM460 905h126q0 -78 -47 -122t-128 -44t-128 44 t-47 122h125q0 -52 50 -52q22 0 35.5 14t13.5 38z"/>
<glyph horiz-adv-x="622" glyph-name="gbreve" unicode="ğ" d="M305 369q-56 0 -85.5 -34t-29.5 -93q0 -51 30.5 -84t78.5 -33q58 0 104 7v232q-62 5 -98 5zM276 500q57 0 99 -3q31 -2 103 -11l87 -10v-469q0 -125 -74.5 -195t-213.5 -70q-79 0 -176 30l23 124q115 -20 147 -20q126 0 132 121q-58 -5 -133 -5q-98 0 -168 68 q-69 67 -69 185q2 116 66 185q64 70 177 70zM367 719h126q0 -77 -47.5 -121.5t-127.5 -44.5t-127.5 44.5t-47.5 121.5h125q0 -25 13.5 -38.5t36.5 -13.5q22 0 35.5 14t13.5 38z"/>
<glyph horiz-adv-x="787" glyph-name="Gdotaccent" unicode="Ġ" d="M729 402v-344q-188 -73 -315 -73q-165 0 -268 98q-102 97 -102 259q0 159 103 256t274 97q124 0 254 -32l-29 -150q-144 24 -209 24q-97 0 -156 -54q-59 -53 -59 -141t53 -144q54 -55 142 -55q68 0 168 23v98h-217v138h361zM321 819q0 37 25.5 61.5t63.5 24.5h5 q36 0 60 -27.5t24 -61.5q0 -35 -26 -58q-24 -25 -60 -25t-64 23t-28 58v5z"/>
<glyph horiz-adv-x="622" glyph-name="gdotaccent" unicode="ġ" d="M305 369q-56 0 -85.5 -34t-29.5 -93q0 -51 30.5 -84t78.5 -33q58 0 104 7v232q-62 5 -98 5zM276 500q57 0 99 -3q31 -2 103 -11l87 -10v-469q0 -125 -74.5 -195t-213.5 -70q-79 0 -176 30l23 124q115 -20 147 -20q126 0 132 121q-58 -5 -133 -5q-98 0 -168 68 q-69 67 -69 185q2 116 66 185q64 70 177 70zM382 575q-28 -25 -64 -25q-37 0 -65 25q-27 27 -27 63q0 38 27 62q26 26 65 26q38 0 64 -26q27 -24 27 -62q0 -36 -27 -63z"/>
<glyph horiz-adv-x="787" glyph-name="Gcommaaccent" unicode="Ģ" d="M333 -270l40 80q-47 20 -47 66q0 31 24 53.5t58 22.5q33 0 57 -22.5t24 -53.5q0 -23 -13 -45q-13 -26 -63 -101h-80zM729 402v-344q-188 -73 -315 -73q-165 0 -268 98q-102 97 -102 259q0 159 103 256t274 97q124 0 254 -32l-29 -150q-144 24 -209 24q-97 0 -156 -54 q-59 -53 -59 -141t53 -144q54 -55 142 -55q68 0 168 23v98h-217v138h361z"/>
<glyph horiz-adv-x="622" glyph-name="gcommaaccent" unicode="ģ" d="M305 369q-56 0 -85.5 -34t-29.5 -93q0 -51 30.5 -84t78.5 -33q58 0 104 7v232q-62 5 -98 5zM276 500q57 0 99 -3q31 -2 103 -11l87 -10v-469q0 -125 -74.5 -195t-213.5 -70q-79 0 -176 30l23 124q115 -20 147 -20q126 0 132 121q-58 -5 -133 -5q-98 0 -168 68 q-69 67 -69 185q2 116 66 185q64 70 177 70zM396 792l-40 -80q47 -20 47 -66q0 -31 -24 -53.5t-58 -22.5q-33 0 -57 22.5t-24 53.5q0 22 12 45q18 32 64 101h80z"/>
<glyph horiz-adv-x="754" glyph-name="Hbar" unicode="Ħ" d="M519 485h-283v-78h283v78zM725 485h-37v-485h-169v255h-283v-255h-169v485h-38v115h38v80h169v-80h283v80h169v-80h37v-115z"/>
<glyph horiz-adv-x="624" glyph-name="hbar" unicode="ħ" d="M369 500q90 0 143 -52q55 -51 55 -135v-313h-162v265q0 43 -22 65.5t-60 22.5q-37 0 -99 -9v-344h-162v575h-40v95h40v40h162v-40h103v-95h-103v-86q90 11 145 11z"/>
<glyph horiz-adv-x="299" glyph-name="Imacron" unicode="Ī" d="M316 880v-122h-334v122h334zM234 680v-680h-169v680h169z"/>
<glyph horiz-adv-x="276" glyph-name="imacron" unicode="ī" d="M219 485v-485h-162v485h162zM282 692v-124h-286v124h286z"/>
<glyph horiz-adv-x="299" glyph-name="Iogonek" unicode="Į" d="M234 0h-77q-35 -18 -35 -43q0 -34 50 -34q22 0 47 7l15 -120q-30 -14 -81 -14q-70 0 -114 34t-44 89q0 60 70 94v667h169v-680z"/>
<glyph horiz-adv-x="276" glyph-name="iogonek" unicode="į" d="M160 -78q22 0 47 7l15 -120q-30 -14 -81 -14q-70 0 -114 34t-44 89q0 62 74 95v472h162v-485h-72q-37 -18 -37 -44q0 -34 50 -34zM203 575q-28 -25 -64 -25q-37 0 -65 25q-27 27 -27 63q0 38 27 62q26 26 65 26q38 0 64 -26q27 -24 27 -62q0 -36 -27 -63z"/>
<glyph horiz-adv-x="299" glyph-name="Idot" unicode="İ" d="M234 680v-680h-169v680h169zM47 838q0 41 29.5 69t71.5 28t71.5 -28t29.5 -69q0 -42 -29.5 -70t-71.5 -28t-71.5 28t-29.5 70z"/>
<glyph horiz-adv-x="276" glyph-name="dotlessi" unicode="ı" d="M219 485v-485h-162v485h162z"/>
<glyph horiz-adv-x="858" glyph-name="IJ" unicode="Ĳ" d="M234 680v-680h-169v680h169zM802 680v-399q0 -140 -68.5 -218t-191.5 -78q-108 0 -234 43l31 147q118 -29 196 -29q45 0 70.5 34.5t25.5 96.5v403h171z"/>
<glyph horiz-adv-x="581" glyph-name="ij" unicode="ĳ" d="M518 485v-479q0 -67 -9.5 -108t-34.5 -75q-49 -70 -203 -71l-10 135q61 2 77 25q18 23 18 79v494h162zM219 485v-485h-162v485h162zM436 738q42 0 71 -28t29 -70q0 -41 -29 -68.5t-71 -27.5t-70.5 27.5t-28.5 68.5q0 42 28.5 70t70.5 28zM138 544q-42 0 -70.5 27.5 t-28.5 68.5q0 42 28.5 70t70.5 28q40 0 69 -28.5t29 -69.5t-29 -68.5t-69 -27.5z"/>
<glyph horiz-adv-x="723" glyph-name="Kcommaaccent" unicode="Ķ" d="M267 -270l40 80q-47 20 -47 66q0 31 24 53.5t58 22.5q33 0 57 -22.5t24 -53.5q0 -23 -13 -45q-13 -26 -63 -101h-80zM236 229v-229h-169v680h169v-287h32l223 287h203l-247 -317l263 -363h-206l-164 229h-104z"/>
<glyph horiz-adv-x="608" glyph-name="kcommaaccent" unicode="ķ" d="M220 -270l40 80q-47 20 -47 66q0 31 24 53.5t58 22.5q33 0 57 -22.5t24 -53.5q0 -23 -13 -45q-13 -26 -63 -101h-80zM224 319h22l143 166h189l-174 -203l189 -282h-186l-114 169h-69v-169h-162v710h162v-391z"/>
<glyph horiz-adv-x="595" glyph-name="Lacute" unicode="Ĺ" d="M569 0h-502v680h169v-531h333v-149zM371 890l-130 -147h-162l90 147h202z"/>
<glyph horiz-adv-x="286" glyph-name="lacute" unicode="ĺ" d="M225 710v-710h-162v710h162zM347 908l-130 -154h-155l83 154h202z"/>
<glyph horiz-adv-x="595" glyph-name="Lcommaaccent" unicode="Ļ" d="M240 -270l40 80q-47 20 -47 66q0 31 24 53.5t58 22.5q33 0 57 -22.5t24 -53.5q0 -23 -13 -45q-13 -26 -63 -101h-80zM569 0h-502v680h169v-531h333v-149z"/>
<glyph horiz-adv-x="289" glyph-name="lcommaaccent" unicode="ļ" d="M65 -270l40 80q-47 20 -47 66q0 31 24 53.5t58 22.5q33 0 57 -22.5t24 -53.5q0 -23 -13 -45q-13 -26 -63 -101h-80zM225 710v-710h-162v710h162z"/>
<glyph horiz-adv-x="595" glyph-name="Lcaron" unicode="Ľ" d="M467 680l-39 -204h-115l6 204h148zM569 0h-502v680h169v-531h333v-149z"/>
<glyph horiz-adv-x="289" glyph-name="lcaron" unicode="ľ" d="M407 710l-39 -204h-115l6 204h148zM225 710v-710h-162v710h162z"/>
<glyph horiz-adv-x="595" glyph-name="Ldot" unicode="Ŀ" d="M408 247q-38 0 -64.5 25t-26.5 62t26.5 62.5t64.5 25.5t65 -25.5t27 -62.5t-26.5 -62t-65.5 -25zM569 0h-502v680h169v-531h333v-149z"/>
<glyph horiz-adv-x="435" glyph-name="ldot" unicode="ŀ" d="M358 252q-38 0 -64.5 25t-26.5 62t26.5 62.5t64.5 25.5t65 -25.5t27 -62.5t-26.5 -62t-65.5 -25zM225 710v-710h-162v710h162z"/>
<glyph horiz-adv-x="595" glyph-name="Lslash" unicode="Ł" d="M569 149v-149h-502v211l-60 -21v133l60 21v336h169v-275l145 52v-133l-145 -52v-123h333z"/>
<glyph horiz-adv-x="289" glyph-name="lslash" unicode="ł" d="M280 324l-55 -20v-304h-162v244l-53 -19v133l53 19v333h162v-273l55 20v-133z"/>
<glyph horiz-adv-x="772" glyph-name="Nacute" unicode="Ń" d="M706 680v-680h-154l-316 395v-395h-169v680h155l315 -398v398h169zM596 890l-130 -147h-162l90 147h202z"/>
<glyph horiz-adv-x="623" glyph-name="nacute" unicode="ń" d="M516 713l-130 -153h-155l83 153h202zM369 500q90 0 143 -52q55 -51 55 -135v-313h-162v265q0 43 -22 65.5t-60 22.5q-24 0 -99 -5v-348h-162v476q199 24 307 24z"/>
<glyph horiz-adv-x="772" glyph-name="Ncommaaccent" unicode="Ņ" d="M305 -277l40 80q-47 20 -47 66q0 31 24 53.5t58 22.5q33 0 57 -22.5t24 -53.5q0 -23 -13 -45q-13 -26 -63 -101h-80zM706 680v-680h-154l-316 395v-395h-169v680h155l315 -398v398h169z"/>
<glyph horiz-adv-x="623" glyph-name="ncommaaccent" unicode="ņ" d="M235 -270l40 80q-47 20 -47 66q0 31 24 53.5t58 22.5q33 0 57 -22.5t24 -53.5q0 -23 -13 -45q-13 -26 -63 -101h-80zM369 500q90 0 143 -52q55 -51 55 -135v-313h-162v265q0 43 -22 65.5t-60 22.5q-24 0 -99 -5v-348h-162v476q199 24 307 24z"/>
<glyph horiz-adv-x="772" glyph-name="Ncaron" unicode="Ň" d="M706 680v-680h-154l-316 395v-395h-169v680h155l315 -398v398h169zM451 735h-141l-123 153h148l45 -59l46 59h148z"/>
<glyph horiz-adv-x="623" glyph-name="ncaron" unicode="ň" d="M382 560h-141l-123 153h148l45 -59l46 59h148zM369 500q90 0 143 -52q55 -51 55 -135v-313h-162v265q0 43 -22 65.5t-60 22.5q-24 0 -99 -5v-348h-162v476q199 24 307 24z"/>
<glyph horiz-adv-x="818" glyph-name="Omacron" unicode="Ō" d="M409 140q84 0 136 55q54 55 54 145q0 88 -54 144q-52 55 -136 55t-138 -55q-53 -56 -53 -144q0 -89 53 -145q54 -55 138 -55zM145 597q103 98 264 98t264 -98q102 -97 102 -257t-102 -257q-103 -98 -264 -98t-264 98q-101 98 -101 257t101 257zM576 880v-122h-334v122 h334z"/>
<glyph horiz-adv-x="616" glyph-name="omacron" unicode="ō" d="M428 245q0 54 -33.5 87t-86.5 33t-86.5 -33t-33.5 -87q0 -55 33.5 -89t86.5 -34t86.5 34t33.5 89zM582 245q0 -118 -76 -190t-198 -72t-199 72q-76 73 -76 190q0 118 76 188q77 71 199 71t198 -71q76 -70 76 -188zM451 692v-124h-286v124h286z"/>
<glyph horiz-adv-x="818" glyph-name="Ohungarumlaut" unicode="Ő" d="M409 140q84 0 136 55q54 55 54 145q0 88 -54 144q-52 55 -136 55t-138 -55q-53 -56 -53 -144q0 -89 53 -145q54 -55 138 -55zM145 597q103 98 264 98t264 -98q102 -97 102 -257t-102 -257q-103 -98 -264 -98t-264 98q-101 98 -101 257t101 257zM614 893l-56 -146h-124 l38 146h142zM440 893l-55 -146h-124l37 146h142z"/>
<glyph horiz-adv-x="616" glyph-name="ohungarumlaut" unicode="ő" d="M428 245q0 54 -33.5 87t-86.5 33t-86.5 -33t-33.5 -87q0 -55 33.5 -89t86.5 -34t86.5 34t33.5 89zM582 245q0 -118 -76 -190t-198 -72t-199 72q-76 73 -76 190q0 118 76 188q77 71 199 71t198 -71q76 -70 76 -188zM525 716l-58 -155h-131l39 155h150zM348 716l-58 -155 h-131l39 155h150z"/>
<glyph horiz-adv-x="1000" glyph-name="OE" unicode="Œ" d="M443 155v369q-108 -1 -166.5 -48t-58.5 -136t58.5 -136.5t166.5 -48.5zM612 412h300v-144h-300v-121h345v-147h-514q-177 2 -288 92q-111 92 -111 248t111 247q113 91 288 93h514v-147h-345v-121z"/>
<glyph horiz-adv-x="960" glyph-name="oe" unicode="œ" d="M428 245q0 54 -33.5 87t-86.5 33t-86.5 -33t-33.5 -87q0 -55 33.5 -89t86.5 -34t86.5 34t33.5 89zM587 289h199q-1 40 -27.5 64t-68.5 24q-85 0 -103 -88zM927 282q0 -44 -9 -92h-326q28 -73 122 -73q60 0 174 24l20 -118q-116 -38 -197 -38q-129 0 -205 70 q-75 -72 -198 -72q-122 0 -199 72q-76 73 -76 190q0 118 76 188q77 71 199 71q123 0 197 -70q70 66 179 66q106 0 174 -60q67 -60 69 -158z"/>
<glyph horiz-adv-x="680" glyph-name="Racute" unicode="Ŕ" d="M235 337h108q51 0 83 29t32 76q0 99 -122 99q-27 0 -50 -1h-51v-203zM346 195h-40h-70v-195h-169v680q139 6 273 6q135 0 211 -63t76 -179q0 -67 -31 -120.5t-87 -85.5l162 -238h-200zM526 890l-130 -147h-162l90 147h202z"/>
<glyph horiz-adv-x="415" glyph-name="racute" unicode="ŕ" d="M431 713l-130 -153h-155l83 153h202zM390 498v-157q-84 0 -166 -6v-335h-162v467q173 31 328 31z"/>
<glyph horiz-adv-x="680" glyph-name="Rcommaaccent" unicode="Ŗ" d="M267 -270l40 80q-47 20 -47 66q0 31 24 53.5t58 22.5q33 0 57 -22.5t24 -53.5q0 -23 -13 -45q-13 -26 -63 -101h-80zM235 337h108q51 0 83 29t32 76q0 99 -122 99q-27 0 -50 -1h-51v-203zM346 195h-40h-70v-195h-169v680q139 6 273 6q135 0 211 -63t76 -179 q0 -67 -31 -120.5t-87 -85.5l162 -238h-200z"/>
<glyph horiz-adv-x="415" glyph-name="rcommaaccent" unicode="ŗ" d="M69 -270l40 80q-47 20 -47 66q0 31 24 53.5t58 22.5q33 0 57 -22.5t24 -53.5q0 -23 -13 -45q-13 -26 -63 -101h-80zM390 498v-157q-84 0 -166 -6v-335h-162v467q173 31 328 31z"/>
<glyph horiz-adv-x="680" glyph-name="Rcaron" unicode="Ř" d="M235 337h108q51 0 83 29t32 76q0 99 -122 99q-27 0 -50 -1h-51v-203zM346 195h-40h-70v-195h-169v680q139 6 273 6q135 0 211 -63t76 -179q0 -67 -31 -120.5t-87 -85.5l162 -238h-200zM381 735h-141l-123 153h148l45 -59l46 59h148z"/>
<glyph horiz-adv-x="415" glyph-name="rcaron" unicode="ř" d="M297 560h-141l-123 153h148l45 -59l46 59h148zM390 498v-157q-84 0 -166 -6v-335h-162v467q173 31 328 31z"/>
<glyph horiz-adv-x="679" glyph-name="Sacute" unicode="Ś" d="M615 644l-36 -146q-147 45 -238 45q-95 0 -95 -60q0 -28 26.5 -41t104.5 -29l20 -4q117 -26 175 -70q58 -43 58 -135q0 -105 -75 -162t-208 -57q-145 0 -304 59l38 149q151 -57 259 -58h5q104 0 104 58q0 26 -23 41q-10 9 -37 17q-5 2 -48 13q-6 2 -27.5 6t-27.5 5 q-117 25 -170 69q-52 43 -52 131q0 100 74 157q73 58 202 58q146 0 275 -46zM584 890l-130 -147h-162l90 147h202z"/>
<glyph horiz-adv-x="528" glyph-name="sacute" unicode="ś" d="M474 714l-130 -153h-155l83 153h202zM40 28l31 123q117 -43 193 -43q68 0 68 30q0 24 -47 33q-8 2 -34 7t-29 6q-89 18 -129 52t-40 97q0 79 57 122.5t159 43.5q109 0 209 -35l-31 -120q-111 34 -177 34q-58 0 -58 -34q0 -18 20 -26t72 -17q10 -2 16 -3q88 -18 128 -51 t40 -98q0 -80 -58 -122t-162 -42q-111 0 -228 43z"/>
<glyph horiz-adv-x="679" glyph-name="Scedilla" unicode="Ş" d="M332 -211h-121l43 163h145zM615 644l-36 -146q-147 45 -238 45q-95 0 -95 -60q0 -28 26.5 -41t104.5 -29l20 -4q117 -26 175 -70q58 -43 58 -135q0 -105 -75 -162t-208 -57q-145 0 -304 59l38 149q151 -57 259 -58h5q104 0 104 58q0 26 -23 41q-10 9 -37 17q-5 2 -48 13 q-6 2 -27.5 6t-27.5 5q-117 25 -170 69q-52 43 -52 131q0 100 74 157q73 58 202 58q146 0 275 -46z"/>
<glyph horiz-adv-x="528" glyph-name="scedilla" unicode="ş" d="M279 -211h-121l43 163h145zM40 28l31 123q117 -43 193 -43q68 0 68 30q0 24 -47 33q-8 2 -34 7t-29 6q-89 18 -129 52t-40 97q0 79 57 122.5t159 43.5q109 0 209 -35l-31 -120q-111 34 -177 34q-58 0 -58 -34q0 -18 20 -26t72 -17q10 -2 16 -3q88 -18 128 -51t40 -98 q0 -80 -58 -122t-162 -42q-111 0 -228 43z"/>
<glyph horiz-adv-x="679" glyph-name="Scaron" unicode="Š" d="M615 644l-36 -146q-147 45 -238 45q-95 0 -95 -60q0 -28 26.5 -41t104.5 -29l20 -4q117 -26 175 -70q58 -43 58 -135q0 -105 -75 -162t-208 -57q-145 0 -304 59l38 149q151 -57 259 -58h5q104 0 104 58q0 26 -23 41q-10 9 -37 17q-5 2 -48 13q-6 2 -27.5 6t-27.5 5 q-117 25 -170 69q-52 43 -52 131q0 100 74 157q73 58 202 58q146 0 275 -46zM439 735h-141l-123 153h148l45 -59l46 59h148z"/>
<glyph horiz-adv-x="528" glyph-name="scaron" unicode="š" d="M341 561h-141l-123 153h148l45 -59l46 59h148zM40 28l31 123q117 -43 193 -43q68 0 68 30q0 24 -47 33q-8 2 -34 7t-29 6q-89 18 -129 52t-40 97q0 79 57 122.5t159 43.5q109 0 209 -35l-31 -120q-111 34 -177 34q-58 0 -58 -34q0 -18 20 -26t72 -17q10 -2 16 -3 q88 -18 128 -51t40 -98q0 -80 -58 -122t-162 -42q-111 0 -228 43z"/>
<glyph horiz-adv-x="675" glyph-name="Tcaron" unicode="Ť" d="M409 735h-141l-123 153h148l45 -59l46 59h148zM422 529v-529h-169v529h-228v151h625v-151h-228z"/>
<glyph horiz-adv-x="472" glyph-name="tcaron" unicode="ť" d="M457 733l-39 -204h-115l6 204h148zM433 138l15 -133q-77 -20 -152 -20q-91 0 -139.5 53t-48.5 153v149h-93v145h93v165h162v-165h149v-145h-149v-133q0 -77 69 -77q32 0 94 8z"/>
<glyph horiz-adv-x="749" glyph-name="Umacron" unicode="Ū" d="M693 680v-373q0 -151 -86 -237q-85 -85 -232 -85q-148 0 -233 85t-85 237v373h170v-373q0 -77 39.5 -120.5t108.5 -43.5t108.5 43.5t39.5 120.5v373h170zM542 880v-122h-334v122h334z"/>
<glyph horiz-adv-x="625" glyph-name="umacron" unicode="ū" d="M565 485v-476q-177 -22 -306 -22q-94 0 -146.5 47.5t-52.5 139.5v311h162v-276q0 -88 82 -88q24 0 99 5v359h162zM456 692v-124h-286v124h286z"/>
<glyph horiz-adv-x="749" glyph-name="Uring" unicode="Ů" d="M693 680v-373q0 -151 -86 -237q-85 -85 -232 -85q-148 0 -233 85t-85 237v373h170v-373q0 -77 39.5 -120.5t108.5 -43.5t108.5 43.5t39.5 120.5v373h170zM341 812q12 -12 34 -12q21 0 33 12q13 13 13 33q0 19 -13 32q-12 12 -33 12q-22 0 -34 -12t-12 -32q0 -21 12 -33z M504 845q0 -54 -36 -87t-93 -33t-92.5 33t-35.5 87q0 53 35.5 86t92.5 33t93 -33t36 -86z"/>
<glyph horiz-adv-x="625" glyph-name="uring" unicode="ů" d="M565 485v-476q-177 -22 -306 -22q-94 0 -146.5 47.5t-52.5 139.5v311h162v-276q0 -88 82 -88q24 0 99 5v359h162zM278 635q12 -12 34 -12q21 0 33 12q13 13 13 33q0 19 -13 32q-12 12 -33 12q-22 0 -34 -12t-12 -32q0 -21 12 -33zM219 754q36 33 93 33t93 -33 q36 -31 36 -86q0 -54 -36 -87t-93 -33t-93 33q-35 33 -35 87t35 86z"/>
<glyph horiz-adv-x="749" glyph-name="Uhungarumlaut" unicode="Ű" d="M693 680v-373q0 -151 -86 -237q-85 -85 -232 -85q-148 0 -233 85t-85 237v373h170v-373q0 -77 39.5 -120.5t108.5 -43.5t108.5 43.5t39.5 120.5v373h170zM580 893l-56 -146h-124l38 146h142zM406 893l-55 -146h-124l37 146h142z"/>
<glyph horiz-adv-x="625" glyph-name="uhungarumlaut" unicode="ű" d="M565 485v-476q-177 -22 -306 -22q-94 0 -146.5 47.5t-52.5 139.5v311h162v-276q0 -88 82 -88q24 0 99 5v359h162zM529 716l-58 -155h-131l39 155h150zM352 716l-58 -155h-131l39 155h150z"/>
<glyph horiz-adv-x="749" glyph-name="Uogonek" unicode="Ų" d="M693 680v-373q0 -117 -53.5 -196.5t-150.5 -109.5q-52 -21 -52 -51q0 -34 50 -34q22 0 47 7l15 -120q-30 -14 -81 -14q-70 0 -114 34t-44 89q0 42 38 74q-135 7 -213 92t-78 229v373h170v-373q0 -77 39.5 -120.5t108.5 -43.5t108.5 43.5t39.5 120.5v373h170z"/>
<glyph horiz-adv-x="625" glyph-name="uogonek" unicode="ų" d="M602 -72l15 -120q-30 -14 -81 -14q-70 0 -114 34t-44 89q0 46 43 77q-97 -7 -162 -7q-94 0 -146.5 47.5t-52.5 139.5v311h162v-276q0 -88 82 -88q24 0 99 5v359h162v-476q-60 -23 -60 -54q0 -34 50 -34q22 0 47 7z"/>
<glyph horiz-adv-x="1065" glyph-name="Wcircumflex" unicode="Ŵ" d="M533 802l-45 -59h-148l123 147h141l123 -147h-148zM836 0h-164l-139 400l-140 -400h-164l-215 680h179l126 -416l144 416h139l144 -416l126 416h179z"/>
<glyph horiz-adv-x="826" glyph-name="wcircumflex" unicode="ŵ" d="M414 616l-46 -53h-148l123 144h141l123 -144h-148zM657 0h-155l-89 260l-88 -260h-155l-152 485h164l76 -274l95 274h121l94 -275l77 275h163z"/>
<glyph horiz-adv-x="745" glyph-name="Ycircumflex" unicode="Ŷ" d="M373 802l-45 -59h-148l123 147h141l123 -147h-148zM288 215l-274 465h189l169 -286l170 286h189l-273 -465v-215h-170v215z"/>
<glyph horiz-adv-x="665" glyph-name="ycircumflex" unicode="ŷ" d="M647 485l-327 -709h-179l115 252l-231 457h183l134 -270l123 270h182zM296 564h-148l123 144h141l123 -144h-148l-45 53z"/>
<glyph horiz-adv-x="745" glyph-name="Ydieresis" unicode="Ÿ" d="M552 758q-28 -25 -65 -25t-65 25q-26 26 -26 63q0 39 26 62q26 26 65 26t65 -26q27 -24 27 -62q0 -36 -27 -63zM322 758q-28 -25 -64 -25q-37 0 -65 25q-27 27 -27 63q0 38 27 62q26 26 65 26q38 0 64 -26q27 -24 27 -62q0 -36 -27 -63zM288 215l-274 465h189l169 -286 l170 286h189l-273 -465v-215h-170v215z"/>
<glyph horiz-adv-x="668" glyph-name="Zacute" unicode="Ź" d="M620 574l-332 -423h339v-151h-586v106l341 423h-324v151h562v-106zM551 890l-130 -147h-162l90 147h202z"/>
<glyph horiz-adv-x="517" glyph-name="zacute" unicode="ź" d="M471 399l-207 -262h223v-137h-451v80l215 268h-212v137h432v-86zM457 713l-130 -153h-155l83 153h202z"/>
<glyph horiz-adv-x="668" glyph-name="Zdotaccent" unicode="Ż" d="M620 574l-332 -423h339v-151h-586v106l341 423h-324v151h562v-106zM245 819q0 37 25.5 61.5t63.5 24.5h5q36 0 60 -27.5t24 -61.5q0 -35 -26 -58q-24 -25 -60 -25t-64 23t-28 58v5z"/>
<glyph horiz-adv-x="517" glyph-name="zdotaccent" unicode="ż" d="M471 399l-207 -262h223v-137h-451v80l215 268h-212v137h432v-86zM317 575q-28 -25 -64 -25q-37 0 -65 25q-27 27 -27 63q0 38 27 62q26 26 65 26q38 0 64 -26q27 -24 27 -62q0 -36 -27 -63z"/>
<glyph horiz-adv-x="668" glyph-name="Zcaron" unicode="Ž" d="M620 574l-332 -423h339v-151h-586v106l341 423h-324v151h562v-106zM406 735h-141l-123 153h148l45 -59l46 59h148z"/>
<glyph horiz-adv-x="517" glyph-name="zcaron" unicode="ž" d="M471 399l-207 -262h223v-137h-451v80l215 268h-212v137h432v-86zM323 560h-141l-123 153h148l45 -59l46 59h148z"/>
<glyph horiz-adv-x="580" glyph-name="florin" unicode="ƒ" d="M416 695q58 0 131 -18l-19 -127q-51 6 -82 6q-34 0 -50.5 -20t-22.5 -66l-6 -41h156v-144h-175l-12 -84q-28 -216 -205 -216q-57 0 -131 18l19 127q50 -6 82 -6q34 0 50.5 20t22.5 66l10 75h-113v144h133l7 50q29 216 205 216z"/>
<glyph horiz-adv-x="788" glyph-name="Acaron" unicode="Ǎ" d="M395 482l-94 -227h187zM243 112l-46 -112h-184l303 684h157l302 -684h-183l-47 112h-302zM465 735h-141l-123 153h148l45 -59l46 59h148z"/>
<glyph horiz-adv-x="626" glyph-name="acaron" unicode="ǎ" d="M305 369q-56 0 -85.5 -34t-29.5 -93q0 -55 30.5 -89t78.5 -34q55 0 104 42v203q-62 5 -98 5zM276 500q84 0 289 -24v-476h-162v33q-61 -48 -140 -48q-95 0 -162 69q-68 71 -68 191q3 117 67 185q64 70 176 70zM395 563h-141l-123 153h148l45 -59l46 59h148z"/>
<glyph horiz-adv-x="679" glyph-name="Scommaaccent" unicode="Ș" d="M243 -270l40 80q-47 20 -47 66q0 31 24 53.5t58 22.5q33 0 57 -22.5t24 -53.5q0 -23 -13 -45q-13 -26 -63 -101h-80zM615 644l-36 -146q-147 45 -238 45q-95 0 -95 -60q0 -28 26.5 -41t104.5 -29l20 -4q117 -26 175 -70q58 -43 58 -135q0 -105 -75 -162t-208 -57 q-145 0 -304 59l38 149q151 -57 259 -58h5q104 0 104 58q0 26 -23 41q-10 9 -37 17q-5 2 -48 13q-6 2 -27.5 6t-27.5 5q-117 25 -170 69q-52 43 -52 131q0 100 74 157q73 58 202 58q146 0 275 -46z"/>
<glyph horiz-adv-x="528" glyph-name="scommaaccent" unicode="ș" d="M192 -270l40 80q-47 20 -47 66q0 31 24 53.5t58 22.5q33 0 57 -22.5t24 -53.5q0 -23 -13 -45q-13 -26 -63 -101h-80zM40 28l31 123q117 -43 193 -43q68 0 68 30q0 24 -47 33q-8 2 -34 7t-29 6q-89 18 -129 52t-40 97q0 79 57 122.5t159 43.5q109 0 209 -35l-31 -120 q-111 34 -177 34q-58 0 -58 -34q0 -18 20 -26t72 -17q10 -2 16 -3q88 -18 128 -51t40 -98q0 -80 -58 -122t-162 -42q-111 0 -228 43z"/>
<glyph horiz-adv-x="675" glyph-name="uni021A" unicode="Ț" d="M264 -270l40 80q-47 20 -47 66q0 31 24 53.5t58 22.5q33 0 57 -22.5t24 -53.5q0 -23 -13 -45q-13 -26 -63 -101h-80zM422 529v-529h-169v529h-228v151h625v-151h-228z"/>
<glyph horiz-adv-x="472" glyph-name="uni021B" unicode="ț" d="M188 -270l40 80q-47 20 -47 66q0 31 24 53.5t58 22.5q33 0 57 -22.5t24 -53.5q0 -23 -13 -45q-13 -26 -63 -101h-80zM433 138l15 -133q-77 -20 -152 -20q-91 0 -139.5 53t-48.5 153v149h-93v145h93v165h162v-165h149v-145h-149v-133q0 -77 69 -77q32 0 94 8z"/>
</font>
</defs>
</svg>
