<?xml version="1.0" encoding="UTF-8" standalone="no"?>
<!DOCTYPE svg  PUBLIC '-//W3C//DTD SVG 1.1//EN'  'http://www.w3.org/Graphics/SVG/1.1/DTD/svg11.dtd'>
<svg xmlns="http://www.w3.org/2000/svg" version="1.1">
<defs>
<font id="Canaro-ExtraLight" horiz-adv-x="606">
<font-face underline-thickness="50" font-family="Canaro ExtraLight" bbox="-29 -272 1038 910" cap-height="680" underline-position="-150" font-weight="250" units-per-em="1000" panose-1="0 0 3 0 0 0 0 0 0 0" x-height="456" ascent="800" unicode-range="U+0020-FB02" descent="-200"/>
<missing-glyph/>
<glyph horiz-adv-x="269" unicode=" " glyph-name="space"/>
<glyph horiz-adv-x="232" d="M116 -10q-15 0 -25.5 10t-10.5 26q0 15 10.5 25.5t25.5 10.5q16 0 26.5 -10.5t10.5 -25.5q0 -16 -10.5 -26t-26.5 -10zM140 680l-2 -512h-45l-1 512h48z" unicode="!" glyph-name="exclam"/>
<glyph horiz-adv-x="331" d="M267 760l-13 -227h-40l3 227h50zM137 760l-13 -227h-40l2 227h51z" unicode='&quot;' glyph-name="quotedbl"/>
<glyph horiz-adv-x="723" d="M270 429l-55 -178h229l56 178h-230zM490 251h132v-39h-144l-67 -212h-45l66 212h-229l-67 -212h-45l66 212h-111v39h123l56 178h-124v38h136l67 214h45l-67 -214h230l67 214h45l-67 -214h120v-38h-132z" unicode="#" glyph-name="numbersign"/>
<glyph horiz-adv-x="684" d="M600 181q0 -89 -65 -142t-171 -54v-121h-42v122q-129 7 -247 56l14 42q139 -56 269 -56q88 0 141.5 40.5t53.5 109.5q0 59 -45 96q-16 13 -53 27q-42 16 -57 19l-66 14l-19 4q-115 24 -160 60q-44 38 -44 109q0 81 58 131.5t155 55.5v129h42v-130q113 -3 215 -38l-12 -40 q-117 36 -229 36q-82 0 -131.5 -38.5t-49.5 -104.5q0 -54 38 -81q39 -27 137 -48q56 -12 87 -21q33 -8 72 -24q41 -16 59 -34q50 -45 50 -119z" unicode="$" glyph-name="dollar"/>
<glyph horiz-adv-x="1079" d="M700 64q40 -42 102 -42t102 42q41 43 41 108t-41 108q-40 42 -102 42t-102 -42q-41 -43 -41 -108t41 -108zM803 358q77 0 128 -52q52 -52 52 -134q0 -84 -51 -136q-51 -51 -129 -51q-77 0 -130 51q-51 52 -51 136q0 82 51 134q52 52 130 52zM174 401q40 -42 102 -42 t102 42q41 43 41 108t-41 108q-40 42 -102 42t-102 -42q-41 -43 -41 -108t41 -108zM329 0h-34l448 680h34zM277 695q77 0 128 -52q52 -52 52 -134q0 -83 -51 -136q-51 -51 -129 -51q-77 0 -130 51q-51 53 -51 136q0 81 51 134q52 52 130 52z" unicode="%" glyph-name="percent"/>
<glyph horiz-adv-x="635" d="M480 327h-187q-94 0 -148.5 -37.5t-54.5 -101.5q0 -75 52.5 -118.5t142.5 -43.5t142.5 44t52.5 119v138zM524 327v-138q0 -93 -64.5 -148t-174.5 -55q-111 0 -175 55t-64 146q0 59 37.5 101.5t106.5 59.5q-58 18 -89 57.5t-31 94.5q0 84 59.5 133.5t161.5 49.5 q66 0 132 -17l-10 -40q-66 17 -123 17q-81 0 -128 -38t-47 -104q0 -63 46.5 -98.5t131.5 -35.5h306v-40h-75z" unicode="&amp;" glyph-name="ampersand"/>
<glyph horiz-adv-x="200" d="M136 760l-13 -227h-39l2 227h50z" unicode="&apos;" glyph-name="quotesingle"/>
<glyph horiz-adv-x="313" d="M228 747l34 -21q-157 -208 -157 -462q0 -253 157 -461l-34 -22q-168 205 -168 483q0 279 168 483z" unicode="(" glyph-name="parenleft"/>
<glyph horiz-adv-x="312" d="M50 726l34 21q168 -204 168 -483q0 -278 -168 -483l-34 22q157 208 157 461q0 254 -157 462z" unicode=")" glyph-name="parenright"/>
<glyph horiz-adv-x="397" d="M342 469l-15 -25l-114 67v-122h-30v122l-113 -67l-15 25l115 68l-115 68l15 26l113 -67v119h30v-120l114 68l15 -26l-114 -68z" unicode="*" glyph-name="asterisk"/>
<glyph horiz-adv-x="698" d="M372 298v-204h-45v204h-203v42h203v205h45v-205h202v-42h-202z" unicode="+" glyph-name="plus"/>
<glyph horiz-adv-x="260" d="M66 -153l52 148q-26 8 -26 33q0 16 11 26.5t27 10.5q17 0 28 -10.5t11 -26.5q0 -17 -38 -107q-18 -44 -30 -74h-35z" unicode="," glyph-name="comma"/>
<glyph horiz-adv-x="539" d="M415 298v-44h-291v44h291z" unicode="-" glyph-name="hyphen"/>
<glyph horiz-adv-x="260" d="M157 0q-13 -10 -27 -10q-15 0 -28 10q-11 11 -11 27t11 27t28 11q16 0 27 -11q12 -12 12 -27t-12 -27z" unicode="." glyph-name="period"/>
<glyph horiz-adv-x="470" d="M66 -272h-42l363 1040h42z" unicode="/" glyph-name="slash"/>
<glyph horiz-adv-x="755" d="M377 28q117 0 188 86t71 226t-71 226t-188 86q-116 0 -187 -86t-71 -226t71 -226t187 -86zM377 695q139 0 223 -98q84 -97 84 -257t-84 -258q-84 -97 -223 -97q-138 0 -223 97q-84 98 -84 258t84 257q86 98 223 98z" unicode="0" glyph-name="zero"/>
<glyph horiz-adv-x="401" d="M272 0h-46v629l-192 -60l-11 38l233 73h16v-680z" unicode="1" glyph-name="one"/>
<glyph horiz-adv-x="579" d="M522 0h-463v30l243 224q28 26 61 59q17 17 47 52q49 60 49 125q0 74 -51 118t-135 44q-98 0 -202 -58l-15 38q102 63 223 63q103 0 165 -56t62 -145q0 -72 -45 -133q-41 -57 -134 -142l-196 -177h391v-42z" unicode="2" glyph-name="two"/>
<glyph horiz-adv-x="587" d="M508 650l-246 -276h26q117 -2 179.5 -49.5t62.5 -136.5q0 -87 -71 -146q-71 -57 -178 -57q-123 0 -237 57l16 35q120 -51 222 -51q84 0 142 46q59 47 59 115q0 72 -54 110t-154 38h-81v22l250 281h-369v42h433v-30z" unicode="3" glyph-name="three"/>
<glyph horiz-adv-x="674" d="M110 177h358v439zM514 177h99v-41h-99v-136h-46v136h-420v30l420 514h46v-503z" unicode="4" glyph-name="four"/>
<glyph horiz-adv-x="611" d="M139 404l161 -8q116 -5 180.5 -57t64.5 -141q0 -97 -68 -156q-67 -57 -171 -57q-130 0 -248 57l16 38q123 -53 231 -53q84 0 138 45q55 46 55 125q0 70 -53.5 112t-148.5 46l-204 9l30 316h398v-43h-358z" unicode="5" glyph-name="five"/>
<glyph horiz-adv-x="617" d="M308 25q89 0 146 54q57 55 57 143q0 86 -57 139q-57 54 -146 54q-91 0 -147 -53q-55 -52 -55 -140t57 -143q57 -54 145 -54zM308 454q109 0 179 -64t70 -168q0 -106 -70 -172q-71 -65 -179 -65t-179 65q-69 66 -69 172q0 77 51 149l218 309h56l-170 -240q44 14 93 14z " unicode="6" glyph-name="six"/>
<glyph horiz-adv-x="546" d="M512 651l-315 -651h-53l312 637h-424v43h480v-29z" unicode="7" glyph-name="seven"/>
<glyph horiz-adv-x="636" d="M532 186q0 68 -59 109t-155 41t-155 -41t-59 -109q0 -71 59 -116q60 -45 155 -45q96 0 154 45q60 45 60 116zM143 520q0 -65 47.5 -104t127.5 -39t128 39t48 104q0 61 -48.5 99t-127.5 38q-78 0 -126.5 -38t-48.5 -99zM412 358q79 -17 123.5 -62.5t44.5 -110.5 q0 -89 -72 -145q-71 -55 -190 -55t-190 55q-72 56 -72 145q0 65 44.5 110.5t123.5 62.5q-60 19 -94 61.5t-34 102.5q0 79 61 125q61 48 161 48t161 -48q62 -47 62 -125q0 -60 -34 -102.5t-95 -61.5z" unicode="8" glyph-name="eight"/>
<glyph horiz-adv-x="595" d="M94 458q0 -86 57 -140q58 -53 146 -53q90 0 146 53t56 140q0 88 -57 142q-56 55 -145 55q-90 0 -146 -55q-57 -54 -57 -142zM545 458q0 -75 -49 -146l-1 -2l-216 -310h-56l166 237q-41 -11 -92 -11q-110 0 -180 64q-69 64 -69 168q0 107 70 171q71 66 179 66 q109 0 178 -66q70 -64 70 -171z" unicode="9" glyph-name="nine"/>
<glyph horiz-adv-x="260" d="M129 -10h-3q-16 0 -25 11t-9 26q0 16 9 27t25 11h3h3q17 0 26 -11t9 -27q0 -15 -9 -26t-25 -11h-4zM157 402q-13 -10 -27 -10q-15 0 -28 10q-11 11 -11 27t11 27t28 11q16 0 27 -11q12 -12 12 -27t-12 -27z" unicode=":" glyph-name="colon"/>
<glyph horiz-adv-x="262" d="M66 -153l52 148q-27 7 -27 33q0 16 11 26.5t28 10.5q16 0 27 -10.5t11 -26.5q0 -12 -6 -29q-3 -12 -38 -94l-24 -58h-34zM132 392h-3q-16 0 -25 11t-9 26q0 16 9 27t25 11h3h3q17 0 26 -11t9 -27q0 -15 -9 -26t-25 -11h-4z" unicode=";" glyph-name="semicolon"/>
<glyph horiz-adv-x="558" d="M480 530v-47l-373 -182l373 -183v-46l-422 206v46z" unicode="&lt;" glyph-name="less"/>
<glyph horiz-adv-x="729" d="M606 210h-482v42h482v-42zM606 402h-482v43h482v-43z" unicode="=" glyph-name="equal"/>
<glyph horiz-adv-x="558" d="M500 278l-422 -206v46l373 183l-373 182v47l422 -206v-46z" unicode="&gt;" glyph-name="greater"/>
<glyph horiz-adv-x="490" d="M186 62q16 0 26.5 -10.5t10.5 -25.5q0 -16 -10.5 -26t-26.5 -10q-15 0 -25.5 10t-10.5 26q0 15 10.5 25.5t25.5 10.5zM216 695q107 0 172 -56q66 -55 66 -148q0 -95 -63 -154q-62 -59 -162 -59h-30l5 -110h-42l-10 150h71q84 0 135.5 47.5t51.5 126.5q0 73 -53 117.5 t-140 44.5q-79 0 -155 -19l-9 39q81 21 163 21z" unicode="?" glyph-name="question"/>
<glyph horiz-adv-x="1013" d="M487 442q-87 0 -140 -53q-51 -53 -51 -133q0 -91 51.5 -147t136.5 -56q82 0 185 64q-7 27 -7 67v241q-85 17 -175 17zM507 690q200 0 322 -119t122 -314q0 -120 -40.5 -179.5t-115.5 -59.5q-89 0 -117 66q-57 -38 -101 -53.5t-96 -15.5q-103 0 -166 66q-63 67 -63 177 q2 98 64 159q63 63 167 63q108 0 222 -24v-277q0 -65 22 -95.5t72 -30.5q121 0 121 204q0 181 -114 292q-113 112 -299 112q-175 0 -294 -116t-119 -288q0 -173 117 -288q118 -116 291 -116q97 0 239 32l6 -28q-136 -34 -245 -34q-192 0 -316 124q-124 123 -124 310 q0 186 127 309q127 124 318 124z" unicode="@" glyph-name="at"/>
<glyph horiz-adv-x="751" d="M376 627l-182 -405h362zM176 180l-81 -180h-51l309 685h45l309 -685h-52l-80 180h-399z" unicode="A" glyph-name="A"/>
<glyph horiz-adv-x="677" d="M355 34q100 0 155.5 39.5t55.5 114.5q0 65 -55.5 102t-150.5 37h-206v-287q142 -6 201 -6zM352 645q-85 0 -198 -5v-272h186q90 0 139.5 36.5t49.5 103.5t-46.5 102t-130.5 35zM441 352q82 -14 126.5 -57.5t44.5 -109.5q0 -92 -67.5 -142t-186.5 -50q-74 0 -250 7v680 q150 7 247 7q103 0 161 -45.5t58 -128.5q0 -61 -34 -102.5t-99 -58.5z" unicode="B" glyph-name="B"/>
<glyph horiz-adv-x="763" d="M674 660l-10 -42q-117 33 -216 33q-153 0 -241 -85t-88 -226q0 -142 87 -227q86 -85 232 -85q110 0 245 39l9 -39q-129 -43 -256 -43q-167 0 -267 97q-99 98 -99 258t101 258q100 97 273 97q113 0 230 -35z" unicode="C" glyph-name="C"/>
<glyph horiz-adv-x="756" d="M335 37q137 0 219 82q83 83 83 226q0 139 -84 219q-83 81 -222 81q-63 0 -177 -6v-598q103 -4 181 -4zM331 687q160 0 258 -92q97 -91 97 -250q0 -163 -97 -257q-95 -94 -254 -94q-38 0 -227 6v680q137 7 223 7z" unicode="D" glyph-name="D"/>
<glyph horiz-adv-x="644" d="M154 361h375v-42h-375v-276h416v-43h-462v680h462v-43h-416v-276z" unicode="E" glyph-name="E"/>
<glyph horiz-adv-x="605" d="M154 339h364v-42h-364v-297h-46v680h451v-43h-405v-298z" unicode="F" glyph-name="F"/>
<glyph horiz-adv-x="814" d="M739 360v-308q-147 -67 -306 -67q-163 0 -264 98q-99 97 -99 258q0 158 101 256t267 98q120 0 236 -35l-10 -42q-123 33 -224 33q-145 0 -233 -85t-88 -225t86 -226q88 -86 228 -86q130 0 262 50v239h-286v42h330z" unicode="G" glyph-name="G"/>
<glyph horiz-adv-x="752" d="M644 0h-46v317h-444v-317h-46v680h46v-320h444v320h46v-680z" unicode="H" glyph-name="H"/>
<glyph horiz-adv-x="261" d="M154 680v-680h-46v680h46z" unicode="I" glyph-name="I"/>
<glyph horiz-adv-x="575" d="M478 680v-438q0 -123 -60 -190t-168 -67q-100 0 -219 45l11 41q114 -42 208 -42q86 0 133.5 55.5t47.5 157.5v438h47z" unicode="J" glyph-name="J"/>
<glyph horiz-adv-x="677" d="M154 296v-296h-46v680h46v-340h82l317 340h59l-318 -340l351 -340h-61l-310 296h-120z" unicode="K" glyph-name="K"/>
<glyph horiz-adv-x="582" d="M543 0h-435v680h46v-638h389v-42z" unicode="L" glyph-name="L"/>
<glyph horiz-adv-x="946" d="M768 582l-273 -582h-44l-273 582l-35 -582h-45l39 680h47l289 -624l289 624h47l39 -680h-45z" unicode="M" glyph-name="M"/>
<glyph horiz-adv-x="781" d="M674 680v-680h-50l-470 608v-608h-46v680h48l471 -609v609h47z" unicode="N" glyph-name="N"/>
<glyph horiz-adv-x="851" d="M204 114q86 -86 222 -86q137 0 221 86q85 85 85 226t-85 226q-84 86 -221 86q-136 0 -222 -86q-85 -85 -85 -226t85 -226zM168 597q100 98 258 98q159 0 257 -98t98 -257q0 -160 -98 -258q-97 -97 -257 -97q-158 0 -258 98q-98 98 -98 257t98 257z" unicode="O" glyph-name="O"/>
<glyph horiz-adv-x="638" d="M154 283h181q94 0 152 49t58 130q0 86 -56.5 134.5t-153.5 48.5q-77 0 -181 -6v-356zM332 687q119 0 189.5 -60t70.5 -165q0 -100 -72 -161q-70 -60 -188 -60h-178v-241h-46v680q108 7 224 7z" unicode="P" glyph-name="P"/>
<glyph horiz-adv-x="851" d="M204 566q-85 -85 -85 -226t85 -226q86 -86 222 -86q137 0 221 86q85 85 85 226t-85 226q-84 86 -221 86q-136 0 -222 -86zM781 340q0 -119 -56 -205.5t-155 -123.5l151 -176h-59l-138 161q-52 -11 -99 -11q-160 0 -257 97q-98 98 -98 258q0 159 98 257t257 98t257 -98 q99 -97 99 -257z" unicode="Q" glyph-name="Q"/>
<glyph horiz-adv-x="651" d="M154 299h168q95 0 151.5 47.5t56.5 131.5q0 81 -56.5 124t-154.5 43q-48 0 -165 -5v-341zM560 0l-195 261q-16 -3 -55 -3h-156v-258h-46v680q119 7 210 7q121 0 189.5 -54.5t68.5 -154.5q0 -80 -42.5 -133t-121.5 -74l204 -271h-56z" unicode="R" glyph-name="R"/>
<glyph horiz-adv-x="684" d="M579 655l-13 -40q-116 36 -228 36q-82 0 -131.5 -38.5t-49.5 -104.5q0 -54 38 -81q37 -27 136 -48q55 -12 87 -21q33 -8 72 -24q40 -15 60 -34q50 -45 50 -119q0 -92 -67 -144t-177 -52q-142 0 -281 57l14 42q139 -56 269 -56q88 0 141.5 40.5t53.5 109.5q0 59 -45 96 q-16 13 -53 27q-42 16 -57 19l-66 14l-19 4q-115 24 -160 60q-45 37 -45 109q0 87 63 136q65 51 168 51q123 0 240 -39z" unicode="S" glyph-name="S"/>
<glyph horiz-adv-x="665" d="M356 637v-637h-46v637h-280v43h605v-43h-279z" unicode="T" glyph-name="T"/>
<glyph horiz-adv-x="765" d="M667 680v-415q0 -127 -78 -204q-77 -76 -207 -76t-207 76q-77 77 -77 204v415h46v-415q0 -108 65 -173q64 -64 173 -64t173 64q66 64 66 173v415h46z" unicode="U" glyph-name="U"/>
<glyph horiz-adv-x="761" d="M404 0h-46l-313 680h53l283 -619l283 619h52z" unicode="V" glyph-name="V"/>
<glyph horiz-adv-x="1056" d="M776 0h-44l-204 605l-204 -605h-45l-235 680h49l210 -608l204 608h42l204 -607l209 607h50z" unicode="W" glyph-name="W"/>
<glyph horiz-adv-x="681" d="M372 338l277 -338h-56l-252 303l-253 -303h-56l277 338l-267 342h58l241 -304l240 304h58z" unicode="X" glyph-name="X"/>
<glyph horiz-adv-x="677" d="M315 250l-287 430h53l257 -383l258 383h53l-287 -430v-250h-47v250z" unicode="Y" glyph-name="Y"/>
<glyph horiz-adv-x="659" d="M584 649l-448 -606h449v-43h-515v31l451 606h-440v43h503v-31z" unicode="Z" glyph-name="Z"/>
<glyph horiz-adv-x="315" d="M127 -174h134v-42h-179v960h179v-42h-134v-876z" unicode="[" glyph-name="bracketleft"/>
<glyph horiz-adv-x="470" d="M94 768l348 -1040h-46l-348 1040h46z" unicode="\" glyph-name="backslash"/>
<glyph horiz-adv-x="315" d="M54 702v42h179v-960h-179v42h134v876h-134z" unicode="]" glyph-name="bracketright"/>
<glyph horiz-adv-x="399" d="M199 638l-126 -197h-46l153 239h39l153 -239h-46z" unicode="^" glyph-name="asciicircum"/>
<glyph horiz-adv-x="659" d="M46 -143h568v-40h-568v40z" unicode="_" glyph-name="underscore"/>
<glyph horiz-adv-x="600" d="M358 576h-45l-105 158h61z" unicode="`" glyph-name="grave"/>
<glyph horiz-adv-x="607" d="M296 431q-89 0 -140 -54.5t-51 -147.5q0 -92 51 -149q53 -56 138 -56q83 0 179 60v331q-81 16 -177 16zM292 471q110 0 226 -25v-446h-45v43q-92 -58 -183 -58q-104 0 -167 67q-63 68 -63 178q0 109 63 175t169 66z" unicode="a" glyph-name="a"/>
<glyph horiz-adv-x="612" d="M314 431q-97 0 -175 -24v-366q90 -17 176 -17q89 0 140 56q52 56 52 150q0 91 -52 146t-141 55zM139 710v-264q75 25 178 25q109 0 172 -66q63 -65 63 -175q0 -111 -64 -178q-63 -66 -166 -66q-111 0 -228 23v701h45z" unicode="b" glyph-name="b"/>
<glyph horiz-adv-x="536" d="M468 447l-8 -36q-79 22 -146 22q-92 0 -151 -56q-57 -55 -57 -148t55 -148q56 -56 145 -56q69 0 166 27l9 -38q-98 -29 -174 -29q-111 0 -179 67q-68 68 -68 177q0 110 69 176q70 67 184 67q81 0 155 -25z" unicode="c" glyph-name="c"/>
<glyph horiz-adv-x="612" d="M298 431q-89 0 -141 -55t-52 -146q0 -94 51.5 -150t140.5 -56q86 0 176 17v366q-78 24 -175 24zM518 710v-701q-117 -23 -228 -23q-102 0 -167 66q-63 68 -63 178t63 175q63 66 172 66q103 0 178 -25v264h45z" unicode="d" glyph-name="d"/>
<glyph horiz-adv-x="571" d="M296 433q-83 0 -133.5 -50t-55.5 -135h363q-1 86 -48 135.5t-126 49.5zM295 471q99 0 157 -60q59 -61 59 -163q0 -28 -1 -37h-402q5 -84 57 -134.5t136 -50.5q64 0 170 26l8 -36q-96 -31 -179 -31q-111 0 -175 67q-65 68 -65 178q0 107 65 174q64 67 170 67z" unicode="e" glyph-name="e"/>
<glyph horiz-adv-x="372" d="M181 456h182v-41h-182v-415h-45v415h-131v41h131v138q0 73 41.5 116.5t109.5 43.5q37 0 80 -12l-8 -38q-36 9 -71 9q-48 0 -77.5 -32.5t-29.5 -87.5v-137z" unicode="f" glyph-name="f"/>
<glyph horiz-adv-x="602" d="M296 431q-89 0 -140 -54.5t-51 -147.5q0 -85 52 -140t137 -55q94 0 179 17v364q-81 16 -177 16zM292 471q116 0 226 -25v-436q0 -117 -64.5 -186t-175.5 -69q-95 0 -175 37l10 37q83 -33 164 -33q90 0 142.5 57.5t53.5 158.5q-85 -17 -183 -17q-102 0 -167 66 q-63 66 -63 169q0 109 63 175t169 66z" unicode="g" glyph-name="g"/>
<glyph d="M338 471q87 0 135 -50t48 -141v-280h-44v272q0 75 -38.5 116.5t-106.5 41.5q-109 0 -193 -25v-405h-44v710h44v-264q87 25 199 25z" unicode="h" glyph-name="h"/>
<glyph horiz-adv-x="244" d="M145 456v-456h-45v456h45zM122 593q-16 0 -26 10.5t-10 25.5q0 16 10 26t26 10q15 0 26 -10.5t11 -25.5t-11 -25.5t-26 -10.5z" unicode="i" glyph-name="i"/>
<glyph horiz-adv-x="228" d="M135 456v-504q0 -97 -35 -140q-34 -42 -122 -43l-2 40h3q61 0 86 31.5t25 107.5v508h45zM86 654q10 11 24 11q15 0 27.5 -11.5t12.5 -26.5q0 -13 -12 -24q-13 -10 -26 -10t-26 10q-11 11 -11 26q0 17 11 25z" unicode="j" glyph-name="j"/>
<glyph horiz-adv-x="561" d="M139 251h77l209 205h58l-213 -209l253 -247h-58l-219 209h-107v-209h-45v710h45v-459z" unicode="k" glyph-name="k"/>
<glyph horiz-adv-x="250" d="M147 710v-710h-44v710h44z" unicode="l" glyph-name="l"/>
<glyph horiz-adv-x="901" d="M648 471q169 0 169 -191v-280h-45v272q0 158 -130 158q-93 0 -183 -35q19 -37 19 -107v-288h-45v280q0 83 -31.5 116.5t-106.5 33.5q-88 -6 -156 -17v-413h-45v446q106 21 208 25q94 0 134 -43q96 43 212 43z" unicode="m" glyph-name="m"/>
<glyph d="M338 471q86 0 134.5 -50t48.5 -141v-280h-45v272q0 75 -38 116.5t-107 41.5q-96 0 -192 -17v-413h-45v446q104 25 244 25z" unicode="n" glyph-name="n"/>
<glyph horiz-adv-x="613" d="M307 26q88 0 144 56q56 58 56 148q0 89 -56 145t-144 56q-89 0 -145 -56t-56 -145q0 -90 56 -148q56 -56 145 -56zM307 472q109 0 177 -67q69 -66 69 -175q0 -110 -69 -178q-70 -68 -177 -68q-108 0 -178 68q-69 68 -69 178q0 109 69 175q68 67 178 67z" unicode="o" glyph-name="o"/>
<glyph horiz-adv-x="613" d="M318 34q85 0 137 55t52 140q0 93 -51 147.5t-140 54.5q-96 0 -177 -16v-364q85 -17 179 -17zM320 471q106 0 168 -66q62 -65 64 -175q0 -104 -64 -169q-63 -66 -166 -66q-98 0 -183 17v-235h-45v669q107 25 226 25z" unicode="p" glyph-name="p"/>
<glyph horiz-adv-x="613" d="M295 34q94 0 179 17v364q-81 16 -176 16q-89 0 -140.5 -54.5t-51.5 -147.5q0 -85 52 -140t137 -55zM293 471q119 0 226 -25v-669h-45v235q-85 -17 -183 -17q-103 0 -167 66q-63 66 -63 169q1 109 63 175q63 66 169 66z" unicode="q" glyph-name="q"/>
<glyph horiz-adv-x="381" d="M335 466v-44q-103 0 -196 -11v-411h-45v445q128 21 241 21z" unicode="r" glyph-name="r"/>
<glyph horiz-adv-x="514" d="M66 32l12 38q102 -46 194 -46q61 0 97.5 25t36.5 69q0 46 -46 66q-27 13 -47 18q-15 4 -67 16q-2 0 -5 0.5t-4 1.5q-80 18 -114 44.5t-34 76.5q0 62 46 95.5t128 33.5q87 0 170 -30l-12 -37q-84 29 -162 29q-126 0 -126 -90q0 -37 26 -54q25 -15 97 -32l46 -11l39 -11 q33 -8 65 -29q21 -14 30 -32.5t12 -51.5q0 -64 -48.5 -100t-130.5 -36q-95 0 -203 47z" unicode="s" glyph-name="s"/>
<glyph horiz-adv-x="424" d="M368 35l7 -37q-48 -13 -92 -13q-77 0 -112 40.5t-35 130.5v259h-108v41h108v202h45v-202h169v-41h-169v-256q0 -71 24.5 -102t82.5 -31q38 0 80 9z" unicode="t" glyph-name="t"/>
<glyph d="M513 456v-446q-104 -25 -243 -25q-88 0 -136 49t-48 142v280h45v-273q0 -76 37.5 -117t107.5 -41q100 0 192 16v415h45z" unicode="u" glyph-name="u"/>
<glyph horiz-adv-x="574" d="M312 0h-49l-218 456h49l193 -405l193 405h50z" unicode="v" glyph-name="v"/>
<glyph horiz-adv-x="825" d="M598 0h-46l-140 389l-139 -389h-45l-176 456h47l153 -392l141 392h39l142 -393l152 393h46z" unicode="w" glyph-name="w"/>
<glyph horiz-adv-x="531" d="M295 227l195 -227h-54l-170 196l-171 -196h-54l195 227l-191 229h55l165 -196l166 196h55z" unicode="x" glyph-name="x"/>
<glyph horiz-adv-x="604" d="M564 456l-356 -679h-50l126 241l-241 438h51l214 -391l205 391h51z" unicode="y" glyph-name="y"/>
<glyph horiz-adv-x="492" d="M434 427l-315 -387h319v-40h-382v27l316 389h-304v40h366v-29z" unicode="z" glyph-name="z"/>
<glyph horiz-adv-x="360" d="M198 579v-171q0 -63 -16.5 -97.5t-55.5 -48.5q39 -14 55.5 -48.5t16.5 -97.5v-172q0 -70 25 -99.5t84 -29.5v-41q-81 0 -117 40.5t-36 131.5v169q0 70 -25 98.5t-84 28.5v40q59 0 84 28.5t25 98.5v169q0 91 35.5 131t117.5 40v-41q-60 0 -84.5 -29t-24.5 -100z" unicode="{" glyph-name="braceleft"/>
<glyph horiz-adv-x="306" d="M175 766v-918h-44v918h44z" unicode="|" glyph-name="bar"/>
<glyph horiz-adv-x="360" d="M162 408v171q0 71 -24.5 100t-83.5 29v41q81 0 117 -40t36 -131v-169q0 -70 24.5 -98.5t83.5 -28.5v-40q-59 0 -83.5 -28.5t-24.5 -98.5v-169q0 -91 -36 -131.5t-117 -40.5v41q59 0 83.5 29.5t24.5 99.5v172q0 63 16.5 97.5t55.5 48.5q-39 14 -55.5 48.5t-16.5 97.5z" unicode="}" glyph-name="braceright"/>
<glyph horiz-adv-x="466" d="M364 391h40q0 -48 -27 -72.5t-64 -24.5q-30 0 -54 16l-68 47q-17 12 -36 12q-12 0 -23 -4q-31 -12 -31 -51h-40q0 48 26 71.5t64 23.5q32 0 55 -15l68 -47q18 -12 36 -12q12 0 23 4q31 13 31 52z" unicode="~" glyph-name="asciitilde"/>
<glyph horiz-adv-x="261" d="M107 293h45l1 -511h-48zM130 472q15 0 25.5 -10.5t10.5 -25.5t-10.5 -25.5t-25.5 -10.5q-17 0 -26.5 10.5t-9.5 25.5t9.5 25.5t26.5 10.5z" unicode="¡" glyph-name="exclamdown"/>
<glyph horiz-adv-x="517" d="M465 63l9 -39q-78 -25 -152 -28v-124h-42v124q-104 6 -165 72q-62 67 -62 170q0 104 62 169q63 66 165 73v123h42v-122q73 -3 139 -25l-7 -37q-81 22 -149 22q-91 0 -149 -56q-57 -55 -57 -146t56 -147t144 -56q69 0 166 27z" unicode="¢" glyph-name="cent"/>
<glyph horiz-adv-x="624" d="M579 0h-529v40h81v247h-81v40h81v164q0 92 65 148q67 56 173 56q83 0 162 -21l-8 -39q-77 19 -155 19q-87 0 -139.5 -44.5t-52.5 -117.5v-165h255v-40h-255v-247h403v-40z" unicode="£" glyph-name="sterling"/>
<glyph horiz-adv-x="661" d="M573 277v-36h-219v-105h219v-37h-219v-99h-47v99h-219v37h219v105h-219v36h202l-270 403h53l258 -383l257 383h53l-269 -403h201z" unicode="¥" glyph-name="yen"/>
<glyph horiz-adv-x="306" d="M175 -153h-44v408h44v-408zM175 357h-44v408h44v-408z" unicode="¦" glyph-name="brokenbar"/>
<glyph horiz-adv-x="526" d="M182 452q-52 -29 -74.5 -57t-22.5 -68q0 -53 37 -84q39 -31 135 -77l42 -21q38 -18 45 -22q52 29 74.5 56.5t22.5 68.5q0 51 -38 83q-34 29 -134 77q-53 26 -87 44zM269 695q90 0 171 -32l-14 -36q-84 30 -158 30q-63 0 -97.5 -24t-34.5 -67q0 -38 41 -65q26 -16 107 -55 q110 -50 153 -90q45 -39 45 -103q0 -50 -25.5 -83.5t-80.5 -65.5q57 -39 57 -95q0 -60 -47 -95t-130 -35q-88 0 -170 33l13 36q83 -31 159 -31q63 0 97.5 24t34.5 67q0 36 -27 56q-29 21 -111 59l-11 5q-109 51 -153 90t-44 103q0 50 25 84t81 66q-57 37 -57 94 q0 61 46.5 95.5t129.5 34.5z" unicode="§" glyph-name="section"/>
<glyph horiz-adv-x="600" d="M440 629q1 -16 -10 -25t-26 -9t-25.5 9t-9.5 25q-1 15 9.5 24t25.5 9t26 -9t10 -24zM232 629q1 -16 -10 -25t-26 -9t-25.5 9t-9.5 25q-1 15 9.5 24t25.5 9t26 -9t10 -24z" unicode="¨" glyph-name="dieresis"/>
<glyph horiz-adv-x="849" d="M566 513l-9 -32q-74 21 -128 21q-78 0 -120 -42.5t-42 -120.5t41.5 -121t117.5 -43q42 0 131 20l8 -31q-77 -24 -137 -24q-96 0 -148 52.5t-52 146.5t52.5 146t148.5 52q59 0 137 -24zM663 573q-95 94 -238 94q-142 0 -239 -94q-96 -95 -96 -233t96 -233q97 -94 239 -94 q143 0 238 94q97 94 97 233t-97 233zM164 593q105 102 261 102q157 0 260 -102q104 -101 104 -253t-104 -254q-104 -101 -260 -101q-155 0 -261 101q-104 102 -104 254t104 253z" unicode="©" glyph-name="copyright"/>
<glyph horiz-adv-x="462" d="M350 529l-135 -6q-112 -4 -112 -67q0 -72 115 -72q56 0 132 12v133zM246 695q72 0 106 -29.5t34 -93.5v-202q-98 -18 -173 -18q-147 0 -147 103q0 91 152 99l132 5v12q-1 48 -25.5 69t-77.5 21q-61 0 -138 -11l-4 33q77 12 141 12z" unicode="ª" glyph-name="ordfeminine"/>
<glyph horiz-adv-x="527" d="M450 79l-26 -25l-185 192l185 192l27 -23l-157 -168zM268 79l-27 -25l-185 192l185 192l27 -23l-157 -168z" unicode="«" glyph-name="guillemotleft"/>
<glyph horiz-adv-x="849" d="M428 506q-43 0 -94 -3v-183h95q54 0 85 25.5t31 70.5q0 44 -31 67t-86 23zM427 537q72 0 112.5 -31t40.5 -90q0 -45 -25.5 -76t-70.5 -42l117 -152h-44l-108 144q-4 0 -10 -0.5t-9 -1t-5 -0.5h-91v-142h-36v388q123 3 129 3zM663 573q-95 94 -238 94q-142 0 -239 -94 q-96 -95 -96 -233t96 -233q97 -94 239 -94q143 0 238 94q97 94 97 233t-97 233zM164 593q105 102 261 102q157 0 260 -102q104 -101 104 -253t-104 -254q-104 -101 -260 -101q-155 0 -261 101q-104 102 -104 254t104 253z" unicode="®" glyph-name="registered"/>
<glyph horiz-adv-x="600" d="M433 670v-36h-267v36h267z" unicode="¯" glyph-name="overscore"/>
<glyph horiz-adv-x="494" d="M372 534q0 52 -37 88q-36 37 -88 37t-89 -37q-36 -36 -36 -88q0 -51 36 -87q38 -35 89 -35t88 35q37 36 37 87zM130 648q47 47 117 47t117 -47t47 -114t-47 -114q-46 -46 -117 -46t-117 46q-47 47 -47 114t47 114z" unicode="°" glyph-name="degree"/>
<glyph horiz-adv-x="698" d="M574 93v-43h-450v43h450zM574 324h-202v-169h-45v169h-203v43h203v170h45v-170h202v-43z" unicode="±" glyph-name="plusminus"/>
<glyph horiz-adv-x="353" d="M307 314h-264v25l137 119q42 35 60.5 60t18.5 54q0 38 -25.5 59t-70.5 21q-55 0 -112 -28l-11 31q59 32 127 32q61 0 96 -30.5t35 -79.5q0 -37 -23 -70t-76 -78l-95 -82h203v-33z" unicode="²" glyph-name="twosuperior"/>
<glyph horiz-adv-x="356" d="M297 656l-132 -137h11q63 -1 98.5 -27.5t35.5 -72.5q0 -50 -40 -81t-104 -31q-74 0 -135 31l13 29q64 -27 123 -27q45 0 76.5 22t31.5 55q0 70 -107 70h-56v18l133 141h-194v34h246v-24z" unicode="³" glyph-name="threesuperior"/>
<glyph horiz-adv-x="600" d="M410 734l-105 -158h-45l89 158h61z" unicode="´" glyph-name="acute"/>
<glyph horiz-adv-x="736" d="M382 644l-102 1q-93 0 -141.5 -46.5t-48.5 -136.5q0 -84 49.5 -131.5t140.5 -47.5h102v361zM283 687q242 0 350 -7v-782h-47v741q-82 3 -158 4v-745h-46v343h-99q-113 0 -176 59t-63 162q0 108 61.5 166.5t177.5 58.5z" unicode="¶" glyph-name="paragraph"/>
<glyph horiz-adv-x="260" d="M157 226q-11 -11 -27 -11q-17 0 -28 11t-11 27q0 18 11 26q11 11 28 11q16 0 27 -11q12 -9 12 -26q0 -15 -12 -27z" unicode="·" glyph-name="middot"/>
<glyph horiz-adv-x="600" d="M263 -202h-41l53 152h45z" unicode="¸" glyph-name="cedilla"/>
<glyph horiz-adv-x="279" d="M251 348v-33h-227v33h101v287l-94 -29l-9 33l128 41h11v-332h90z" unicode="¹" glyph-name="onesuperior"/>
<glyph horiz-adv-x="448" d="M361 525q0 60 -38.5 98t-98.5 38t-98.5 -38t-38.5 -98q0 -62 38.5 -100t98.5 -38t98.5 38t38.5 100zM400 525q0 -76 -50 -126q-50 -48 -126 -48t-126 48q-50 50 -50 126q0 77 49 123q50 47 127 47q76 0 126 -47t50 -123z" unicode="º" glyph-name="ordmasculine"/>
<glyph horiz-adv-x="527" d="M258 415l27 23l185 -192l-185 -192l-27 25l156 168zM75 415l27 23l185 -192l-185 -192l-27 25l157 168z" unicode="»" glyph-name="guillemotright"/>
<glyph horiz-adv-x="849" d="M695 320l-184 -204h184v204zM791 116v-32h-59v-84h-37v84h-234v26l233 255h38v-249h59zM677 680l-448 -680h-34l448 680h34zM67 315v33h101v287l-94 -29l-9 33l128 41h11v-332h90v-33h-227z" unicode="¼" glyph-name="onequarter"/>
<glyph horiz-adv-x="875" d="M795 33v-33h-265v25l137 119q42 35 61 60.5t19 53.5q0 38 -26 59t-71 21q-54 0 -111 -28l-11 31q59 32 127 32q61 0 96 -30.5t35 -79.5q0 -50 -49 -101q-17 -18 -50 -47l-96 -82h204zM659 680l-448 -680h-34l448 680h34zM67 315v33h101v287l-94 -29l-9 33l128 41h11v-332 h90v-33h-227z" unicode="½" glyph-name="onehalf"/>
<glyph horiz-adv-x="923" d="M547 116h185v204zM769 116h59v-32h-59v-84h-37v84h-234v26l233 255h38v-249zM274 0h-34l449 680h34zM353 656l-132 -137h11q63 -1 98.5 -27.5t35.5 -72.5q0 -50 -40 -81t-104 -31q-74 0 -135 31l13 29q64 -27 123 -27q45 0 76.5 22t31.5 55q0 70 -107 70h-56v18l133 141 h-194v34h246v-24z" unicode="¾" glyph-name="threequarters"/>
<glyph horiz-adv-x="494" d="M291 -190q-106 0 -173 56q-65 56 -65 148q0 95 62 154q64 59 164 59h29l-4 110h41l10 -149h-70q-85 0 -136 -48t-51 -127q0 -73 53 -117.5t140 -44.5q78 0 154 19l9 -39q-81 -21 -163 -21zM347 454q-13 -10 -26 -10t-26 10q-11 8 -11 25t11 25q11 12 24 12 q15 0 27.5 -12.5t12.5 -26.5q0 -13 -12 -23z" unicode="¿" glyph-name="questiondown"/>
<glyph horiz-adv-x="751" d="M376 627l-182 -405h362zM176 180l-80 -180h-52l309 685h46l309 -685h-52l-81 180h-399zM397 742h-45l-105 156h61z" unicode="À" glyph-name="Agrave"/>
<glyph horiz-adv-x="751" d="M376 627l-182 -405h362zM176 180l-80 -180h-52l309 685h46l309 -685h-52l-81 180h-399zM508 898l-105 -156h-47l91 156h61z" unicode="Á" glyph-name="Aacute"/>
<glyph horiz-adv-x="751" d="M376 627l-182 -405h362zM176 180l-80 -180h-52l309 685h46l309 -685h-52l-81 180h-399zM376 862l-105 -120h-47l130 156h44l130 -156h-47z" unicode="Â" glyph-name="Acircumflex"/>
<glyph horiz-adv-x="751" d="M376 627l-182 -405h362zM176 180l-80 -180h-52l309 685h46l309 -685h-52l-81 180h-399zM485 834h36q0 -41 -22 -62t-54 -21q-28 0 -48 14l-58 39q-14 11 -30 11q-11 0 -19 -4q-26 -11 -26 -44h-36q0 41 23 62t55 21q26 0 47 -13l57 -40q16 -11 31 -11q10 0 18 4 q26 11 26 44z" unicode="Ã" glyph-name="Atilde"/>
<glyph horiz-adv-x="751" d="M376 627l-182 -405h362zM176 180l-80 -180h-52l309 685h46l309 -685h-52l-81 180h-399zM444 819q-1 16 10 25t26 9t25.5 -9t9.5 -25q1 -15 -9.5 -24t-25.5 -9t-26 9t-10 24zM272 853q14 0 24.5 -9t10.5 -25v-3q0 -14 -10.5 -22t-24.5 -8t-24.5 8t-10.5 22q0 17 10 27 t25 10z" unicode="Ä" glyph-name="Adieresis"/>
<glyph horiz-adv-x="751" d="M376 627l-182 -405h362zM176 180l-80 -180h-52l309 685h46l309 -685h-52l-81 180h-399zM316 813q0 -25 17.5 -39t41.5 -14t42 14t18 40v3q0 26 -17.5 43t-42.5 17q-26 0 -42.5 -17.5t-16.5 -46.5zM375 906q39 0 64.5 -25t25.5 -64q0 -38 -26 -63t-64 -25t-64 25t-26 63 q0 39 25.5 64t64.5 25z" unicode="Å" glyph-name="Aring"/>
<glyph horiz-adv-x="1112" d="M575 625l-306 -403h306v403zM622 361h375v-42h-375v-276h416v-43h-463v179h-338l-136 -179h-57l518 680h476v-43h-416v-276z" unicode="Æ" glyph-name="AE"/>
<glyph horiz-adv-x="763" d="M383 -202h-41l53 152h45zM673 660l-9 -42q-118 33 -216 33q-153 0 -241 -85t-88 -226t86 -227q86 -85 232 -85q111 0 246 39l9 -39q-130 -43 -256 -43q-167 0 -267 97q-99 98 -99 258t101 258q100 97 273 97q112 0 229 -35z" unicode="Ç" glyph-name="Ccedilla"/>
<glyph horiz-adv-x="644" d="M153 361h376v-42h-376v-276h416v-43h-462v680h462v-43h-416v-276zM358 742h-45l-105 156h61z" unicode="È" glyph-name="Egrave"/>
<glyph horiz-adv-x="644" d="M153 361h376v-42h-376v-276h416v-43h-462v680h462v-43h-416v-276zM468 898l-105 -156h-47l91 156h61z" unicode="É" glyph-name="Eacute"/>
<glyph horiz-adv-x="644" d="M153 361h376v-42h-376v-276h416v-43h-462v680h462v-43h-416v-276zM336 862l-105 -120h-47l130 156h44l130 -156h-47z" unicode="Ê" glyph-name="Ecircumflex"/>
<glyph horiz-adv-x="644" d="M153 361h376v-42h-376v-276h416v-43h-462v680h462v-43h-416v-276zM404 819q-1 16 10 25t26 9t25.5 -9t9.5 -25q1 -15 -9.5 -24t-25.5 -9t-26 9t-10 24zM232 853q14 0 24.5 -9t10.5 -25v-3q0 -14 -10.5 -22t-24.5 -8t-24.5 8t-10.5 22q0 17 10 27t25 10z" unicode="Ë" glyph-name="Edieresis"/>
<glyph horiz-adv-x="261" d="M152 742h-45l-105 156h61zM153 680v-680h-46v680h46z" unicode="Ì" glyph-name="Igrave"/>
<glyph horiz-adv-x="261" d="M153 680v-680h-46v680h46zM263 898l-105 -156h-47l91 156h61z" unicode="Í" glyph-name="Iacute"/>
<glyph horiz-adv-x="261" d="M153 680v-680h-46v680h46zM131 862l-105 -120h-47l130 156h44l130 -156h-47z" unicode="Î" glyph-name="Icircumflex"/>
<glyph horiz-adv-x="261" d="M153 680v-680h-46v680h46zM199 819q-1 16 10 25t26 9t25.5 -9t9.5 -25q1 -15 -9.5 -24t-25.5 -9t-26 9t-10 24zM-9 819q-1 16 10 25t26 9t25.5 -9t9.5 -25q1 -15 -9.5 -24t-25.5 -9t-26 9t-10 24z" unicode="Ï" glyph-name="Idieresis"/>
<glyph horiz-adv-x="756" d="M335 37q137 0 219 82q83 83 83 226q0 139 -84 219q-83 81 -222 81q-63 0 -177 -6v-279h201v-43h-201v-276q105 -4 181 -4zM330 687q160 0 258 -92q97 -91 97 -250q0 -163 -97 -257q-95 -94 -253 -94q-36 0 -228 6v317h-70v43h70v320q139 7 223 7z" unicode="Ð" glyph-name="Eth"/>
<glyph horiz-adv-x="781" d="M673 680v-680h-49l-471 608v-608h-46v680h48l472 -609v609h46zM497 834h36q0 -41 -22 -62t-54 -21q-28 0 -48 14l-58 39q-14 11 -30 11q-11 0 -19 -4q-26 -11 -26 -44h-36q0 41 23 62t55 21q26 0 47 -13l57 -40q16 -11 31 -11q10 0 18 4q26 11 26 44z" unicode="Ñ" glyph-name="Ntilde"/>
<glyph horiz-adv-x="851" d="M204 114q86 -86 222 -86q137 0 221 86q85 85 85 226t-85 226q-84 86 -221 86q-136 0 -222 -86q-85 -85 -85 -226t85 -226zM168 597q98 98 257 98t257 -98q99 -97 99 -257q0 -159 -99 -257q-98 -98 -257 -98q-160 0 -257 97q-98 98 -98 258q0 159 98 257zM447 742h-45 l-105 156h61z" unicode="Ò" glyph-name="Ograve"/>
<glyph horiz-adv-x="851" d="M204 114q86 -86 222 -86q137 0 221 86q85 85 85 226t-85 226q-84 86 -221 86q-136 0 -222 -86q-85 -85 -85 -226t85 -226zM168 597q98 98 257 98t257 -98q99 -97 99 -257q0 -159 -99 -257q-98 -98 -257 -98q-160 0 -257 97q-98 98 -98 258q0 159 98 257zM558 898 l-105 -156h-47l91 156h61z" unicode="Ó" glyph-name="Oacute"/>
<glyph horiz-adv-x="851" d="M204 114q86 -86 222 -86q137 0 221 86q85 85 85 226t-85 226q-84 86 -221 86q-136 0 -222 -86q-85 -85 -85 -226t85 -226zM168 597q98 98 257 98t257 -98q99 -97 99 -257q0 -159 -99 -257q-98 -98 -257 -98q-160 0 -257 97q-98 98 -98 258q0 159 98 257zM426 862 l-105 -120h-47l130 156h44l130 -156h-47z" unicode="Ô" glyph-name="Ocircumflex"/>
<glyph horiz-adv-x="851" d="M204 114q86 -86 222 -86q137 0 221 86q85 85 85 226t-85 226q-84 86 -221 86q-136 0 -222 -86q-85 -85 -85 -226t85 -226zM168 597q98 98 257 98t257 -98q99 -97 99 -257q0 -159 -99 -257q-98 -98 -257 -98q-160 0 -257 97q-98 98 -98 258q0 159 98 257zM535 834h35 q0 -41 -22 -62t-54 -21q-28 0 -48 14l-58 39q-14 11 -29 11q-11 0 -20 -4q-26 -11 -26 -44h-36q0 41 23 62t55 21q26 0 47 -13l57 -40q16 -11 32 -11q10 0 18 4q26 11 26 44z" unicode="Õ" glyph-name="Otilde"/>
<glyph horiz-adv-x="851" d="M204 114q86 -86 222 -86q137 0 221 86q85 85 85 226t-85 226q-84 86 -221 86q-136 0 -222 -86q-85 -85 -85 -226t85 -226zM168 597q98 98 257 98t257 -98q99 -97 99 -257q0 -159 -99 -257q-98 -98 -257 -98q-160 0 -257 97q-98 98 -98 258q0 159 98 257zM494 819 q-1 16 10 25t26 9t25.5 -9t9.5 -25q1 -15 -9.5 -24t-25.5 -9t-26 9t-10 24zM322 853q14 0 24.5 -9t10.5 -25v-3q0 -14 -10.5 -22t-24.5 -8t-24.5 8t-10.5 22q0 17 10 27t25 10z" unicode="Ö" glyph-name="Odieresis"/>
<glyph horiz-adv-x="657" d="M522 153l-30 -30l-164 164l-164 -164l-30 30l164 164l-164 164l30 30l164 -164l164 164l30 -30l-163 -164z" unicode="×" glyph-name="multiply"/>
<glyph horiz-adv-x="851" d="M426 28q137 0 221 86q85 85 85 226t-87 228l-409 -482q79 -58 190 -58zM204 113l409 482q-77 57 -187 57q-136 0 -222 -86q-85 -85 -85 -226t85 -227zM728 665l-52 -61q105 -100 105 -264q0 -159 -99 -257q-98 -98 -257 -98q-128 0 -219 65l-54 -63l-32 27l54 63 q-104 99 -104 263q0 159 98 257t257 98q127 0 218 -64l53 62z" unicode="Ø" glyph-name="Oslash"/>
<glyph horiz-adv-x="765" d="M667 680v-415q0 -127 -78 -204q-77 -76 -207 -76t-207 76q-78 77 -78 204v415h46v-415q0 -108 65 -173q65 -64 174 -64t173 64q65 65 65 173v415h47zM404 742h-45l-105 156h61z" unicode="Ù" glyph-name="Ugrave"/>
<glyph horiz-adv-x="765" d="M667 680v-415q0 -127 -78 -204q-77 -76 -207 -76t-207 76q-78 77 -78 204v415h46v-415q0 -108 65 -173q65 -64 174 -64t173 64q65 65 65 173v415h47zM515 898l-105 -156h-47l91 156h61z" unicode="Ú" glyph-name="Uacute"/>
<glyph horiz-adv-x="765" d="M667 680v-415q0 -127 -78 -204q-77 -76 -207 -76t-207 76q-78 77 -78 204v415h46v-415q0 -108 65 -173q65 -64 174 -64t173 64q65 65 65 173v415h47zM382 862l-105 -120h-47l130 156h44l130 -156h-47z" unicode="Û" glyph-name="Ucircumflex"/>
<glyph horiz-adv-x="765" d="M667 680v-415q0 -127 -78 -204q-77 -76 -207 -76t-207 76q-78 77 -78 204v415h46v-415q0 -108 65 -173q65 -64 174 -64t173 64q65 65 65 173v415h47zM450 819q-1 16 10 25t26 9t25.5 -9t9.5 -25q1 -15 -9.5 -24t-25.5 -9t-26 9t-10 24zM278 853q14 0 24.5 -9t10.5 -25v-3 q0 -14 -10.5 -22t-24.5 -8t-24.5 8t-10.5 22q0 17 10 27t25 10z" unicode="Ü" glyph-name="Udieresis"/>
<glyph horiz-adv-x="677" d="M315 250l-287 430h53l258 -383l257 383h53l-287 -430v-250h-47v250zM471 898l-105 -156h-47l91 156h61z" unicode="Ý" glyph-name="Yacute"/>
<glyph horiz-adv-x="638" d="M154 169h181q94 0 152 49t58 130q0 87 -56.5 135t-153.5 48q-86 0 -181 -5v-357zM332 574q118 0 189 -60q71 -59 71 -166q0 -98 -72 -160q-71 -61 -188 -61h-178v-127h-46v680h46v-111q125 5 178 5z" unicode="Þ" glyph-name="Thorn"/>
<glyph horiz-adv-x="644" d="M255 754v-41q-58 0 -83 -31t-25 -102v-124h429v-30l-222 -243l39 -1q96 -3 152.5 -53t56.5 -134q0 -93 -68 -149q-68 -57 -177 -57q-68 0 -142 20l9 38q76 -18 134 -18q89 0 144 46q56 45 56 119q0 68 -49 108.5t-130 40.5h-91v22l225 249h-366v-414h-45v583 q0 90 36 130.5t117 40.5z" unicode="ß" glyph-name="germandbls"/>
<glyph horiz-adv-x="607" d="M296 431q-89 0 -140 -54.5t-51 -147.5q0 -92 51 -149q53 -56 138 -56q83 0 179 60v331q-81 16 -177 16zM293 471q110 0 225 -25v-446h-44v43q-94 -58 -183 -58q-104 0 -168 67q-63 68 -63 178q0 109 63 175q65 66 170 66zM355 576h-45l-105 158h61z" unicode="à" glyph-name="agrave"/>
<glyph horiz-adv-x="607" d="M296 431q-89 0 -140 -54.5t-51 -147.5q0 -92 51 -149q53 -56 138 -56q83 0 179 60v331q-81 16 -177 16zM293 471q110 0 225 -25v-446h-44v43q-94 -58 -183 -58q-104 0 -168 67q-63 68 -63 178q0 109 63 175q65 66 170 66zM428 734l-105 -158h-45l89 158h61z" unicode="á" glyph-name="aacute"/>
<glyph horiz-adv-x="607" d="M296 431q-89 0 -140 -54.5t-51 -147.5q0 -92 51 -149q53 -56 138 -56q83 0 179 60v331q-81 16 -177 16zM293 471q110 0 225 -25v-446h-44v43q-94 -58 -183 -58q-104 0 -168 67q-63 68 -63 178q0 109 63 175q65 66 170 66zM315 687l-105 -118h-47l130 155h44l130 -155h-47 z" unicode="â" glyph-name="acircumflex"/>
<glyph horiz-adv-x="607" d="M296 431q-89 0 -140 -54.5t-51 -147.5q0 -92 51 -149q53 -56 138 -56q83 0 179 60v331q-81 16 -177 16zM293 471q110 0 225 -25v-446h-44v43q-94 -58 -183 -58q-104 0 -168 67q-63 68 -63 178q0 109 63 175q65 66 170 66zM424 667h36q0 -41 -22 -62t-54 -21q-26 0 -48 14 l-58 40q-13 10 -29 10q-11 0 -20 -4q-26 -11 -26 -43h-36q0 37 20.5 59.5t47.5 22.5h5q29 -2 52 -13l57 -39q16 -11 32 -11q18 0 30.5 12.5t12.5 34.5z" unicode="ã" glyph-name="atilde"/>
<glyph horiz-adv-x="607" d="M296 431q-89 0 -140 -54.5t-51 -147.5q0 -92 51 -149q53 -56 138 -56q83 0 179 60v331q-81 16 -177 16zM293 471q110 0 225 -25v-446h-44v43q-94 -58 -183 -58q-104 0 -168 67q-63 68 -63 178q0 109 63 175q65 66 170 66zM455 629q1 -16 -10 -25t-26 -9t-25.5 9t-9.5 25 q-1 15 9.5 24t25.5 9t26 -9t10 -24zM247 629q1 -16 -10 -25t-26 -9t-25.5 9t-9.5 25q-1 15 9.5 24t25.5 9t26 -9t10 -24z" unicode="ä" glyph-name="adieresis"/>
<glyph horiz-adv-x="607" d="M296 431q-89 0 -140 -54.5t-51 -147.5q0 -92 51 -149q53 -56 138 -56q83 0 179 60v331q-81 16 -177 16zM293 471q110 0 225 -25v-446h-44v43q-94 -58 -183 -58q-104 0 -168 67q-63 68 -63 178q0 109 63 175q65 66 170 66zM256 643q0 -26 17 -42.5t42 -16.5t42.5 16.5 t17.5 42.5t-17.5 43t-42.5 17t-42 -16.5t-17 -43.5zM315 731q39 0 64.5 -24.5t25.5 -63.5t-25.5 -63.5t-64.5 -24.5q-38 0 -64 25t-26 63q0 39 25.5 63.5t64.5 24.5z" unicode="å" glyph-name="aring"/>
<glyph horiz-adv-x="905" d="M90 130q0 -107 161 -107q82 0 196 42q-48 57 -53 143l-147 1h-6q-151 0 -151 -79zM629 433q-81 0 -132.5 -50.5t-56.5 -134.5h363q0 86 -47.5 135.5t-126.5 49.5zM845 247q0 -1 -0.5 -5.5t-1 -13t-0.5 -17.5h-403q5 -84 57.5 -134.5t136.5 -50.5q55 0 170 26l8 -36 q-96 -31 -179 -31q-96 0 -158 52q-125 -52 -231 -52q-197 0 -197 146q0 118 197 118h5l144 -2v47q0 137 -108 137q-89 0 -181 -15l-5 38q99 18 187 18q116 0 142 -107q63 106 200 106q99 0 157 -61q60 -60 60 -163z" unicode="æ" glyph-name="ae"/>
<glyph horiz-adv-x="536" d="M254 -202h-41l53 152h45zM469 447l-8 -36q-81 22 -147 22q-92 0 -151 -56q-57 -55 -57 -148q0 -92 56 -148t145 -56q65 0 166 27l8 -38q-96 -29 -174 -29q-111 0 -179 67q-68 68 -68 177q0 111 70 177t184 66q80 0 155 -25z" unicode="ç" glyph-name="ccedilla"/>
<glyph horiz-adv-x="571" d="M296 433q-83 0 -133.5 -50t-55.5 -135h363q-1 86 -48 135.5t-126 49.5zM296 471q97 0 156 -60.5t60 -162.5q0 -3 -0.5 -7.5t-1 -13.5t-0.5 -16h-402q5 -84 57 -134.5t136 -50.5q62 0 171 26l7 -36q-96 -31 -179 -31q-111 0 -175 67q-65 68 -65 178q0 107 65 174 q66 67 171 67zM350 576h-45l-105 158h61z" unicode="è" glyph-name="egrave"/>
<glyph horiz-adv-x="571" d="M296 433q-83 0 -133.5 -50t-55.5 -135h363q-1 86 -48 135.5t-126 49.5zM296 471q97 0 156 -60.5t60 -162.5q0 -3 -0.5 -7.5t-1 -13.5t-0.5 -16h-402q5 -84 57 -134.5t136 -50.5q62 0 171 26l7 -36q-96 -31 -179 -31q-111 0 -175 67q-65 68 -65 178q0 107 65 174 q66 67 171 67zM423 734l-105 -158h-45l89 158h61z" unicode="é" glyph-name="eacute"/>
<glyph horiz-adv-x="571" d="M296 433q-83 0 -133.5 -50t-55.5 -135h363q-1 86 -48 135.5t-126 49.5zM296 471q97 0 156 -60.5t60 -162.5q0 -3 -0.5 -7.5t-1 -13.5t-0.5 -16h-402q5 -84 57 -134.5t136 -50.5q62 0 171 26l7 -36q-96 -31 -179 -31q-111 0 -175 67q-65 68 -65 178q0 107 65 174 q66 67 171 67zM311 687l-105 -118h-47l130 155h44l130 -155h-47z" unicode="ê" glyph-name="ecircumflex"/>
<glyph horiz-adv-x="571" d="M296 433q-83 0 -133.5 -50t-55.5 -135h363q-1 86 -48 135.5t-126 49.5zM296 471q97 0 156 -60.5t60 -162.5q0 -3 -0.5 -7.5t-1 -13.5t-0.5 -16h-402q5 -84 57 -134.5t136 -50.5q62 0 171 26l7 -36q-96 -31 -179 -31q-111 0 -175 67q-65 68 -65 178q0 107 65 174 q66 67 171 67zM451 629q1 -16 -10 -25t-26 -9t-25.5 9t-9.5 25q-1 15 9.5 24t25.5 9t26 -9t10 -24zM243 629q1 -16 -10 -25t-26 -9t-25.5 9t-9.5 25q-1 15 9.5 24t25.5 9t26 -9t10 -24z" unicode="ë" glyph-name="edieresis"/>
<glyph horiz-adv-x="245" d="M145 456v-456h-45v456h45zM139 576h-45l-105 158h61z" unicode="ì" glyph-name="igrave"/>
<glyph horiz-adv-x="245" d="M145 456v-456h-45v456h45zM251 734l-105 -158h-44l88 158h61z" unicode="í" glyph-name="iacute"/>
<glyph horiz-adv-x="245" d="M145 456v-456h-45v456h45zM123 687l-105 -118h-47l130 155h44l130 -155h-47z" unicode="î" glyph-name="icircumflex"/>
<glyph horiz-adv-x="245" d="M145 456v-456h-45v456h45zM263 629q1 -16 -10 -25t-26 -9t-25.5 9t-9.5 25q-1 15 9.5 24t25.5 9t26 -9t10 -24zM55 629q1 -16 -10 -25t-26 -9t-25.5 9t-9.5 25q-1 15 9.5 24t25.5 9t26 -9t10 -24z" unicode="ï" glyph-name="idieresis"/>
<glyph horiz-adv-x="613" d="M307 431q-87 0 -145 -56q-56 -56 -56 -145q0 -90 56 -148q58 -56 145 -56q95 0 147.5 56t52.5 156q0 88 -56 141q-55 52 -144 52zM192 690l50 19q69 -23 123 -63l81 30l11 -31l-62 -24q75 -64 116.5 -162.5t41.5 -216.5q0 -123 -64.5 -190.5t-181.5 -67.5q-107 0 -178 68 q-69 69 -69 178q0 107 68 175q68 67 174 67q65 0 114.5 -27t75.5 -75q-36 152 -140 236l-166 -62l-12 31l146 54q-59 42 -128 61z" unicode="ð" glyph-name="eth"/>
<glyph d="M337 471q87 0 135.5 -50t48.5 -141v-280h-45v272q0 75 -38.5 116.5t-106.5 41.5q-96 0 -192 -17v-413h-45v446q104 25 243 25zM412 667h36q0 -41 -22 -62t-54 -21q-26 0 -48 14l-58 40q-13 10 -29 10q-11 0 -20 -4q-26 -11 -26 -43h-36q0 37 20.5 59.5t47.5 22.5h5 q29 -2 52 -13l57 -39q16 -11 32 -11q18 0 30.5 12.5t12.5 34.5z" unicode="ñ" glyph-name="ntilde"/>
<glyph horiz-adv-x="613" d="M307 26q88 0 144 56q56 58 56 148q0 89 -56 145t-144 56q-89 0 -145 -56t-56 -145q0 -90 56 -148q56 -56 145 -56zM554 230q0 -110 -69 -178q-70 -68 -178 -68t-178 68q-69 68 -69 178q0 109 69 175q68 67 178 67t178 -67q69 -66 69 -175zM346 576h-45l-105 158h61z" unicode="ò" glyph-name="ograve"/>
<glyph horiz-adv-x="613" d="M307 26q88 0 144 56q56 58 56 148q0 89 -56 145t-144 56q-89 0 -145 -56t-56 -145q0 -90 56 -148q56 -56 145 -56zM554 230q0 -110 -69 -178q-70 -68 -178 -68t-178 68q-69 68 -69 178q0 109 69 175q68 67 178 67t178 -67q69 -66 69 -175zM419 734l-105 -158h-45l89 158 h61z" unicode="ó" glyph-name="oacute"/>
<glyph horiz-adv-x="613" d="M307 26q88 0 144 56q56 58 56 148q0 89 -56 145t-144 56q-89 0 -145 -56t-56 -145q0 -90 56 -148q56 -56 145 -56zM554 230q0 -110 -69 -178q-70 -68 -178 -68t-178 68q-69 68 -69 178q0 109 69 175q68 67 178 67t178 -67q69 -66 69 -175zM306 687l-105 -118h-47l130 155 h44l130 -155h-47z" unicode="ô" glyph-name="ocircumflex"/>
<glyph horiz-adv-x="613" d="M307 26q88 0 144 56q56 58 56 148q0 89 -56 145t-144 56q-89 0 -145 -56t-56 -145q0 -90 56 -148q56 -56 145 -56zM554 230q0 -110 -69 -178q-70 -68 -178 -68t-178 68q-69 68 -69 178q0 109 69 175q68 67 178 67t178 -67q69 -66 69 -175zM415 667h36q0 -41 -22 -62 t-54 -21q-26 0 -48 14l-58 40q-13 10 -29 10q-11 0 -20 -4q-26 -11 -26 -43h-36q0 37 20.5 59.5t47.5 22.5h5q29 -2 52 -13l57 -39q16 -11 32 -11q18 0 30.5 12.5t12.5 34.5z" unicode="õ" glyph-name="otilde"/>
<glyph horiz-adv-x="613" d="M307 26q88 0 144 56q56 58 56 148q0 89 -56 145t-144 56q-89 0 -145 -56t-56 -145q0 -90 56 -148q56 -56 145 -56zM554 230q0 -110 -69 -178q-70 -68 -178 -68t-178 68q-69 68 -69 178q0 109 69 175q68 67 178 67t178 -67q69 -66 69 -175zM447 629q1 -16 -10 -25t-26 -9 t-25.5 9t-9.5 25q-1 15 9.5 24t25.5 9t26 -9t10 -24zM239 629q1 -16 -10 -25t-26 -9t-25.5 9t-9.5 25q-1 15 9.5 24t25.5 9t26 -9t10 -24z" unicode="ö" glyph-name="odieresis"/>
<glyph horiz-adv-x="698" d="M373 112q-10 -10 -23 -10q-14 0 -24.5 11t-10.5 24t10 23t23 10q14 0 24.5 -11t10.5 -24t-10 -23zM124 340h450v-42h-450v42zM315 502q0 16 10 24.5t24 8.5t24 -8.5t10 -24.5q0 -15 -10 -23.5t-24 -8.5t-24 8.5t-10 23.5z" unicode="÷" glyph-name="divide"/>
<glyph horiz-adv-x="613" d="M307 26q88 0 144 56q56 58 56 148t-56 146l-264 -314q49 -36 120 -36zM106 230q0 -86 53 -145l263 314q-47 32 -115 32q-89 0 -145 -56t-56 -145zM540 483l-61 -72q75 -69 75 -181q0 -110 -69 -178q-70 -68 -178 -68q-84 0 -149 44l-69 -83l-27 24l69 82q-71 68 -71 179 q0 109 69 175q68 67 178 67q83 0 144 -39l62 74z" unicode="ø" glyph-name="oslash"/>
<glyph d="M513 456v-446q-104 -25 -244 -25q-88 0 -135.5 49.5t-47.5 141.5v280h45v-273q0 -77 37 -117.5t107 -40.5q101 0 193 16v415h45zM342 576h-45l-105 158h61z" unicode="ù" glyph-name="ugrave"/>
<glyph d="M513 456v-446q-104 -25 -244 -25q-88 0 -135.5 49.5t-47.5 141.5v280h45v-273q0 -77 37 -117.5t107 -40.5q101 0 193 16v415h45zM416 734l-105 -158h-45l89 158h61z" unicode="ú" glyph-name="uacute"/>
<glyph d="M513 456v-446q-104 -25 -244 -25q-88 0 -135.5 49.5t-47.5 141.5v280h45v-273q0 -77 37 -117.5t107 -40.5q101 0 193 16v415h45zM303 687l-105 -118h-47l130 155h44l130 -155h-47z" unicode="û" glyph-name="ucircumflex"/>
<glyph d="M513 456v-446q-104 -25 -244 -25q-88 0 -135.5 49.5t-47.5 141.5v280h45v-273q0 -77 37 -117.5t107 -40.5q101 0 193 16v415h45zM443 629q1 -16 -10 -25t-26 -9t-25.5 9t-9.5 25q-1 15 9.5 24t25.5 9t26 -9t10 -24zM235 629q1 -16 -10 -25t-26 -9t-25.5 9t-9.5 25 q-1 15 9.5 24t25.5 9t26 -9t10 -24z" unicode="ü" glyph-name="udieresis"/>
<glyph horiz-adv-x="604" d="M564 456l-355 -679h-51l126 241l-241 438h51l214 -391l205 391h51zM310 576h-45l89 158h61z" unicode="ý" glyph-name="yacute"/>
<glyph horiz-adv-x="614" d="M318 24q86 0 137 56q52 56 52 149t-51 147.5t-140 54.5q-96 0 -177 -16v-374q85 -17 179 -17zM320 471q106 0 169 -66q62 -65 64 -175q0 -111 -64 -178q-63 -67 -167 -67q-98 0 -183 17v-225h-44v933h44v-256q88 17 181 17z" unicode="þ" glyph-name="thorn"/>
<glyph horiz-adv-x="751" d="M376 627l-182 -405h362zM176 180l-80 -180h-52l309 685h46l309 -685h-52l-81 180h-399zM514 822v-36h-276v36h276z" unicode="Ā" glyph-name="Amacron"/>
<glyph horiz-adv-x="607" d="M296 431q-89 0 -140 -54.5t-51 -147.5q0 -92 51 -149q53 -56 138 -56q83 0 179 60v331q-81 16 -177 16zM293 471q110 0 225 -25v-446h-44v43q-94 -58 -183 -58q-104 0 -168 67q-63 68 -63 178q0 109 63 175q65 66 170 66zM448 670v-36h-267v36h267z" unicode="ā" glyph-name="amacron"/>
<glyph horiz-adv-x="751" d="M376 627l-182 -405h362zM176 180l-80 -180h-52l309 685h46l309 -685h-52l-81 180h-399zM477 888h39q0 -62 -38.5 -100t-101.5 -38t-101.5 38t-38.5 100h39q0 -46 28 -73.5t73 -27.5q46 0 73.5 27.5t27.5 73.5z" unicode="Ă" glyph-name="Abreve"/>
<glyph horiz-adv-x="607" d="M296 431q-89 0 -140 -54.5t-51 -147.5q0 -92 51 -149q53 -56 138 -56q83 0 179 60v331q-81 16 -177 16zM293 471q110 0 225 -25v-446h-44v43q-94 -58 -183 -58q-104 0 -168 67q-63 68 -63 178q0 109 63 175q65 66 170 66zM416 706h39q0 -63 -38.5 -101t-101.5 -38 t-101.5 38t-38.5 101h39q0 -47 28 -74.5t73 -27.5q46 0 73.5 27.5t27.5 74.5z" unicode="ă" glyph-name="abreve"/>
<glyph horiz-adv-x="751" d="M556 222l-180 405l-182 -405h362zM721 -158l4 -37q-18 -5 -41 -5q-55 0 -88.5 27.5t-33.5 72.5q0 68 90 109l-77 171h-399l-80 -180h-52l309 685h46l309 -685h-22q-42 -20 -62.5 -41.5t-20.5 -52.5q0 -30 23.5 -48.5t63.5 -18.5q16 0 31 3z" unicode="Ą" glyph-name="Aogonek"/>
<glyph horiz-adv-x="607" d="M473 84v331q-81 16 -177 16q-89 0 -140 -54.5t-51 -147.5q0 -92 51 -149q53 -56 138 -56q83 0 179 60zM539 -162l4 -37q-18 -5 -41 -5q-55 0 -88.5 27.5t-33.5 72.5q0 71 94 111v36q-94 -58 -183 -58q-104 0 -168 67q-63 68 -63 178q0 109 63 175q65 66 170 66 q110 0 225 -25v-446h-5q-47 -22 -69.5 -44t-22.5 -54q0 -30 23.5 -48.5t63.5 -18.5q16 0 31 3z" unicode="ą" glyph-name="aogonek"/>
<glyph horiz-adv-x="763" d="M673 660l-9 -42q-118 33 -216 33q-153 0 -241 -85t-88 -226t86 -227q86 -85 232 -85q111 0 246 39l9 -39q-130 -43 -256 -43q-167 0 -267 97q-99 98 -99 258t101 258q100 97 273 97q112 0 229 -35zM571 898l-105 -156h-47l91 156h61z" unicode="Ć" glyph-name="Cacute"/>
<glyph horiz-adv-x="536" d="M469 447l-8 -36q-81 22 -147 22q-92 0 -151 -56q-57 -55 -57 -148q0 -92 56 -148t145 -56q65 0 166 27l8 -38q-96 -29 -174 -29q-111 0 -179 67q-68 68 -68 177q0 111 70 177t184 66q80 0 155 -25zM409 734l-105 -158h-45l89 158h61z" unicode="ć" glyph-name="cacute"/>
<glyph horiz-adv-x="763" d="M673 660l-9 -42q-118 33 -216 33q-153 0 -241 -85t-88 -226t86 -227q86 -85 232 -85q111 0 246 39l9 -39q-130 -43 -256 -43q-167 0 -267 97q-99 98 -99 258t101 258q100 97 273 97q112 0 229 -35zM439 853q14 0 24.5 -9t10.5 -25v-3q0 -14 -10 -22t-25 -8t-25 8t-10 22 q0 17 10 27t25 10z" unicode="Ċ" glyph-name="Cdotaccent"/>
<glyph horiz-adv-x="536" d="M469 447l-8 -36q-81 22 -147 22q-92 0 -151 -56q-57 -55 -57 -148q0 -92 56 -148t145 -56q65 0 166 27l8 -38q-96 -29 -174 -29q-111 0 -179 67q-68 68 -68 177q0 111 70 177t184 66q80 0 155 -25zM262 632q0 14 10 22t25 8t25 -8t10 -22v-3q0 -16 -10.5 -25t-24.5 -9 q-15 0 -25 10t-10 27z" unicode="ċ" glyph-name="cdotaccent"/>
<glyph horiz-adv-x="763" d="M673 660l-9 -42q-118 33 -216 33q-153 0 -241 -85t-88 -226t86 -227q86 -85 232 -85q111 0 246 39l9 -39q-130 -43 -256 -43q-167 0 -267 97q-99 98 -99 258t101 258q100 97 273 97q112 0 229 -35zM461 739h-44l-130 158h48l104 -123l103 123h49z" unicode="Č" glyph-name="Ccaron"/>
<glyph horiz-adv-x="536" d="M469 447l-8 -36q-81 22 -147 22q-92 0 -151 -56q-57 -55 -57 -148q0 -92 56 -148t145 -56q65 0 166 27l8 -38q-96 -29 -174 -29q-111 0 -179 67q-68 68 -68 177q0 111 70 177t184 66q80 0 155 -25zM319 568h-44l-130 158h48l104 -124l103 124h49z" unicode="č" glyph-name="ccaron"/>
<glyph horiz-adv-x="756" d="M335 37q137 0 219 82q83 83 83 226q0 139 -84 219q-83 81 -222 81q-63 0 -177 -6v-598q105 -4 181 -4zM330 687q160 0 258 -92q97 -91 97 -250q0 -163 -97 -257q-95 -94 -253 -94q-36 0 -228 6v680q139 7 223 7zM369 739h-44l-130 158h48l104 -123l103 123h49z" unicode="Ď" glyph-name="Dcaron"/>
<glyph horiz-adv-x="612" d="M298 431q-89 0 -141 -55t-52 -146q0 -94 51.5 -150t140.5 -56q86 0 176 17v366q-78 24 -175 24zM637 710l-24 -193h-36l11 193h49zM518 710v-701q-117 -23 -228 -23q-102 0 -167 66q-63 68 -63 178t63 175q63 66 172 66q103 0 178 -25v264h45z" unicode="ď" glyph-name="dcaron"/>
<glyph horiz-adv-x="756" d="M335 37q137 0 219 82q83 83 83 226q0 139 -84 219q-83 81 -222 81q-63 0 -177 -6v-279h201v-43h-201v-276q105 -4 181 -4zM330 687q160 0 258 -92q97 -91 97 -250q0 -163 -97 -257q-95 -94 -253 -94q-36 0 -228 6v317h-70v43h70v320q139 7 223 7z" unicode="Đ" glyph-name="Dcroat"/>
<glyph horiz-adv-x="612" d="M473 41v366q-78 24 -175 24q-89 0 -141 -55t-52 -146q0 -94 51.5 -150t140.5 -56q86 0 176 17zM569 586h-51v-577q-117 -23 -228 -23q-102 0 -167 66q-63 68 -63 178t63 175q63 66 172 66q103 0 178 -25v140h-198v38h198v86h45v-86h51v-38z" unicode="đ" glyph-name="dslash"/>
<glyph horiz-adv-x="644" d="M153 361h376v-42h-376v-276h416v-43h-462v680h462v-43h-416v-276zM474 822v-36h-276v36h276z" unicode="Ē" glyph-name="Emacron"/>
<glyph horiz-adv-x="571" d="M296 433q-83 0 -133.5 -50t-55.5 -135h363q-1 86 -48 135.5t-126 49.5zM296 471q97 0 156 -60.5t60 -162.5q0 -3 -0.5 -7.5t-1 -13.5t-0.5 -16h-402q5 -84 57 -134.5t136 -50.5q62 0 171 26l7 -36q-96 -31 -179 -31q-111 0 -175 67q-65 68 -65 178q0 107 65 174 q66 67 171 67zM444 670v-36h-267v36h267z" unicode="ē" glyph-name="emacron"/>
<glyph horiz-adv-x="644" d="M153 361h376v-42h-376v-276h416v-43h-462v680h462v-43h-416v-276zM336 853q14 0 24.5 -9t10.5 -25v-3q0 -14 -10.5 -22t-24.5 -8t-24.5 8t-10.5 22q0 17 10 27t25 10z" unicode="Ė" glyph-name="Edotaccent"/>
<glyph horiz-adv-x="571" d="M296 433q-83 0 -133.5 -50t-55.5 -135h363q-1 86 -48 135.5t-126 49.5zM296 471q97 0 156 -60.5t60 -162.5q0 -3 -0.5 -7.5t-1 -13.5t-0.5 -16h-402q5 -84 57 -134.5t136 -50.5q62 0 171 26l7 -36q-96 -31 -179 -31q-111 0 -175 67q-65 68 -65 178q0 107 65 174 q66 67 171 67zM276 632q0 14 10 22t25 8t25 -8t10 -22v-3q0 -16 -10.5 -25t-24.5 -9q-15 0 -25 10t-10 27z" unicode="ė" glyph-name="edotaccent"/>
<glyph horiz-adv-x="644" d="M153 637v-276h376v-42h-376v-276h416v-43h-52q-46 -22 -68 -44t-22 -53q0 -30 23.5 -48.5t63.5 -18.5q16 0 31 3l4 -37q-18 -5 -41 -5q-55 0 -88.5 27.5t-33.5 72.5q0 62 77 103h-356v680h462v-43h-416z" unicode="Ę" glyph-name="Eogonek"/>
<glyph horiz-adv-x="571" d="M107 248h363q-1 86 -48 135.5t-126 49.5q-83 0 -133.5 -50t-55.5 -135zM512 248q0 -3 -0.5 -7.5t-1 -13.5t-0.5 -16h-402q5 -84 57 -134.5t136 -50.5q62 0 171 26l7 -36q-17 -5 -60 -17q-47 -22 -69 -44.5t-22 -53.5q0 -30 23.5 -48.5t63.5 -18.5q16 0 31 3l4 -37 q-18 -5 -41 -5q-55 0 -88.5 27.5t-33.5 72.5q0 53 57 92q-34 -2 -44 -2q-111 0 -175 67q-65 68 -65 178q0 107 65 174q66 67 171 67q97 0 156 -60.5t60 -162.5z" unicode="ę" glyph-name="eogonek"/>
<glyph horiz-adv-x="644" d="M153 361h376v-42h-376v-276h416v-43h-462v680h462v-43h-416v-276zM358 739h-44l-130 158h48l104 -123l103 123h49z" unicode="Ě" glyph-name="Ecaron"/>
<glyph horiz-adv-x="571" d="M296 433q-83 0 -133.5 -50t-55.5 -135h363q-1 86 -48 135.5t-126 49.5zM296 471q97 0 156 -60.5t60 -162.5q0 -3 -0.5 -7.5t-1 -13.5t-0.5 -16h-402q5 -84 57 -134.5t136 -50.5q62 0 171 26l7 -36q-96 -31 -179 -31q-111 0 -175 67q-65 68 -65 178q0 107 65 174 q66 67 171 67zM333 568h-44l-130 158h48l104 -124l103 124h49z" unicode="ě" glyph-name="ecaron"/>
<glyph horiz-adv-x="814" d="M739 360v-308q-149 -67 -306 -67q-163 0 -264 98q-99 97 -99 258q0 158 101 256t266 98q122 0 236 -35l-9 -42q-123 33 -225 33q-143 0 -232 -86q-88 -85 -88 -224q0 -140 86 -226t228 -86q131 0 261 50v239h-285v42h330zM533 888h39q0 -62 -38.5 -100t-101.5 -38 t-101.5 38t-38.5 100h39q0 -46 28 -73.5t73 -27.5q46 0 73.5 27.5t27.5 73.5z" unicode="Ğ" glyph-name="Gbreve"/>
<glyph horiz-adv-x="602" d="M296 431q-89 0 -140 -54.5t-51 -147.5q0 -85 52 -140t137 -55q94 0 179 17v364q-81 16 -177 16zM293 471q115 0 225 -25v-436q0 -117 -64.5 -186t-175.5 -69q-94 0 -174 37l10 37q81 -33 163 -33q90 0 143 57.5t54 158.5q-85 -17 -183 -17q-102 0 -167 65q-64 65 -64 170 q0 109 63 175q65 66 170 66zM419 706h39q0 -63 -38.5 -101t-101.5 -38t-101.5 38t-38.5 101h39q0 -47 28 -74.5t73 -27.5q46 0 73.5 27.5t27.5 74.5z" unicode="ğ" glyph-name="gbreve"/>
<glyph horiz-adv-x="814" d="M739 360v-308q-149 -67 -306 -67q-163 0 -264 98q-99 97 -99 258q0 158 101 256t266 98q122 0 236 -35l-9 -42q-123 33 -225 33q-143 0 -232 -86q-88 -85 -88 -224q0 -140 86 -226t228 -86q131 0 261 50v239h-285v42h330zM432 853q14 0 24.5 -9t10.5 -25v-3 q0 -14 -10.5 -22t-24.5 -8t-24.5 8t-10.5 22q0 17 10 27t25 10z" unicode="Ġ" glyph-name="Gdotaccent"/>
<glyph horiz-adv-x="602" d="M296 431q-89 0 -140 -54.5t-51 -147.5q0 -85 52 -140t137 -55q94 0 179 17v364q-81 16 -177 16zM293 471q115 0 225 -25v-436q0 -117 -64.5 -186t-175.5 -69q-94 0 -174 37l10 37q81 -33 163 -33q90 0 143 57.5t54 158.5q-85 -17 -183 -17q-102 0 -167 65q-64 65 -64 170 q0 109 63 175q65 66 170 66zM283 632q0 14 10.5 22t24.5 8t24.5 -8t10.5 -22v-3q0 -16 -10.5 -25t-24.5 -9q-15 0 -25 10t-10 27z" unicode="ġ" glyph-name="gdotaccent"/>
<glyph horiz-adv-x="814" d="M393 -229l33 94q-23 8 -23 29q0 14 9.5 23.5t24.5 9.5q14 0 24 -9.5t10 -23.5q0 -4 -0.5 -7l-1 -6t-2.5 -8.5t-4 -10.5t-6 -14.5t-8 -18.5t-11.5 -25.5t-14.5 -32.5h-30zM739 360v-308q-149 -67 -306 -67q-163 0 -264 98q-99 97 -99 258q0 158 101 256t266 98 q122 0 236 -35l-9 -42q-123 33 -225 33q-143 0 -232 -86q-88 -85 -88 -224q0 -140 86 -226t228 -86q131 0 261 50v239h-285v42h330z" unicode="Ģ" glyph-name="Gcommaaccent"/>
<glyph horiz-adv-x="602" d="M296 431q-89 0 -140 -54.5t-51 -147.5q0 -85 52 -140t137 -55q94 0 179 17v364q-81 16 -177 16zM293 471q115 0 225 -25v-436q0 -117 -64.5 -186t-175.5 -69q-94 0 -174 37l10 37q81 -33 163 -33q90 0 143 57.5t54 158.5q-85 -17 -183 -17q-102 0 -167 65q-64 65 -64 170 q0 109 63 175q65 66 170 66zM361 749l-34 -94q23 -6 23 -29q0 -14 -9.5 -23.5t-24.5 -9.5q-14 0 -24 9.5t-10 23.5q0 4 0.5 7l1 6t2.5 8.5t4 10.5t6 14.5t8 18.5t11.5 25.5t14.5 32.5h31z" unicode="ģ" glyph-name="gcommaaccent"/>
<glyph horiz-adv-x="752" d="M597 511h-444v-151h444v151zM695 511h-51v-511h-47v317h-444v-317h-46v511h-51v40h51v129h46v-129h444v129h47v-129h51v-40z" unicode="Ħ" glyph-name="Hbar"/>
<glyph d="M338 471q87 0 135.5 -50t48.5 -141v-280h-45v272q0 75 -38.5 116.5t-106.5 41.5q-108 0 -192 -25v-405h-45v586h-66v35h66v89h45v-89h187v-35h-187v-140q87 25 198 25z" unicode="ħ" glyph-name="hbar"/>
<glyph horiz-adv-x="261" d="M269 822v-36h-276v36h276zM153 680v-680h-46v680h46z" unicode="Ī" glyph-name="Imacron"/>
<glyph horiz-adv-x="245" d="M145 456v-456h-45v456h45zM256 670v-36h-268v36h268z" unicode="ī" glyph-name="imacron"/>
<glyph horiz-adv-x="261" d="M173 -159l4 -37q-18 -5 -41 -5q-55 0 -88.5 27.5t-33.5 72.5q0 71 93 111v670h46v-680h-12q-86 -39 -86 -95q0 -30 23.5 -48.5t63.5 -18.5q16 0 31 3z" unicode="Į" glyph-name="Iogonek"/>
<glyph horiz-adv-x="245" d="M163 -161l4 -37q-18 -5 -41 -5q-55 0 -88.5 27.5t-33.5 72.5q0 71 96 112v447h45v-456h-10q-46 -22 -68 -44t-22 -53q0 -30 23.5 -48.5t63.5 -18.5q16 0 31 3zM88 632q0 14 10 22t25 8t25 -8t10 -22v-3q0 -16 -10.5 -25t-24.5 -9q-15 0 -25 10t-10 27z" unicode="į" glyph-name="iogonek"/>
<glyph horiz-adv-x="261" d="M153 680v-680h-46v680h46zM92 833q-1 18 10.5 28t28.5 10t28.5 -10t10.5 -28q1 -17 -11 -27t-28 -10t-28 10t-11 27z" unicode="İ" glyph-name="Idot"/>
<glyph horiz-adv-x="245" d="M145 456v-456h-45v456h45z" unicode="ı" glyph-name="dotlessi"/>
<glyph horiz-adv-x="837" d="M153 680v-680h-46v680h46zM739 680v-438q0 -123 -60 -190t-168 -67q-101 0 -219 45l11 41q114 -42 208 -42q86 0 133.5 55.5t47.5 157.5v438h47z" unicode="Ĳ" glyph-name="IJ"/>
<glyph horiz-adv-x="478" d="M385 456v-504q0 -97 -35 -140q-34 -42 -122 -43l-2 40h3q61 0 86 31.5t25 107.5v508h45zM145 456v-456h-45v456h45zM336 654q10 11 24 11q15 0 27.5 -11.5t12.5 -26.5q0 -13 -12 -24q-13 -10 -26 -10t-26 10q-11 11 -11 26q0 17 11 25zM122 593q-16 0 -26.5 10.5 t-10.5 25.5q0 16 10.5 26t26.5 10q15 0 25.5 -10t10.5 -26q0 -15 -10.5 -25.5t-25.5 -10.5z" unicode="ĳ" glyph-name="ij"/>
<glyph horiz-adv-x="677" d="M275 -229l33 94q-23 8 -23 29q0 14 9.5 23.5t24.5 9.5q14 0 24 -9.5t10 -23.5q0 -4 -0.5 -7l-1 -6t-2.5 -8.5t-4 -10.5t-6 -14.5t-8 -18.5t-11.5 -25.5t-14.5 -32.5h-30zM153 296v-296h-46v680h46v-340h82l317 340h59l-318 -340l352 -340h-61l-311 296h-120z" unicode="Ķ" glyph-name="Kcommaaccent"/>
<glyph horiz-adv-x="561" d="M225 -229l33 94q-23 8 -23 29q0 14 9.5 23.5t24.5 9.5q14 0 24 -9.5t10 -23.5q0 -4 -0.5 -7l-1 -6t-2.5 -8.5t-4 -10.5t-6 -14.5t-8 -18.5t-11.5 -25.5t-14.5 -32.5h-30zM139 251h76l210 205h57l-212 -209l253 -247h-59l-219 209h-106v-209h-45v710h45v-459z" unicode="ķ" glyph-name="kcommaaccent"/>
<glyph horiz-adv-x="582" d="M543 0h-436v680h46v-638h390v-42zM266 898l-105 -156h-47l91 156h61z" unicode="Ĺ" glyph-name="Lacute"/>
<glyph horiz-adv-x="250" d="M147 710v-710h-45v710h45zM254 910l-105 -158h-45l89 158h61z" unicode="ĺ" glyph-name="lacute"/>
<glyph horiz-adv-x="582" d="M279 -229l33 94q-23 8 -23 29q0 14 9.5 23.5t24.5 9.5q14 0 24 -9.5t10 -23.5q0 -4 -0.5 -7l-1 -6t-2.5 -8.5t-4 -10.5t-6 -14.5t-8 -18.5t-11.5 -25.5t-14.5 -32.5h-30zM543 0h-436v680h46v-638h390v-42z" unicode="Ļ" glyph-name="Lcommaaccent"/>
<glyph horiz-adv-x="250" d="M79 -229l33 94q-23 8 -23 29q0 14 9.5 23.5t24.5 9.5q14 0 24 -9.5t10 -23.5q0 -4 -0.5 -7l-1 -6t-2.5 -8.5t-4 -10.5t-6 -14.5t-8 -18.5t-11.5 -25.5t-14.5 -32.5h-30zM147 710v-710h-45v710h45z" unicode="ļ" glyph-name="lcommaaccent"/>
<glyph horiz-adv-x="582" d="M334 680l-24 -193h-36l11 193h49zM543 0h-436v680h46v-638h390v-42z" unicode="Ľ" glyph-name="Lcaron"/>
<glyph horiz-adv-x="250" d="M258 710l-24 -193h-36l11 193h49zM147 710v-710h-45v710h45z" unicode="ľ" glyph-name="lcaron"/>
<glyph horiz-adv-x="582" d="M352 295q0 14 10.5 22.5t24.5 8.5q15 0 25.5 -8.5t10.5 -23.5v-2q0 -14 -10.5 -24.5t-25.5 -10.5q-16 0 -25.5 11t-9.5 27zM543 0h-436v680h46v-638h390v-42z" unicode="Ŀ" glyph-name="Ldot"/>
<glyph horiz-adv-x="274" d="M205 326q-1 15 10 24t26 9t25.5 -9t9.5 -24q1 -16 -9.5 -25t-25.5 -9t-26 9t-10 25zM147 710v-710h-45v710h45z" unicode="ŀ" glyph-name="ldot"/>
<glyph horiz-adv-x="582" d="M543 42v-42h-436v249l-81 -44v42l81 44v389h46v-364l159 87v-42l-159 -87v-232h390z" unicode="Ł" glyph-name="Lslash"/>
<glyph horiz-adv-x="250" d="M224 366l-77 -42v-324h-45v299l-75 -41v42l75 41v369h45v-344l77 42v-42z" unicode="ł" glyph-name="lslash"/>
<glyph horiz-adv-x="781" d="M673 680v-680h-49l-471 608v-608h-46v680h48l472 -609v609h46zM521 898l-105 -156h-47l91 156h61z" unicode="Ń" glyph-name="Nacute"/>
<glyph d="M337 471q87 0 135.5 -50t48.5 -141v-280h-45v272q0 75 -38.5 116.5t-106.5 41.5q-96 0 -192 -17v-413h-45v446q104 25 243 25zM416 734l-105 -158h-45l89 158h61z" unicode="ń" glyph-name="nacute"/>
<glyph horiz-adv-x="781" d="M340 -232l33 94q-23 8 -23 29q0 14 9.5 23.5t24.5 9.5q14 0 24 -9.5t10 -23.5q0 -4 -0.5 -7l-1 -6t-2.5 -8.5t-4 -10.5t-6 -14.5t-8 -18.5t-11.5 -25.5t-14.5 -32.5h-30zM673 680v-680h-49l-471 608v-608h-46v680h48l472 -609v609h46z" unicode="Ņ" glyph-name="Ncommaaccent"/>
<glyph d="M253 -229l33 94q-23 8 -23 29q0 14 9.5 23.5t24.5 9.5q14 0 24 -9.5t10 -23.5q0 -4 -0.5 -7l-1 -6t-2.5 -8.5t-4 -10.5t-6 -14.5t-8 -18.5t-11.5 -25.5t-14.5 -32.5h-30zM337 471q87 0 135.5 -50t48.5 -141v-280h-45v272q0 75 -38.5 116.5t-106.5 41.5q-96 0 -192 -17 v-413h-45v446q104 25 243 25z" unicode="ņ" glyph-name="ncommaaccent"/>
<glyph horiz-adv-x="781" d="M673 680v-680h-49l-471 608v-608h-46v680h48l472 -609v609h46zM411 739h-44l-130 158h48l104 -123l103 123h49z" unicode="Ň" glyph-name="Ncaron"/>
<glyph d="M337 471q87 0 135.5 -50t48.5 -141v-280h-45v272q0 75 -38.5 116.5t-106.5 41.5q-96 0 -192 -17v-413h-45v446q104 25 243 25zM325 568h-44l-130 158h48l104 -124l103 124h49z" unicode="ň" glyph-name="ncaron"/>
<glyph horiz-adv-x="851" d="M204 114q86 -86 222 -86q137 0 221 86q85 85 85 226t-85 226q-84 86 -221 86q-136 0 -222 -86q-85 -85 -85 -226t85 -226zM168 597q98 98 257 98t257 -98q99 -97 99 -257q0 -159 -99 -257q-98 -98 -257 -98q-160 0 -257 97q-98 98 -98 258q0 159 98 257zM563 822v-36 h-276v36h276z" unicode="Ō" glyph-name="Omacron"/>
<glyph horiz-adv-x="613" d="M307 26q88 0 144 56q56 58 56 148q0 89 -56 145t-144 56q-89 0 -145 -56t-56 -145q0 -90 56 -148q56 -56 145 -56zM554 230q0 -110 -69 -178q-70 -68 -178 -68t-178 68q-69 68 -69 178q0 109 69 175q68 67 178 67t178 -67q69 -66 69 -175zM440 670v-36h-267v36h267z" unicode="ō" glyph-name="omacron"/>
<glyph horiz-adv-x="851" d="M204 114q86 -86 222 -86q137 0 221 86q85 85 85 226t-85 226q-84 86 -221 86q-136 0 -222 -86q-85 -85 -85 -226t85 -226zM168 597q98 98 257 98t257 -98q99 -97 99 -257q0 -159 -99 -257q-98 -98 -257 -98q-160 0 -257 97q-98 98 -98 258q0 159 98 257zM612 898 l-91 -156h-42l82 156h51zM483 898l-90 -156h-43l82 156h51z" unicode="Ő" glyph-name="Ohungarumlaut"/>
<glyph horiz-adv-x="613" d="M307 26q88 0 144 56q56 58 56 148q0 89 -56 145t-144 56q-89 0 -145 -56t-56 -145q0 -90 56 -148q56 -56 145 -56zM554 230q0 -110 -69 -178q-70 -68 -178 -68t-178 68q-69 68 -69 178q0 109 69 175q68 67 178 67t178 -67q69 -66 69 -175zM477 724l-90 -156h-43l82 156 h51zM348 724l-90 -156h-42l81 156h51z" unicode="ő" glyph-name="ohungarumlaut"/>
<glyph horiz-adv-x="1005" d="M469 43v594q-168 -1 -259 -78.5t-91 -218.5t91 -218.5t259 -78.5zM515 361h375v-42h-375v-276h416v-43h-462q-190 2 -294 91q-105 90 -105 249t105 249q104 89 294 91h462v-43h-416v-276z" unicode="Œ" glyph-name="OE"/>
<glyph horiz-adv-x="1019" d="M307 26q88 0 144 56q56 58 56 148q0 89 -56 145t-144 56q-89 0 -145 -56t-56 -145q0 -90 56 -148q56 -56 145 -56zM554 248h363q0 86 -47.5 135.5t-126.5 49.5q-83 0 -133.5 -50t-55.5 -135zM959 248q0 -19 -2 -37h-402q6 -84 58 -134.5t135 -50.5q62 0 171 26l8 -36 q-96 -31 -180 -31q-78 0 -134 34t-83 97q-29 -62 -88 -97t-135 -35q-108 0 -178 68q-69 68 -69 178q0 109 69 175q68 67 178 67q77 0 135 -34t88 -95q27 60 83 94t130 34q98 0 156 -61q60 -60 60 -162z" unicode="œ" glyph-name="oe"/>
<glyph horiz-adv-x="651" d="M154 299h168q96 0 152 47.5t56 131.5q0 81 -56 124t-154 43q-49 0 -166 -5v-341zM559 0l-194 261q-18 -3 -55 -3h-157v-258h-46v680q120 7 211 7q121 0 189.5 -54.5t68.5 -154.5q0 -79 -43 -132.5t-121 -74.5l204 -271h-57zM428 898l-105 -156h-47l91 156h61z" unicode="Ŕ" glyph-name="Racute"/>
<glyph horiz-adv-x="381" d="M335 466v-44q-103 0 -196 -11v-411h-45v445q126 21 241 21zM327 734l-105 -158h-45l89 158h61z" unicode="ŕ" glyph-name="racute"/>
<glyph horiz-adv-x="651" d="M291 -229l33 94q-23 8 -23 29q0 14 9.5 23.5t24.5 9.5q14 0 24 -9.5t10 -23.5q0 -4 -0.5 -7l-1 -6t-2.5 -8.5t-4 -10.5t-6 -14.5t-8 -18.5t-11.5 -25.5t-14.5 -32.5h-30zM154 299h168q96 0 152 47.5t56 131.5q0 81 -56 124t-154 43q-49 0 -166 -5v-341zM559 0l-194 261 q-18 -3 -55 -3h-157v-258h-46v680q120 7 211 7q121 0 189.5 -54.5t68.5 -154.5q0 -79 -43 -132.5t-121 -74.5l204 -271h-57z" unicode="Ŗ" glyph-name="Rcommaaccent"/>
<glyph horiz-adv-x="381" d="M70 -229l33 94q-23 8 -23 29q0 14 9.5 23.5t24.5 9.5q14 0 24 -9.5t10 -23.5q0 -4 -0.5 -7l-1 -6t-2.5 -8.5t-4 -10.5t-6 -14.5t-8 -18.5t-11.5 -25.5t-14.5 -32.5h-30zM335 466v-44q-103 0 -196 -11v-411h-45v445q126 21 241 21z" unicode="ŗ" glyph-name="rcommaaccent"/>
<glyph horiz-adv-x="651" d="M154 299h168q96 0 152 47.5t56 131.5q0 81 -56 124t-154 43q-49 0 -166 -5v-341zM559 0l-194 261q-18 -3 -55 -3h-157v-258h-46v680q120 7 211 7q121 0 189.5 -54.5t68.5 -154.5q0 -79 -43 -132.5t-121 -74.5l204 -271h-57zM318 739h-44l-130 158h48l104 -123l103 123h49 z" unicode="Ř" glyph-name="Rcaron"/>
<glyph horiz-adv-x="381" d="M335 466v-44q-103 0 -196 -11v-411h-45v445q126 21 241 21zM237 568h-44l-130 158h48l104 -124l103 124h49z" unicode="ř" glyph-name="rcaron"/>
<glyph horiz-adv-x="684" d="M579 655l-12 -40q-117 36 -229 36q-82 0 -131.5 -38.5t-49.5 -104.5q0 -54 38 -81q39 -27 137 -48q56 -12 87 -21q33 -8 72 -24q41 -16 59 -34q50 -45 50 -119q0 -92 -67 -144t-177 -52q-142 0 -281 57l14 42q139 -56 269 -56q88 0 141.5 40.5t53.5 109.5q0 59 -45 96 q-16 13 -53 27q-42 16 -57 19l-66 14l-19 4q-115 24 -160 60q-44 38 -44 109q0 87 63 136q63 51 167 51q125 0 240 -39zM483 898l-105 -156h-47l91 156h61z" unicode="Ś" glyph-name="Sacute"/>
<glyph horiz-adv-x="514" d="M66 32l12 38q102 -46 194 -46q61 0 97.5 25t36.5 69q0 45 -44 66q-32 15 -114 34q-2 0 -5 1l-5 1q-81 18 -115 44.5t-34 76.5q0 62 46 95.5t128 33.5q91 0 170 -30l-12 -37q-84 29 -161 29q-127 0 -127 -90q0 -37 26 -54q24 -15 98 -32q27 -6 45 -11q5 -1 39 -10 q25 -7 38 -14q6 -2 27 -16q22 -13 30.5 -31.5t12.5 -52.5q0 -64 -49 -100t-131 -36q-94 0 -203 47zM370 734l-105 -158h-45l89 158h61z" unicode="ś" glyph-name="sacute"/>
<glyph horiz-adv-x="684" d="M313 -202h-41l53 152h45zM579 655l-12 -40q-117 36 -229 36q-82 0 -131.5 -38.5t-49.5 -104.5q0 -54 38 -81q39 -27 137 -48q56 -12 87 -21q33 -8 72 -24q41 -16 59 -34q50 -45 50 -119q0 -92 -67 -144t-177 -52q-142 0 -281 57l14 42q139 -56 269 -56q88 0 141.5 40.5 t53.5 109.5q0 59 -45 96q-16 13 -53 27q-42 16 -57 19l-66 14l-19 4q-115 24 -160 60q-44 38 -44 109q0 87 63 136q63 51 167 51q125 0 240 -39z" unicode="Ş" glyph-name="Scedilla"/>
<glyph horiz-adv-x="514" d="M220 -202h-41l53 152h45zM66 32l12 38q102 -46 194 -46q61 0 97.5 25t36.5 69q0 45 -44 66q-32 15 -114 34q-2 0 -5 1l-5 1q-81 18 -115 44.5t-34 76.5q0 62 46 95.5t128 33.5q91 0 170 -30l-12 -37q-84 29 -161 29q-127 0 -127 -90q0 -37 26 -54q24 -15 98 -32 q27 -6 45 -11q5 -1 39 -10q25 -7 38 -14q6 -2 27 -16q22 -13 30.5 -31.5t12.5 -52.5q0 -64 -49 -100t-131 -36q-94 0 -203 47z" unicode="ş" glyph-name="scedilla"/>
<glyph horiz-adv-x="684" d="M579 655l-12 -40q-117 36 -229 36q-82 0 -131.5 -38.5t-49.5 -104.5q0 -54 38 -81q39 -27 137 -48q56 -12 87 -21q33 -8 72 -24q41 -16 59 -34q50 -45 50 -119q0 -92 -67 -144t-177 -52q-142 0 -281 57l14 42q139 -56 269 -56q88 0 141.5 40.5t53.5 109.5q0 59 -45 96 q-16 13 -53 27q-42 16 -57 19l-66 14l-19 4q-115 24 -160 60q-44 38 -44 109q0 87 63 136q63 51 167 51q125 0 240 -39zM373 739h-44l-130 158h48l104 -123l103 123h49z" unicode="Š" glyph-name="Scaron"/>
<glyph horiz-adv-x="514" d="M66 32l12 38q102 -46 194 -46q61 0 97.5 25t36.5 69q0 45 -44 66q-32 15 -114 34q-2 0 -5 1l-5 1q-81 18 -115 44.5t-34 76.5q0 62 46 95.5t128 33.5q91 0 170 -30l-12 -37q-84 29 -161 29q-127 0 -127 -90q0 -37 26 -54q24 -15 98 -32q27 -6 45 -11q5 -1 39 -10 q25 -7 38 -14q6 -2 27 -16q22 -13 30.5 -31.5t12.5 -52.5q0 -64 -49 -100t-131 -36q-94 0 -203 47zM279 568h-44l-130 158h48l104 -124l103 124h49z" unicode="š" glyph-name="scaron"/>
<glyph horiz-adv-x="665" d="M356 637v-637h-46v637h-280v43h605v-43h-279zM355 739h-44l-130 158h48l104 -123l103 123h49z" unicode="Ť" glyph-name="Tcaron"/>
<glyph horiz-adv-x="424" d="M368 35l7 -37q-48 -13 -92 -13q-77 0 -112 40.5t-35 130.5v259h-108v41h108v202h45v-202h169v-41h-169v-256q0 -72 24.5 -102.5t83.5 -30.5q37 0 79 9zM308 738l-24 -193h-36l11 193h49z" unicode="ť" glyph-name="tcaron"/>
<glyph horiz-adv-x="765" d="M667 680v-415q0 -127 -78 -204q-77 -76 -207 -76t-207 76q-78 77 -78 204v415h46v-415q0 -108 65 -173q65 -64 174 -64t173 64q65 65 65 173v415h47zM520 822v-36h-276v36h276z" unicode="Ū" glyph-name="Umacron"/>
<glyph d="M513 456v-446q-104 -25 -244 -25q-88 0 -135.5 49.5t-47.5 141.5v280h45v-273q0 -77 37 -117.5t107 -40.5q101 0 193 16v415h45zM436 670v-36h-267v36h267z" unicode="ū" glyph-name="umacron"/>
<glyph horiz-adv-x="765" d="M667 680v-415q0 -127 -78 -204q-77 -76 -207 -76t-207 76q-78 77 -78 204v415h46v-415q0 -108 65 -173q65 -64 174 -64t173 64q65 65 65 173v415h47zM323 813q0 -25 17.5 -39t41.5 -14t42 14t18 40v3q0 26 -17.5 43t-42.5 17q-26 0 -42.5 -17.5t-16.5 -46.5zM382 906 q39 0 64.5 -25t25.5 -64q0 -38 -26 -63t-64 -25t-64 25t-26 63q0 39 25.5 64t64.5 25z" unicode="Ů" glyph-name="Uring"/>
<glyph d="M513 456v-446q-104 -25 -244 -25q-88 0 -135.5 49.5t-47.5 141.5v280h45v-273q0 -77 37 -117.5t107 -40.5q101 0 193 16v415h45zM244 643q0 -26 17 -42.5t42 -16.5t42.5 16.5t17.5 42.5t-17.5 43t-42.5 17t-42 -16.5t-17 -43.5zM303 731q39 0 64.5 -24.5t25.5 -63.5 t-25.5 -63.5t-64.5 -24.5q-38 0 -64 25t-26 63q0 39 25.5 63.5t64.5 24.5z" unicode="ů" glyph-name="uring"/>
<glyph horiz-adv-x="765" d="M667 680v-415q0 -127 -78 -204q-77 -76 -207 -76t-207 76q-78 77 -78 204v415h46v-415q0 -108 65 -173q65 -64 174 -64t173 64q65 65 65 173v415h47zM569 898l-91 -156h-42l82 156h51zM440 898l-90 -156h-43l82 156h51z" unicode="Ű" glyph-name="Uhungarumlaut"/>
<glyph d="M513 456v-446q-104 -25 -244 -25q-88 0 -135.5 49.5t-47.5 141.5v280h45v-273q0 -77 37 -117.5t107 -40.5q101 0 193 16v415h45zM474 724l-90 -156h-43l82 156h51zM345 724l-90 -156h-42l81 156h51z" unicode="ű" glyph-name="uhungarumlaut"/>
<glyph horiz-adv-x="765" d="M667 680v-415q0 -109 -59 -182t-160 -92q-42 -20 -62.5 -41.5t-20.5 -52.5q0 -30 23.5 -48.5t63.5 -18.5q16 0 31 3l4 -37q-18 -5 -41 -5q-55 0 -88.5 27.5t-33.5 72.5q0 57 61 94h-3q-130 0 -207 76q-78 77 -78 204v415h46v-415q0 -108 65 -173q65 -64 174 -64t173 64 q65 65 65 173v415h47z" unicode="Ų" glyph-name="Uogonek"/>
<glyph d="M539 -152l4 -37q-18 -5 -41 -5q-55 0 -88.5 27.5t-33.5 72.5q0 52 54 90q-80 -11 -165 -11q-88 0 -135.5 49.5t-47.5 141.5v280h45v-273q0 -77 37 -117.5t107 -40.5q101 0 193 16v415h45v-446q-47 -22 -69.5 -44t-22.5 -54q0 -30 23.5 -48.5t63.5 -18.5q16 0 31 3z" unicode="ų" glyph-name="uogonek"/>
<glyph horiz-adv-x="1056" d="M777 0h-45l-204 605l-204 -605h-44l-236 680h50l209 -608l204 608h42l204 -607l210 607h49zM528 862l-105 -120h-47l130 156h44l130 -156h-47z" unicode="Ŵ" glyph-name="Wcircumflex"/>
<glyph horiz-adv-x="825" d="M597 0h-45l-141 389l-139 -389h-45l-175 456h47l152 -392l141 392h40l141 -393l152 393h47zM413 687l-105 -118h-47l130 155h44l130 -155h-47z" unicode="ŵ" glyph-name="wcircumflex"/>
<glyph horiz-adv-x="677" d="M315 250l-287 430h53l258 -383l257 383h53l-287 -430v-250h-47v250zM339 862l-105 -120h-47l130 156h44l130 -156h-47z" unicode="Ŷ" glyph-name="Ycircumflex"/>
<glyph horiz-adv-x="604" d="M564 456l-355 -679h-51l126 241l-241 438h51l214 -391l205 391h51zM197 569h-47l130 155h44l130 -155h-47l-105 118z" unicode="ŷ" glyph-name="ycircumflex"/>
<glyph horiz-adv-x="677" d="M315 250l-287 430h53l258 -383l257 383h53l-287 -430v-250h-47v250zM407 819q-1 16 10 25t26 9t25.5 -9t9.5 -25q1 -15 -9.5 -24t-25.5 -9t-26 9t-10 24zM235 853q14 0 24.5 -9t10.5 -25v-3q0 -14 -10 -22t-25 -8t-25 8t-10 22q0 17 10 27t25 10z" unicode="Ÿ" glyph-name="Ydieresis"/>
<glyph horiz-adv-x="659" d="M462 898l-105 -156h-47l91 156h61zM584 649l-448 -606h449v-43h-515v31l451 606h-440v43h503v-31z" unicode="Ź" glyph-name="Zacute"/>
<glyph horiz-adv-x="492" d="M358 734l-105 -158h-45l89 158h61zM434 427l-315 -387h319v-40h-382v27l316 389h-304v40h366v-29z" unicode="ź" glyph-name="zacute"/>
<glyph horiz-adv-x="659" d="M330 853q14 0 24.5 -9t10.5 -25v-3q0 -14 -10.5 -22t-24.5 -8t-24.5 8t-10.5 22q0 17 10 27t25 10zM584 649l-448 -606h449v-43h-515v31l451 606h-440v43h503v-31z" unicode="Ż" glyph-name="Zdotaccent"/>
<glyph horiz-adv-x="492" d="M210 632q0 14 10 22t25 8t25 -8t10 -22v-3q0 -16 -10.5 -25t-24.5 -9q-15 0 -25 10t-10 27zM434 427l-315 -387h319v-40h-382v27l316 389h-304v40h366v-29z" unicode="ż" glyph-name="zdotaccent"/>
<glyph horiz-adv-x="659" d="M584 649l-448 -606h449v-43h-515v31l451 606h-440v43h503v-31zM352 739h-44l-130 158h48l104 -123l103 123h49z" unicode="Ž" glyph-name="Zcaron"/>
<glyph horiz-adv-x="492" d="M434 427l-315 -387h319v-40h-382v27l316 389h-304v40h366v-29zM267 568h-44l-130 158h48l104 -124l103 124h49z" unicode="ž" glyph-name="zcaron"/>
<glyph horiz-adv-x="538" d="M401 695q37 0 85 -13l-8 -37q-47 9 -76 9q-53 0 -75.5 -29.5t-31.5 -105.5l-17 -122h197v-41h-202l-26 -196q-13 -97 -45 -136t-106 -39q-38 0 -86 13l8 37q50 -9 76 -9q55 0 76 29q21 28 32 106l26 195h-132v41h138l16 123q14 98 44 136q32 39 107 39z" unicode="ƒ" glyph-name="florin"/>
<glyph horiz-adv-x="751" d="M376 627l-182 -405h362zM176 180l-80 -180h-52l309 685h46l309 -685h-52l-81 180h-399zM398 739h-44l-130 158h48l104 -123l103 123h49z" unicode="Ǎ" glyph-name="Acaron"/>
<glyph horiz-adv-x="607" d="M296 431q-89 0 -140 -54.5t-51 -147.5q0 -92 51 -149q53 -56 138 -56q83 0 179 60v331q-81 16 -177 16zM293 471q110 0 225 -25v-446h-44v43q-94 -58 -183 -58q-104 0 -168 67q-63 68 -63 178q0 109 63 175q65 66 170 66zM337 568h-44l-130 158h48l104 -124l103 124h49z " unicode="ǎ" glyph-name="acaron"/>
<glyph horiz-adv-x="684" d="M295 -229l33 94q-23 8 -23 29q0 14 9.5 23.5t24.5 9.5q14 0 24 -9.5t10 -23.5q0 -4 -0.5 -7l-1 -6t-2.5 -8.5t-4 -10.5t-6 -14.5t-8 -18.5t-11.5 -25.5t-14.5 -32.5h-30zM579 655l-12 -40q-117 36 -229 36q-82 0 -131.5 -38.5t-49.5 -104.5q0 -54 38 -81q39 -27 137 -48 q56 -12 87 -21q33 -8 72 -24q41 -16 59 -34q50 -45 50 -119q0 -92 -67 -144t-177 -52q-142 0 -281 57l14 42q139 -56 269 -56q88 0 141.5 40.5t53.5 109.5q0 59 -45 96q-16 13 -53 27q-42 16 -57 19l-66 14l-19 4q-115 24 -160 60q-44 38 -44 109q0 87 63 136q63 51 167 51 q125 0 240 -39z" unicode="Ș" glyph-name="Scommaaccent"/>
<glyph horiz-adv-x="514" d="M217 -229l33 94q-23 8 -23 29q0 14 9.5 23.5t24.5 9.5q14 0 24 -9.5t10 -23.5q0 -4 -0.5 -7l-1 -6t-2.5 -8.5t-4 -10.5t-6 -14.5t-8 -18.5t-11.5 -25.5t-14.5 -32.5h-30zM66 32l12 38q102 -46 194 -46q61 0 97.5 25t36.5 69q0 45 -44 66q-32 15 -114 34q-2 0 -5 1l-5 1 q-81 18 -115 44.5t-34 76.5q0 62 46 95.5t128 33.5q91 0 170 -30l-12 -37q-84 29 -161 29q-127 0 -127 -90q0 -37 26 -54q24 -15 98 -32q27 -6 45 -11q5 -1 39 -10q25 -7 38 -14q6 -2 27 -16q22 -13 30.5 -31.5t12.5 -52.5q0 -64 -49 -100t-131 -36q-94 0 -203 47z" unicode="ș" glyph-name="scommaaccent"/>
<glyph horiz-adv-x="665" d="M288 -229l33 94q-23 8 -23 29q0 14 9.5 23.5t24.5 9.5q14 0 24 -9.5t10 -23.5q0 -4 -0.5 -7l-1 -6t-2.5 -8.5t-4 -10.5t-6 -14.5t-8 -18.5t-11.5 -25.5t-14.5 -32.5h-30zM356 637v-637h-46v637h-280v43h605v-43h-279z" unicode="Ț" glyph-name="uni021A"/>
<glyph horiz-adv-x="424" d="M197 -229l33 94q-23 8 -23 29q0 14 9.5 23.5t24.5 9.5q14 0 24 -9.5t10 -23.5q0 -4 -0.5 -7l-1 -6t-2.5 -8.5t-4 -10.5t-6 -14.5t-8 -18.5t-11.5 -25.5t-14.5 -32.5h-30zM368 35l7 -37q-48 -13 -92 -13q-77 0 -112 40.5t-35 130.5v259h-108v41h108v202h45v-202h169v-41 h-169v-256q0 -72 24.5 -102.5t83.5 -30.5q37 0 79 9z" unicode="ț" glyph-name="uni021B"/>
</font>
</defs>
</svg>
