<?xml version="1.0" encoding="UTF-8" standalone="no"?>
<!DOCTYPE svg  PUBLIC '-//W3C//DTD SVG 1.1//EN'  'http://www.w3.org/Graphics/SVG/1.1/DTD/svg11.dtd'>
<svg xmlns="http://www.w3.org/2000/svg" version="1.1">
<defs>
<font id="Canaro-Light" horiz-adv-x="610">
<font-face cap-height="680" unicode-range="U+0020-FB02" bbox="-32 -272 1037 917" x-height="462" units-per-em="1000" underline-position="-150" underline-thickness="50" font-weight="300" descent="-200" font-family="Canaro Light" panose-1="0 0 4 0 0 0 0 0 0 0" ascent="800"/>
<missing-glyph/>
<glyph horiz-adv-x="259" unicode=" " glyph-name="space"/>
<glyph horiz-adv-x="238" d="M155 1q-14 -14 -36 -14t-36 14t-14 35t14 35t36 14t36 -14q15 -15 15 -35t-15 -35zM156 680l-3 -504h-69l-3 504h75z" unicode="!" glyph-name="exclam"/>
<glyph horiz-adv-x="353" d="M296 762l-16 -234h-61l1 234h76zM155 762l-17 -234h-61l2 234h76z" unicode='&quot;' glyph-name="quotedbl"/>
<glyph horiz-adv-x="736" d="M287 415l-49 -156h204l49 156h-204zM513 259h126v-60h-145l-62 -199h-71l63 199h-205l-62 -199h-71l63 199h-108v60h126l49 156h-120v60h139l64 206h71l-65 -206h205l64 206h71l-65 -206h114v-60h-132z" unicode="#" glyph-name="numbersign"/>
<glyph horiz-adv-x="682" d="M605 186q0 -89 -62 -142t-168 -58v-117h-63v117q-134 11 -243 56l19 66q140 -57 267 -57q82 0 130 34.5t48 94.5q0 69 -66 99q-50 23 -140 41q-5 1 -11.5 2.5t-9.5 1.5q-115 24 -162 62q-46 39 -46 114q0 83 57.5 134t156.5 57v125h63v-125q118 -6 209 -40l-19 -61 q-129 38 -229 38q-76 0 -119.5 -33t-43.5 -92q0 -50 38 -74q40 -25 135 -44q99 -22 155 -46q37 -15 57 -35q47 -44 47 -118z" unicode="$" glyph-name="dollar"/>
<glyph horiz-adv-x="1081" d="M673 175q0 -62 37 -100q38 -38 94 -38q55 0 93 38q38 40 38 100t-37 98t-94 38t-94 -38t-37 -98zM989 175q0 -86 -52 -138t-133 -52t-133 52t-52 138q0 84 52 136t133 52q80 0 132 -52q53 -53 53 -136zM182 407q38 -38 94 -38q55 0 93 38t38 99t-38 99t-93 38 q-56 0 -94 -38q-37 -37 -37 -99t37 -99zM332 0h-45l453 680h45zM143 642q53 53 133 53q79 0 132 -53t53 -136q0 -84 -53 -137q-52 -52 -132 -52q-81 0 -133 52t-52 137q0 84 52 136z" unicode="%" glyph-name="percent"/>
<glyph horiz-adv-x="639" d="M467 319h-174q-86 0 -135 -34.5t-49 -92.5q0 -66 48 -105.5t131 -39.5t131 40t48 107v125zM533 319v-125q0 -94 -66 -151t-179 -57t-180 55q-66 56 -66 149q0 121 135 160q-107 38 -107 148q0 85 62 136q61 52 166 52q69 0 135 -18l-14 -59q-60 16 -123 16 q-73 0 -116 -34t-43 -91q0 -59 39.5 -90.5t116.5 -31.5h314v-59h-74z" unicode="&amp;" glyph-name="ampersand"/>
<glyph horiz-adv-x="212" d="M155 762l-17 -234h-61l2 234h76z" unicode="&apos;" glyph-name="quotesingle"/>
<glyph horiz-adv-x="325" d="M229 756l51 -32q-79 -110 -118 -215q-40 -107 -40 -245q0 -134 39 -242.5t119 -217.5l-51 -33q-173 212 -173 493q0 280 173 492z" unicode="(" glyph-name="parenleft"/>
<glyph horiz-adv-x="324" d="M44 724l51 32q173 -212 173 -492q0 -281 -173 -493l-51 33q80 109 119 217.5t39 242.5q0 136 -41 245q-40 107 -117 215z" unicode=")" glyph-name="parenright"/>
<glyph horiz-adv-x="395" d="M347 468l-21 -35l-107 64v-116h-43v115l-107 -63l-20 35l109 65l-109 65l20 37l107 -64v113h43v-113l107 64l21 -37l-109 -65z" unicode="*" glyph-name="asterisk"/>
<glyph horiz-adv-x="693" d="M381 291v-197h-67v197h-197v64h197v198h67v-198h195v-64h-195z" unicode="+" glyph-name="plus"/>
<glyph horiz-adv-x="274" d="M65 -146l53 141q-35 12 -35 45q0 22 15.5 37t38.5 15t38.5 -15t15.5 -37q0 -17 -7 -32q-6 -16 -42 -96l-26 -58h-51z" unicode="," glyph-name="comma"/>
<glyph horiz-adv-x="533" d="M416 306v-69h-299v69h299z" unicode="-" glyph-name="hyphen"/>
<glyph horiz-adv-x="274" d="M175 2q-15 -15 -38 -15q-24 0 -39 15t-15 38q0 22 15 37t39 15q23 0 38 -15q16 -16 16 -37q0 -22 -16 -38z" unicode="." glyph-name="period"/>
<glyph horiz-adv-x="482" d="M79 -272h-62l370 1040h63z" unicode="/" glyph-name="slash"/>
<glyph horiz-adv-x="753" d="M377 51q107 0 171 79q66 80 66 210t-66 209q-65 80 -171 80q-107 0 -173 -80q-65 -80 -65 -209q0 -130 65 -210q66 -79 173 -79zM377 695q138 0 224 -98t86 -257q0 -160 -86 -258q-85 -97 -224 -97q-141 0 -226 97t-85 258q0 160 85 257q86 98 226 98z" unicode="0" glyph-name="zero"/>
<glyph horiz-adv-x="410" d="M291 0h-70v602l-186 -55l-15 57l249 76h22v-680z" unicode="1" glyph-name="one"/>
<glyph horiz-adv-x="580" d="M526 0h-467v46l241 226l55 53q14 14 41 46q44 52 44 111q0 69 -46 108.5t-124 39.5q-88 0 -194 -53l-20 60q104 58 224 58q110 0 171 -58q62 -57 62 -146q0 -71 -45 -133q-42 -59 -132 -140l-172 -154h362v-64z" unicode="2" glyph-name="two"/>
<glyph horiz-adv-x="590" d="M513 636l-228 -256h21q109 -4 169.5 -52.5t60.5 -133.5q0 -92 -71 -151q-70 -58 -184 -58q-126 0 -238 57l25 55q112 -51 215 -51q77 0 129 42q53 42 53 104t-48 95t-138 33h-95v34l232 262h-343v64h440v-44z" unicode="3" glyph-name="three"/>
<glyph horiz-adv-x="672" d="M138 191h319v395zM527 191h93v-61h-93v-130h-70v130h-411v48l411 502h70v-489z" unicode="4" glyph-name="four"/>
<glyph horiz-adv-x="612" d="M166 411l138 -7q117 -6 181 -58.5t64 -143.5q0 -99 -68 -158t-175 -59q-136 0 -250 57l24 60q114 -52 223 -52q77 0 125.5 41t48.5 110q0 62 -48.5 98.5t-133.5 40.5l-201 10l31 330h399v-66h-338z" unicode="5" glyph-name="five"/>
<glyph horiz-adv-x="621" d="M311 46q81 0 134 50t53 131q0 79 -53 129q-52 49 -134 49q-85 0 -137 -49q-51 -50 -51 -129q0 -82 52 -131q53 -50 136 -50zM311 463q113 0 184 -65q72 -64 72 -171t-72 -175q-70 -67 -184 -67t-185 67q-72 68 -72 175q0 74 56 154l212 299h85l-159 -222q37 5 63 5z" unicode="6" glyph-name="six"/>
<glyph horiz-adv-x="551" d="M518 637l-300 -637h-78l294 614h-400v66h484v-43z" unicode="7" glyph-name="seven"/>
<glyph horiz-adv-x="634" d="M508 189q0 61 -52.5 98t-138.5 37t-138.5 -37t-52.5 -98q0 -62 53 -103q52 -40 138 -40t138 40q53 41 53 103zM160 513q0 -58 43 -93.5t114 -35.5t114 35.5t43 93.5q0 55 -43.5 89.5t-113.5 34.5t-113.5 -34.5t-43.5 -89.5zM427 357q75 -20 115 -64.5t40 -107.5 q0 -90 -73 -145t-192 -55t-192 55t-73 145q0 63 40 107.5t114 64.5q-118 42 -118 159q0 80 63 130q64 49 166 49q104 0 166 -49q63 -50 63 -130q0 -118 -119 -159z" unicode="8" glyph-name="eight"/>
<glyph horiz-adv-x="609" d="M115 453q0 -80 52 -129t135 -49q86 0 136 49q52 49 52 129q0 81 -53 131t-135 50t-135 -50q-52 -49 -52 -131zM559 453q0 -75 -51 -147l-1 -1l-212 -305h-82l156 222q-38 -5 -67 -5q-114 0 -185 64q-71 65 -71 172t71 175q71 67 185 67t185 -67q72 -67 72 -175z" unicode="9" glyph-name="nine"/>
<glyph horiz-adv-x="274" d="M175 2q-15 -15 -38 -15q-24 0 -39 15t-15 38q0 22 15 37t39 15q23 0 38 -15q16 -16 16 -37q0 -22 -16 -38zM175 384q-15 -15 -38 -15q-24 0 -39 15t-15 38q0 22 15 37t39 15q23 0 38 -15q16 -16 16 -37q0 -22 -16 -38z" unicode=":" glyph-name="colon"/>
<glyph horiz-adv-x="278" d="M179 384q-15 -15 -38 -15q-24 0 -39 15t-15 38q0 22 15 37t39 15q23 0 38 -15q16 -16 16 -37q0 -22 -16 -38zM65 -146l53 141q-34 12 -34 45q0 22 15.5 37t38.5 15t38.5 -15t15.5 -37q-1 -16 -10.5 -40t-43.5 -99q-14 -29 -22 -47h-51z" unicode=";" glyph-name="semicolon"/>
<glyph horiz-adv-x="553" d="M478 538v-69l-347 -167l347 -167v-69l-422 201v70z" unicode="&lt;" glyph-name="less"/>
<glyph horiz-adv-x="716" d="M599 197h-482v64h482v-64zM599 391h-482v64h482v-64z" unicode="=" glyph-name="equal"/>
<glyph horiz-adv-x="553" d="M498 267l-422 -201v69l346 167l-346 167v69l422 -201v-70z" unicode="&gt;" glyph-name="greater"/>
<glyph horiz-adv-x="494" d="M153 71q14 14 36 14t36 -14q15 -15 15 -35t-15 -35q-14 -14 -36 -14t-36 14t-14 35t14 35zM222 695q108 0 173 -57q66 -56 66 -149q0 -95 -62 -154t-160 -59h-24l4 -100h-64l-13 158h85q76 0 121.5 43t45.5 114q0 64 -46.5 103.5t-123.5 39.5q-72 0 -161 -18l-11 57 q81 22 170 22z" unicode="?" glyph-name="question"/>
<glyph horiz-adv-x="1017" d="M487 424q-80 0 -126 -48t-46 -125v-6q0 -80 46.5 -129.5t121.5 -49.5q82 0 168 60q-6 26 -6 57v227q-76 14 -158 14zM508 690q202 0 325 -120q124 -120 124 -317q0 -119 -46.5 -180t-129.5 -61q-90 0 -119 65q-95 -67 -187 -67q-101 0 -164 67q-62 68 -62 176 q2 101 63 164q62 63 167 63q107 0 231 -24v-283q0 -58 18.5 -85t61.5 -27q126 0 126 192q0 179 -112 288q-113 110 -296 110q-174 0 -290 -115q-117 -114 -117 -283t113 -284q112 -113 285 -115q102 0 248 34l7 -36q-140 -36 -255 -36q-192 0 -316 124q-123 124 -123 313 q0 187 128 312t320 125z" unicode="@" glyph-name="at"/>
<glyph horiz-adv-x="760" d="M380 594l-162 -364h324zM191 166l-74 -166h-80l310 685h67l309 -685h-79l-74 166h-379z" unicode="A" glyph-name="A"/>
<glyph horiz-adv-x="678" d="M356 55q92 0 142 35t50 101q0 57 -48.5 90t-132.5 33h-196v-254q183 -5 185 -5zM350 623q-79 0 -179 -4v-244h176q79 0 123.5 33.5t44.5 92.5q0 122 -165 122zM451 350q80 -14 124 -57t44 -107q0 -93 -67.5 -143.5t-188.5 -50.5q-44 0 -263 8v680q137 6 257 6 q107 0 166.5 -46t59.5 -130q0 -60 -34 -101.5t-98 -58.5z" unicode="B" glyph-name="B"/>
<glyph horiz-adv-x="751" d="M672 661l-14 -66q-120 32 -210 32q-145 0 -227 -79q-81 -78 -81 -207q0 -131 81 -211q82 -79 217 -79q99 0 234 37l14 -62q-135 -41 -251 -41q-169 0 -269 97t-100 258q0 160 101 258q101 97 273 97q121 0 232 -34z" unicode="C" glyph-name="C"/>
<glyph horiz-adv-x="751" d="M338 59q120 0 197 77q76 77 76 209q0 129 -78 202q-77 75 -204 75q-67 0 -158 -4v-556q81 -3 167 -3zM329 688q161 0 258 -93q99 -93 99 -250q0 -161 -97 -257q-98 -95 -251 -95q-109 0 -238 7v680q168 8 229 8z" unicode="D" glyph-name="D"/>
<glyph horiz-adv-x="641" d="M171 373h360v-66h-360v-242h402v-65h-473v680h473v-65h-402v-242z" unicode="E" glyph-name="E"/>
<glyph horiz-adv-x="602" d="M171 349h349v-66h-349v-283h-71v680h461v-65h-390v-266z" unicode="F" glyph-name="F"/>
<glyph horiz-adv-x="810" d="M737 371v-317q-157 -69 -308 -69q-163 0 -264 98q-99 97 -99 258q0 159 102 256q103 98 269 98q123 0 235 -34l-14 -65q-125 31 -217 31q-136 0 -218 -79q-83 -78 -83 -207q0 -130 79 -209t210 -79q120 0 240 44v208h-272v66h340z" unicode="G" glyph-name="G"/>
<glyph horiz-adv-x="754" d="M654 0h-71v304h-412v-304h-71v680h71v-311h412v311h71v-680z" unicode="H" glyph-name="H"/>
<glyph horiz-adv-x="271" d="M171 680v-680h-71v680h71z" unicode="I" glyph-name="I"/>
<glyph horiz-adv-x="572" d="M482 680v-431q0 -125 -62.5 -194.5t-171.5 -69.5q-103 0 -222 43l15 63q122 -38 207 -38q76 0 119 51t43 144v432h72z" unicode="J" glyph-name="J"/>
<glyph horiz-adv-x="686" d="M171 282v-282h-71v680h71v-330h72l299 330h89l-303 -334l329 -346h-90l-275 282h-121z" unicode="K" glyph-name="K"/>
<glyph horiz-adv-x="586" d="M550 0h-450v680h71v-616h379v-64z" unicode="L" glyph-name="L"/>
<glyph horiz-adv-x="942" d="M750 525l-247 -525h-64l-248 525l-31 -525h-70l40 680h68l273 -595l273 595h68l40 -680h-70z" unicode="M" glyph-name="M"/>
<glyph horiz-adv-x="781" d="M681 680v-680h-72l-438 564v-564h-71v680h69l441 -566v566h71z" unicode="N" glyph-name="N"/>
<glyph horiz-adv-x="847" d="M218 131q80 -80 205 -80t205 80q79 79 79 209q0 129 -79 208q-80 80 -205 80t-205 -80q-78 -80 -78 -208q0 -130 78 -209zM165 597q100 98 258 98t258 -98q100 -97 100 -257t-100 -257q-100 -98 -258 -98t-258 98q-99 98 -99 257t99 257z" unicode="O" glyph-name="O"/>
<glyph horiz-adv-x="640" d="M171 295h166q85 0 137 45q53 45 53 118q0 77 -51.5 120.5t-138.5 43.5q-94 0 -166 -4v-323zM330 688q121 0 194 -61t73 -168q0 -103 -74 -166q-74 -62 -193 -62h-159v-231h-71v680q130 8 230 8z" unicode="P" glyph-name="P"/>
<glyph horiz-adv-x="847" d="M218 131q80 -80 205 -80t205 80q79 79 79 209q0 129 -79 208q-80 80 -205 80t-205 -80q-78 -80 -78 -208q0 -130 78 -209zM781 340q0 -116 -54.5 -202t-151.5 -125l154 -178h-90l-136 157q-32 -7 -79 -7q-159 0 -259 98q-99 98 -99 257t99 257q100 98 259 98 q158 0 258 -98q99 -97 99 -257z" unicode="Q" glyph-name="Q"/>
<glyph horiz-adv-x="658" d="M171 308h159q85 0 135.5 43.5t50.5 118.5t-49.5 113.5t-140.5 38.5q-70 0 -155 -3v-311zM541 0l-181 247q-46 -2 -53 -2h-136v-245h-71v680q146 7 224 7q122 0 192.5 -57t70.5 -160q0 -75 -41 -128.5t-115 -77.5l196 -264h-86z" unicode="R" glyph-name="R"/>
<glyph horiz-adv-x="682" d="M584 651l-18 -61q-129 38 -230 38q-76 0 -119.5 -33t-43.5 -92q0 -50 38 -74q40 -25 135 -44q101 -22 156 -46q36 -15 56 -35q47 -42 47 -118q0 -96 -70 -148q-70 -53 -183 -53q-142 0 -283 57l19 66q140 -57 267 -57q82 0 130 34.5t48 94.5q0 69 -66 99q-50 23 -140 41 q-5 1 -11.5 2.5t-9.5 1.5q-115 24 -162 62q-46 39 -46 114q0 88 66 140q65 52 174 52q132 0 246 -41z" unicode="S" glyph-name="S"/>
<glyph horiz-adv-x="669" d="M370 615v-615h-71v615h-269v65h609v-65h-269z" unicode="T" glyph-name="T"/>
<glyph horiz-adv-x="763" d="M673 680v-407q0 -130 -80 -210q-79 -78 -212 -78q-131 0 -211 78q-80 80 -80 210v407h71v-407q0 -101 60 -162q61 -60 160 -60q100 0 160 60q61 60 61 162v407h71z" unicode="U" glyph-name="U"/>
<glyph horiz-adv-x="761" d="M415 0h-69l-307 680h82l260 -586l260 586h81z" unicode="V" glyph-name="V"/>
<glyph horiz-adv-x="1057" d="M787 0h-67l-191 562l-192 -562h-67l-233 680h76l192 -571l193 571h61l193 -570l192 570h76z" unicode="W" glyph-name="W"/>
<glyph horiz-adv-x="701" d="M399 338l272 -338h-85l-236 283l-236 -283h-85l273 338l-264 342h89l223 -285l223 285h89z" unicode="X" glyph-name="X"/>
<glyph horiz-adv-x="694" d="M311 243l-285 437h81l240 -364l240 364h81l-285 -437v-243h-72v243z" unicode="Y" glyph-name="Y"/>
<glyph horiz-adv-x="663" d="M592 634l-425 -569h427v-65h-529v46l429 569h-417v65h515v-46z" unicode="Z" glyph-name="Z"/>
<glyph horiz-adv-x="327" d="M142 -157h138v-66h-206v972h206v-66h-138v-840z" unicode="[" glyph-name="bracketleft"/>
<glyph horiz-adv-x="482" d="M117 768l340 -1040h-71l-340 1040h71z" unicode="\" glyph-name="backslash"/>
<glyph horiz-adv-x="327" d="M47 683v66h206v-972h-206v66h138v840h-138z" unicode="]" glyph-name="bracketright"/>
<glyph horiz-adv-x="409" d="M204 618l-111 -172h-69l152 234h57l153 -234h-69z" unicode="^" glyph-name="asciicircum"/>
<glyph horiz-adv-x="651" d="M41 -129h568v-60h-568v60z" unicode="_" glyph-name="underscore"/>
<glyph horiz-adv-x="600" d="M372 571h-68l-109 156h92z" unicode="`" glyph-name="grave"/>
<glyph d="M297 418q-83 0 -129 -50.5t-46 -136.5q0 -84 46.5 -135.5t124.5 -51.5t164 56v305q-81 13 -160 13zM289 477q110 0 236 -25v-452h-68v41q-85 -56 -173 -56q-104 0 -167 68q-63 67 -63 180q2 112 64 177q63 67 171 67z" unicode="a" glyph-name="a"/>
<glyph horiz-adv-x="613" d="M313 418q-83 0 -156 -21v-339q82 -14 160 -14q81 0 128 51.5t47 138.5q0 85 -46.5 134.5t-132.5 49.5zM157 710v-254q73 21 163 21q112 0 175 -67q64 -65 64 -176q0 -114 -64 -181q-63 -66 -166 -66q-125 0 -241 22v701h69z" unicode="b" glyph-name="b"/>
<glyph horiz-adv-x="530" d="M471 454l-10 -55q-83 21 -144 21q-88 0 -141 -51.5t-53 -136.5q0 -84 52 -136q53 -51 134 -51q59 0 160 26l12 -57q-96 -29 -174 -29q-112 0 -183 68q-70 67 -70 180q0 111 71 179q71 67 188 67q86 0 158 -25z" unicode="c" glyph-name="c"/>
<glyph horiz-adv-x="613" d="M300 418q-86 0 -132.5 -49.5t-46.5 -134.5q0 -87 47 -138.5t128 -51.5q78 0 160 14v339q-74 21 -156 21zM525 710v-701q-116 -22 -241 -22q-102 0 -167 66q-63 67 -63 181q0 110 63 176q64 67 176 67q89 0 163 -21v254h69z" unicode="d" glyph-name="d"/>
<glyph horiz-adv-x="570" d="M296 421q-74 0 -119.5 -43.5t-51.5 -118.5h328q-1 74 -44 118t-113 44zM294 477q98 0 160 -60q60 -58 62 -159q0 -28 -4 -53h-385q8 -73 56 -115.5t123 -42.5q66 0 170 26l11 -56q-108 -32 -183 -32q-115 0 -183 68q-67 68 -67 179q0 110 67 177q68 68 173 68z" unicode="e" glyph-name="e"/>
<glyph horiz-adv-x="386" d="M378 400h-178v-400h-68v400h-126v62h126v117q0 80 45 127t120 47q35 0 79 -11l-11 -58q-35 7 -66 7q-45 0 -72 -30t-27 -83v-116h178v-62z" unicode="f" glyph-name="f"/>
<glyph horiz-adv-x="605" d="M297 418q-83 0 -129 -50.5t-46 -136.5q0 -77 47 -127t124 -50q86 0 164 14v337q-81 13 -160 13zM289 477q118 0 236 -25v-442q0 -117 -67 -187q-66 -71 -183 -71q-83 0 -173 35l13 56q96 -29 159 -29q84 0 133 51.5t50 143.5q-79 -14 -173 -14q-102 0 -167 66 q-63 67 -63 172q0 111 63 177q63 67 172 67z" unicode="g" glyph-name="g"/>
<glyph d="M342 477q88 0 138 -50.5t50 -138.5v-288h-68v272q0 67 -35 104.5t-97 37.5q-95 0 -173 -21v-393h-68v710h68v-255q82 22 185 22z" unicode="h" glyph-name="h"/>
<glyph horiz-adv-x="250" d="M160 462v-462h-69v462h69zM75 632q0 21 15 33.5t35 12.5t35 -12.5t15 -33.5v-3q0 -21 -14.5 -35t-35.5 -14q-22 0 -36 14.5t-14 37.5z" unicode="i" glyph-name="i"/>
<glyph horiz-adv-x="237" d="M148 462v-499q0 -104 -38 -151q-37 -46 -137 -48l-5 60h3q60 0 84.5 30t24.5 102v506h68zM164 629q0 -21 -14.5 -35t-35.5 -14t-36 14t-15 35t15 35.5t36 14.5t35.5 -14t14.5 -36z" unicode="j" glyph-name="j"/>
<glyph horiz-adv-x="567" d="M157 265h64l196 197h85l-204 -206l236 -256h-84l-194 202h-99v-202h-69v710h69v-445z" unicode="k" glyph-name="k"/>
<glyph horiz-adv-x="258" d="M163 710v-710h-68v710h68z" unicode="l" glyph-name="l"/>
<glyph horiz-adv-x="910" d="M651 477q179 0 179 -189v-288h-68v272q0 142 -123 142q-89 0 -161 -28q15 -34 15 -92v-294h-68v277q0 74 -29.5 105.5t-98.5 31.5q-79 -3 -140 -13v-401h-69v452q104 22 221 25q89 0 133 -39q94 39 209 39z" unicode="m" glyph-name="m"/>
<glyph horiz-adv-x="609" d="M341 477q88 0 138.5 -50.5t50.5 -138.5v-288h-69v272q0 67 -35 104.5t-97 37.5q-90 0 -172 -14v-400h-69v452q113 25 253 25z" unicode="n" glyph-name="n"/>
<glyph horiz-adv-x="614" d="M490 233q0 83 -51 133q-51 51 -132 51t-132 -51q-51 -50 -51 -133t51 -136q51 -51 132 -51t132 51q51 52 51 136zM54 233q0 111 70 178q70 69 183 69q111 0 182 -68t71 -179t-71 -180t-182 -69q-113 0 -183 69t-70 180z" unicode="o" glyph-name="o"/>
<glyph horiz-adv-x="616" d="M321 54q77 0 124 50t47 127q0 86 -46 136.5t-129 50.5q-79 0 -160 -13v-337q78 -14 164 -14zM325 477q109 0 170 -67q64 -67 65 -177q0 -105 -64 -172q-63 -66 -167 -66q-93 0 -172 14v-235h-69v678q119 25 237 25z" unicode="p" glyph-name="p"/>
<glyph horiz-adv-x="616" d="M295 54q86 0 164 14v337q-81 13 -160 13q-83 0 -129 -50.5t-46 -136.5q0 -77 47 -127t124 -50zM291 477q118 0 237 -25v-678h-69v235q-79 -14 -172 -14q-103 0 -168 66q-63 67 -63 172q1 110 64 177t171 67z" unicode="q" glyph-name="q"/>
<glyph horiz-adv-x="387" d="M346 473v-67q-108 0 -189 -10v-396h-69v449q134 24 258 24z" unicode="r" glyph-name="r"/>
<glyph horiz-adv-x="518" d="M61 31l16 57q105 -46 194 -46q56 0 89 21t33 59q0 40 -43 57q-28 13 -101 29q-2 0 -7 1.5t-8 1.5q-82 18 -117.5 46t-35.5 82q0 65 48.5 101t134.5 36q88 0 178 -32l-17 -54q-94 30 -166 30q-111 0 -111 -78q0 -32 25 -47t99 -31q79 -18 111 -32q28 -11 41 -24 q33 -30 33 -80q0 -68 -51 -105.5t-139 -37.5q-99 0 -206 46z" unicode="s" glyph-name="s"/>
<glyph horiz-adv-x="434" d="M383 55l8 -57q-51 -13 -102 -13q-80 0 -118.5 42.5t-38.5 133.5v239h-106v62h106v194h68v-194h165v-62h-165v-233q0 -63 23.5 -91.5t76.5 -28.5q32 0 83 8z" unicode="t" glyph-name="t"/>
<glyph horiz-adv-x="611" d="M524 462v-452q-104 -25 -253 -25q-91 0 -139.5 47.5t-48.5 141.5v288h68v-275q0 -70 34 -106.5t98 -36.5q81 0 173 14v404h68z" unicode="u" glyph-name="u"/>
<glyph horiz-adv-x="583" d="M328 0h-73l-216 462h76l177 -382l176 382h75z" unicode="v" glyph-name="v"/>
<glyph horiz-adv-x="823" d="M609 0h-67l-131 362l-130 -362h-67l-169 462h70l135 -367l134 367h56l132 -368l136 368h70z" unicode="w" glyph-name="w"/>
<glyph horiz-adv-x="544" d="M317 231l191 -231h-82l-154 184l-155 -184h-81l191 231l-187 231h83l149 -182l150 182h82z" unicode="x" glyph-name="x"/>
<glyph horiz-adv-x="616" d="M580 462l-351 -687h-77l127 249l-238 438h78l197 -365l187 365h77z" unicode="y" glyph-name="y"/>
<glyph horiz-adv-x="496" d="M439 421l-290 -361h299v-60h-396v36l293 366h-283v60h377v-41z" unicode="z" glyph-name="z"/>
<glyph horiz-adv-x="362" d="M214 580v-184q0 -60 -16 -91t-57 -45q41 -14 57 -45t16 -92v-183q0 -62 23 -87t78 -25v-62q-88 0 -128.5 42.5t-40.5 133.5v180q0 60 -22 83.5t-79 23.5v61q57 0 79 23t22 85v179q0 91 41 134t128 43v-62q-55 0 -78 -25t-23 -87z" unicode="{" glyph-name="braceleft"/>
<glyph horiz-adv-x="311" d="M188 764v-918h-65v918h65z" unicode="|" glyph-name="bar"/>
<glyph horiz-adv-x="362" d="M148 396v184q0 62 -23 87t-78 25v62q87 0 128 -43t41 -134v-179q0 -62 22 -85t79 -23v-61q-57 0 -79 -23.5t-22 -83.5v-180q0 -91 -40.5 -133.5t-128.5 -42.5v62q55 0 78 25t23 87v183q0 61 16 92t57 45q-41 14 -57 45t-16 91z" unicode="}" glyph-name="braceright"/>
<glyph horiz-adv-x="459" d="M349 395h60q0 -55 -29 -82.5t-71 -27.5q-33 0 -58 15l-63 43q-15 11 -33 11q-19 0 -32 -13.5t-13 -36.5h-61q0 55 29.5 82.5t71.5 27.5q33 0 57 -15l64 -43q15 -11 33 -11q19 0 32 13.5t13 36.5z" unicode="~" glyph-name="asciitilde"/>
<glyph horiz-adv-x="266" d="M96 290h68l4 -504h-75zM95 465q14 14 36 14q21 0 35 -14q15 -15 15 -35t-15 -35q-14 -14 -35 -14q-22 0 -36 14t-14 35t14 35z" unicode="¡" glyph-name="exclamdown"/>
<glyph horiz-adv-x="517" d="M465 82l11 -58q-70 -22 -142 -27v-122h-63v123q-99 9 -161 75q-61 65 -61 168t60 168q61 65 162 76v123h63v-122q69 -3 133 -25l-11 -56q-83 21 -148 21q-84 0 -137 -51q-52 -49 -52 -133q0 -83 52 -134q53 -51 134 -51q64 0 160 25z" unicode="¢" glyph-name="cent"/>
<glyph horiz-adv-x="617" d="M574 0h-530v60h75v223h-75v60h75v146q0 93 66 149q66 57 173 57q90 0 171 -22l-12 -57q-87 18 -161 18q-76 0 -122 -39.5t-46 -105.5v-146h239v-60h-239v-223h386v-60z" unicode="£" glyph-name="sterling"/>
<glyph horiz-adv-x="682" d="M592 284v-53h-215v-88h215v-53h-215v-90h-71v90h-216v53h216v88h-216v53h190l-260 396h81l240 -364l241 364h80l-259 -396h189z" unicode="¥" glyph-name="yen"/>
<glyph horiz-adv-x="311" d="M188 -155h-65v408h65v-408zM188 355h-65v408h65v-408z" unicode="¦" glyph-name="brokenbar"/>
<glyph horiz-adv-x="534" d="M185 430q-43 -28 -62 -54t-19 -61q0 -47 36 -76q34 -26 126 -67q78 -35 83 -38q43 28 62 54t19 61q0 48 -36 75q-33 26 -126 68q-78 35 -83 38zM275 695q94 0 178 -35l-20 -54q-84 33 -158 33q-59 0 -91.5 -21.5t-32.5 -61.5q0 -33 24 -51q26 -19 94 -48q10 -3 26 -11 q107 -44 151 -82q45 -39 45 -106q0 -51 -23.5 -85t-73.5 -65q54 -40 54 -98q0 -66 -50 -103.5t-139 -37.5q-94 0 -178 35l20 54q84 -33 158 -33q59 0 91.5 21.5t32.5 61.5q0 33 -25 51q-24 18 -93 48l-26 11q-107 44 -151 82q-45 39 -45 106q0 51 23.5 85t73.5 65 q-53 41 -53 98q0 66 49.5 103.5t138.5 37.5z" unicode="§" glyph-name="section"/>
<glyph horiz-adv-x="600" d="M453 628q0 -19 -14 -32.5t-34 -13.5t-34 13.5t-14 32.5q0 20 14 33.5t34 13.5t34 -13.5t14 -33.5zM243 628q0 -19 -14 -32.5t-34 -13.5t-34 13.5t-14 32.5t14 33t34 14t34 -13.5t14 -33.5z" unicode="¨" glyph-name="dieresis"/>
<glyph horiz-adv-x="840" d="M560 513l-9 -46q-77 20 -124 20q-71 0 -109 -39t-38 -109t38 -108.5t108 -38.5q49 0 125 19l9 -45q-70 -24 -134 -24q-96 0 -149.5 52.5t-53.5 144.5t53.5 144.5t150.5 52.5q56 0 133 -23zM652 567q-94 92 -232 92t-233 -92q-93 -91 -93 -227t93 -228q94 -91 233 -91 q140 0 232 91q94 91 94 228q0 136 -94 227zM160 593q104 102 260 102t260 -102q104 -101 104 -253t-104 -254q-104 -101 -260 -101t-260 101q-104 102 -104 254t104 253z" unicode="©" glyph-name="copyright"/>
<glyph horiz-adv-x="462" d="M339 518l-129 -6q-96 -4 -96 -59q0 -61 101 -61q44 0 124 11v115zM245 695q75 0 110.5 -30t35.5 -94v-206q-109 -18 -186 -18q-144 0 -144 107q0 93 155 101l123 5v10q-2 40 -23.5 58t-69.5 18q-56 0 -141 -12l-6 47q84 14 146 14z" unicode="ª" glyph-name="ordfeminine"/>
<glyph horiz-adv-x="545" d="M471 86l-38 -37l-186 197l186 196l39 -32l-145 -162zM275 86l-39 -37l-185 197l185 196l40 -32l-145 -162z" unicode="«" glyph-name="guillemotleft"/>
<glyph horiz-adv-x="840" d="M424 493q-7 0 -49 -2q-21 -1 -37 -1v-163h89q45 0 72.5 23.5t27.5 62.5q0 38 -27.5 59t-75.5 21zM422 538q72 0 113.5 -33t41.5 -93q0 -88 -88 -116l111 -147h-63l-99 134q-2 0 -9.5 -0.5t-9.5 -0.5h-81v-133h-51v386q105 3 135 3zM652 567q-94 92 -232 92t-233 -92 q-93 -91 -93 -227t93 -228q94 -91 233 -91q140 0 232 91q94 91 94 228q0 136 -94 227zM160 593q104 102 260 102t260 -102q104 -101 104 -253t-104 -254q-104 -101 -260 -101t-260 101q-104 102 -104 254t104 253z" unicode="®" glyph-name="registered"/>
<glyph horiz-adv-x="600" d="M435 673v-56h-271v56h271z" unicode="¯" glyph-name="overscore"/>
<glyph horiz-adv-x="487" d="M243 422q47 0 79 32q33 32 33 78t-33 78q-32 32 -79 32q-46 0 -78.5 -32t-32.5 -78t32.5 -78t78.5 -32zM243 695q72 0 119 -47q48 -46 48 -116t-48 -117q-46 -46 -119 -46q-72 0 -119 46q-48 47 -48 117t48 116q49 47 119 47z" unicode="°" glyph-name="degree"/>
<glyph horiz-adv-x="693" d="M576 109v-64h-459v64h459zM576 324h-195v-159h-67v159h-197v64h197v159h67v-159h195v-64z" unicode="±" glyph-name="plusminus"/>
<glyph horiz-adv-x="352" d="M311 306h-274v36l139 122q68 54 68 101q0 34 -23 52t-64 18q-51 0 -109 -24l-13 47q57 28 130 28q64 0 100 -32t36 -82q0 -38 -22.5 -70.5t-75.5 -80.5l-78 -68h186v-47z" unicode="²" glyph-name="twosuperior"/>
<glyph horiz-adv-x="357" d="M301 647l-122 -127l9 -1q60 -2 94 -29.5t34 -71.5q0 -54 -40 -86t-111 -32q-76 0 -137 31l19 43q63 -26 120 -26q42 0 70 18.5t28 47.5q0 60 -91 60h-71v26l123 132h-178v48h253v-33z" unicode="³" glyph-name="threesuperior"/>
<glyph horiz-adv-x="600" d="M426 727l-109 -156h-67l84 156h92z" unicode="´" glyph-name="acute"/>
<glyph horiz-adv-x="746" d="M375 621l-98 1q-84 0 -127 -42t-43 -122q0 -76 44.5 -119.5t125.5 -43.5h98v326zM284 688q240 0 370 -8v-784h-71v720q-71 4 -137 4v-724h-71v335h-91q-116 0 -181.5 61t-65.5 167q0 109 64 169t183 60z" unicode="¶" glyph-name="paragraph"/>
<glyph horiz-adv-x="274" d="M175 219q-15 -15 -38 -15q-24 0 -39 15t-15 37t15 37q16 16 39 16q22 0 38 -16t16 -37t-16 -37z" unicode="·" glyph-name="middot"/>
<glyph horiz-adv-x="600" d="M275 -204h-59l51 154h67z" unicode="¸" glyph-name="cedilla"/>
<glyph horiz-adv-x="288" d="M260 356v-48h-236v48h95v258l-89 -26l-12 48l138 44h16v-324h88z" unicode="¹" glyph-name="onesuperior"/>
<glyph horiz-adv-x="453" d="M226 396q54 0 89.5 35t35.5 91q0 54 -35.5 88.5t-89.5 34.5t-89 -34.5t-35 -88.5q0 -56 35 -91t89 -35zM226 695q79 0 130 -48t51 -125q0 -78 -51 -128q-50 -49 -130 -49q-79 0 -129 49q-51 50 -51 128q0 77 51 125t129 48z" unicode="º" glyph-name="ordmasculine"/>
<glyph horiz-adv-x="545" d="M267 410l39 32l186 -196l-186 -197l-39 37l145 162zM71 410l40 32l185 -196l-185 -197l-39 37l144 162z" unicode="»" glyph-name="guillemotright"/>
<glyph horiz-adv-x="866" d="M697 309l-161 -179h161v179zM809 130v-47h-58v-83h-54v83h-231v39l228 250h57v-242h58zM694 680l-453 -680h-45l453 680h45zM68 308v48h95v258l-89 -26l-12 48l138 44h16v-324h88v-48h-236z" unicode="¼" glyph-name="onequarter"/>
<glyph horiz-adv-x="883" d="M815 47v-47h-273v36l139 122q35 29 51 51.5t16 49.5q0 33 -23 51.5t-63 18.5q-52 0 -109 -24l-14 47q57 28 131 28q63 0 99 -32t36 -82q0 -38 -23 -71.5t-74 -79.5l-78 -68h185zM678 680l-453 -680h-44l453 680h44zM68 308v48h95v258l-89 -26l-12 48l138 44h16v-324h88 v-48h-236z" unicode="½" glyph-name="onehalf"/>
<glyph horiz-adv-x="922" d="M274 0h-44l453 680h44zM568 130h161v179zM783 130h58v-47h-58v-83h-54v83h-231v39l228 250h57v-242zM347 647l-122 -127l9 -1q60 -2 94 -29.5t34 -71.5q0 -54 -40 -86t-111 -32q-76 0 -137 31l19 43q63 -26 120 -26q42 0 70 18.5t28 47.5q0 60 -91 60h-71v26l123 132 h-178v48h253v-33z" unicode="¾" glyph-name="threequarters"/>
<glyph horiz-adv-x="501" d="M290 -192q-107 0 -173 57q-65 56 -65 149q0 96 61 154q62 59 161 59h24l-4 100h64l12 -158h-84q-76 0 -121.5 -43t-45.5 -114q0 -64 46.5 -103.5t123.5 -39.5q78 0 161 19l11 -58q-88 -22 -171 -22zM358 432q-14 -14 -35 -14q-22 0 -36 14t-14 35t14 35t36 14 q21 0 35 -14q15 -15 15 -35t-15 -35z" unicode="¿" glyph-name="questiondown"/>
<glyph horiz-adv-x="760" d="M380 594l-162 -364h323zM190 166l-73 -166h-80l309 685h68l309 -685h-79l-74 166h-380zM414 744h-67l-109 152h92z" unicode="À" glyph-name="Agrave"/>
<glyph horiz-adv-x="760" d="M380 594l-162 -364h323zM190 166l-73 -166h-80l309 685h68l309 -685h-79l-74 166h-380zM531 896l-109 -152h-72l89 152h92z" unicode="Á" glyph-name="Aacute"/>
<glyph horiz-adv-x="760" d="M380 594l-162 -364h323zM190 166l-73 -166h-80l309 685h68l309 -685h-79l-74 166h-380zM380 848l-89 -104h-69l126 152h64l126 -152h-69z" unicode="Â" glyph-name="Acircumflex"/>
<glyph horiz-adv-x="760" d="M380 594l-162 -364h323zM190 166l-73 -166h-80l309 685h68l309 -685h-79l-74 166h-380zM482 847h55q0 -48 -25.5 -72.5t-62.5 -24.5q-27 0 -50 13l-55 37q-17 10 -29 10q-16 0 -27 -11.5t-11 -31.5h-54q0 42 23.5 69t54.5 27h2q32 0 58 -13l55 -36q17 -10 29 -10 q16 0 26.5 11.5t10.5 31.5z" unicode="Ã" glyph-name="Atilde"/>
<glyph horiz-adv-x="760" d="M380 594l-162 -364h323zM190 166l-73 -166h-80l309 685h68l309 -685h-79l-74 166h-380zM437 819q0 19 14 32.5t34 13.5t34 -13.5t14 -32.5q0 -20 -14 -33.5t-34 -13.5t-34 13.5t-14 33.5zM227 819q0 19 14 32.5t34 13.5t34 -13.5t14 -32.5q0 -20 -14 -33.5t-34 -13.5 t-34 13.5t-14 33.5z" unicode="Ä" glyph-name="Adieresis"/>
<glyph horiz-adv-x="760" d="M380 594l-162 -364h323zM190 166l-73 -166h-80l309 685h68l309 -685h-79l-74 166h-380zM436 827q0 24 -16 37.5t-39 13.5t-39 -13.5t-16 -37.5v-4q0 -24 15.5 -39t39.5 -15q25 0 40 16t15 42zM381 917q42 0 69.5 -26t27.5 -68q0 -41 -27.5 -67t-69.5 -26t-69.5 26 t-27.5 67q0 42 27 68t70 26z" unicode="Å" glyph-name="Aring"/>
<glyph horiz-adv-x="1105" d="M565 594l-272 -364h272v364zM635 373h361v-66h-361v-242h402v-65h-472v164h-319l-122 -164h-87l508 680h492v-65h-402v-242z" unicode="Æ" glyph-name="AE"/>
<glyph horiz-adv-x="751" d="M383 -204h-59l51 154h67zM672 661l-13 -66q-122 32 -210 32q-145 0 -227 -79q-81 -78 -81 -207q0 -131 81 -211q80 -79 216 -79q99 0 235 37l13 -62q-134 -41 -251 -41q-169 0 -269 97t-100 258q0 160 101 258q101 97 274 97q120 0 231 -34z" unicode="Ç" glyph-name="Ccedilla"/>
<glyph horiz-adv-x="641" d="M367 744h-67l-109 152h92zM171 373h360v-66h-360v-242h402v-65h-473v680h473v-65h-402v-242z" unicode="È" glyph-name="Egrave"/>
<glyph horiz-adv-x="641" d="M484 896l-109 -152h-72l89 152h92zM171 373h360v-66h-360v-242h402v-65h-473v680h473v-65h-402v-242z" unicode="É" glyph-name="Eacute"/>
<glyph horiz-adv-x="641" d="M171 373h360v-66h-360v-242h402v-65h-473v680h473v-65h-402v-242zM333 848l-89 -104h-69l126 152h64l126 -152h-69z" unicode="Ê" glyph-name="Ecircumflex"/>
<glyph horiz-adv-x="641" d="M171 373h360v-66h-360v-242h402v-65h-473v680h473v-65h-402v-242zM390 819q0 19 14 32.5t34 13.5t34 -13.5t14 -32.5q0 -20 -14 -33.5t-34 -13.5t-34 13.5t-14 33.5zM180 819q0 19 14 32.5t34 13.5t34 -13.5t14 -32.5q0 -20 -14 -33.5t-34 -13.5t-34 13.5t-14 33.5z" unicode="Ë" glyph-name="Edieresis"/>
<glyph horiz-adv-x="271" d="M169 744h-67l-109 152h92zM171 680v-680h-71v680h71z" unicode="Ì" glyph-name="Igrave"/>
<glyph horiz-adv-x="271" d="M286 896l-109 -152h-72l89 152h92zM171 680v-680h-71v680h71z" unicode="Í" glyph-name="Iacute"/>
<glyph horiz-adv-x="271" d="M171 680v-680h-71v680h71zM135 848l-89 -104h-69l126 152h64l126 -152h-69z" unicode="Î" glyph-name="Icircumflex"/>
<glyph horiz-adv-x="271" d="M171 680v-680h-71v680h71zM192 819q0 19 14 32.5t34 13.5t34 -13.5t14 -32.5q0 -20 -14 -33.5t-34 -13.5t-34 13.5t-14 33.5zM-18 819q0 19 14 32.5t34 13.5t34 -13.5t14 -32.5q0 -20 -14 -33.5t-34 -13.5t-34 13.5t-14 33.5z" unicode="Ï" glyph-name="Idieresis"/>
<glyph horiz-adv-x="751" d="M338 59q120 0 197 77q76 77 76 209q0 129 -78 202q-77 75 -204 75q-67 0 -158 -4v-249h182v-65h-182v-242q81 -3 167 -3zM329 688q161 0 258 -93q99 -93 99 -250q0 -161 -97 -257q-98 -95 -251 -95q-109 0 -238 7v304h-66v65h66v311q168 8 229 8z" unicode="Ð" glyph-name="Eth"/>
<glyph horiz-adv-x="781" d="M681 680v-680h-72l-438 564v-564h-71v680h69l441 -566v566h71zM488 847h55q0 -48 -25.5 -72.5t-62.5 -24.5q-27 0 -50 13l-55 37q-17 10 -29 10q-16 0 -27 -11.5t-11 -31.5h-54q0 42 23.5 69t54.5 27h2q32 0 58 -13l55 -36q17 -10 29 -10q16 0 26.5 11.5t10.5 31.5z" unicode="Ñ" glyph-name="Ntilde"/>
<glyph horiz-adv-x="847" d="M218 131q80 -80 205 -80t205 80q79 79 79 209q0 129 -79 208q-80 80 -205 80t-205 -80q-78 -80 -78 -208q0 -130 78 -209zM424 695q158 0 258 -98q99 -97 99 -257q0 -159 -99 -257q-100 -98 -258 -98q-159 0 -259 98q-99 98 -99 257t99 257q100 98 259 98zM457 744h-67 l-109 152h92z" unicode="Ò" glyph-name="Ograve"/>
<glyph horiz-adv-x="847" d="M218 131q80 -80 205 -80t205 80q79 79 79 209q0 129 -79 208q-80 80 -205 80t-205 -80q-78 -80 -78 -208q0 -130 78 -209zM424 695q158 0 258 -98q99 -97 99 -257q0 -159 -99 -257q-100 -98 -258 -98q-159 0 -259 98q-99 98 -99 257t99 257q100 98 259 98zM574 896 l-109 -152h-72l89 152h92z" unicode="Ó" glyph-name="Oacute"/>
<glyph horiz-adv-x="847" d="M218 131q80 -80 205 -80t205 80q79 79 79 209q0 129 -79 208q-80 80 -205 80t-205 -80q-78 -80 -78 -208q0 -130 78 -209zM424 695q158 0 258 -98q99 -97 99 -257q0 -159 -99 -257q-100 -98 -258 -98q-159 0 -259 98q-99 98 -99 257t99 257q100 98 259 98zM423 848 l-89 -104h-69l126 152h64l126 -152h-69z" unicode="Ô" glyph-name="Ocircumflex"/>
<glyph horiz-adv-x="847" d="M218 131q80 -80 205 -80t205 80q79 79 79 209q0 129 -79 208q-80 80 -205 80t-205 -80q-78 -80 -78 -208q0 -130 78 -209zM424 695q158 0 258 -98q99 -97 99 -257q0 -159 -99 -257q-100 -98 -258 -98q-159 0 -259 98q-99 98 -99 257t99 257q100 98 259 98zM525 847h55 q0 -48 -25.5 -72.5t-62.5 -24.5q-27 0 -50 13l-55 37q-17 10 -29 10q-16 0 -27 -11.5t-11 -31.5h-54q0 42 23.5 69t54.5 27h2q32 0 58 -13l55 -36q17 -10 29 -10q16 0 26.5 11.5t10.5 31.5z" unicode="Õ" glyph-name="Otilde"/>
<glyph horiz-adv-x="847" d="M218 131q80 -80 205 -80t205 80q79 79 79 209q0 129 -79 208q-80 80 -205 80t-205 -80q-78 -80 -78 -208q0 -130 78 -209zM424 695q158 0 258 -98q99 -97 99 -257q0 -159 -99 -257q-100 -98 -258 -98q-159 0 -259 98q-99 98 -99 257t99 257q100 98 259 98zM480 819 q0 19 14 32.5t34 13.5t34 -13.5t14 -32.5q0 -20 -14 -33.5t-34 -13.5t-34 13.5t-14 33.5zM270 819q0 19 14 32.5t34 13.5t34 -13.5t14 -32.5q0 -20 -14 -33.5t-34 -13.5t-34 13.5t-14 33.5z" unicode="Ö" glyph-name="Odieresis"/>
<glyph horiz-adv-x="664" d="M535 160l-46 -45l-157 158l-158 -158l-46 45l158 158l-158 158l46 45l158 -157l157 157l46 -45l-158 -158z" unicode="×" glyph-name="multiply"/>
<glyph horiz-adv-x="847" d="M423 51q125 0 205 80q79 79 79 209q0 123 -73 202l-379 -441q71 -50 168 -50zM140 340q0 -120 69 -198l378 440q-68 46 -164 46q-125 0 -205 -80q-78 -80 -78 -208zM730 654l-48 -56q99 -98 99 -258q0 -159 -99 -257q-100 -98 -258 -98q-124 0 -215 62l-52 -60l-47 40 l51 60q-95 98 -95 253q0 159 99 257q100 98 259 98q122 0 210 -58l49 57z" unicode="Ø" glyph-name="Oslash"/>
<glyph horiz-adv-x="763" d="M415 744h-67l-109 152h92zM673 680v-407q0 -130 -80 -210q-79 -78 -212 -78q-131 0 -211 78q-80 80 -80 210v407h71v-407q0 -101 60 -162q61 -60 160 -60q100 0 160 60q61 60 61 162v407h71z" unicode="Ù" glyph-name="Ugrave"/>
<glyph horiz-adv-x="763" d="M532 896l-109 -152h-72l89 152h92zM673 680v-407q0 -130 -80 -210q-79 -78 -212 -78q-131 0 -211 78q-80 80 -80 210v407h71v-407q0 -101 60 -162q61 -60 160 -60q100 0 160 60q61 60 61 162v407h71z" unicode="Ú" glyph-name="Uacute"/>
<glyph horiz-adv-x="763" d="M673 680v-407q0 -130 -80 -210q-79 -78 -212 -78q-131 0 -211 78q-80 80 -80 210v407h71v-407q0 -101 60 -162q61 -60 160 -60q100 0 160 60q61 60 61 162v407h71zM382 848l-89 -104h-69l126 152h64l126 -152h-69z" unicode="Û" glyph-name="Ucircumflex"/>
<glyph horiz-adv-x="763" d="M673 680v-407q0 -130 -80 -210q-79 -78 -212 -78q-131 0 -211 78q-80 80 -80 210v407h71v-407q0 -101 60 -162q61 -60 160 -60q100 0 160 60q61 60 61 162v407h71zM439 819q0 19 14 32.5t34 13.5t34 -13.5t14 -32.5q0 -20 -14 -33.5t-34 -13.5t-34 13.5t-14 33.5z M229 819q0 19 14 32.5t34 13.5t34 -13.5t14 -32.5q0 -20 -14 -33.5t-34 -13.5t-34 13.5t-14 33.5z" unicode="Ü" glyph-name="Udieresis"/>
<glyph horiz-adv-x="694" d="M312 243l-286 437h81l240 -364l241 364h80l-285 -437v-243h-71v243zM497 896l-109 -152h-72l89 152h92z" unicode="Ý" glyph-name="Yacute"/>
<glyph horiz-adv-x="640" d="M171 186h166q85 0 137.5 44.5t52.5 117.5q0 78 -51.5 121.5t-138.5 43.5q-53 0 -166 -5v-322zM330 578q121 0 194 -61t73 -168q0 -102 -74 -165q-73 -63 -193 -63h-159v-121h-71v680h71v-106q71 4 159 4z" unicode="Þ" glyph-name="Thorn"/>
<glyph horiz-adv-x="649" d="M263 753v-62q-54 0 -77.5 -28.5t-23.5 -91.5v-109h417v-45l-194 -221h29q91 -6 143.5 -57t52.5 -134q0 -96 -67 -154q-68 -59 -177 -59q-70 0 -147 20l11 58q87 -17 137 -17q79 0 127.5 41t48.5 109q0 62 -42 97.5t-114 35.5h-96v34l195 228h-324v-398h-68v577 q0 91 40.5 133.5t128.5 42.5z" unicode="ß" glyph-name="germandbls"/>
<glyph d="M297 418q-83 0 -129 -50.5t-46 -136.5q0 -84 46.5 -135.5t123.5 -51.5q79 0 165 56v305q-81 13 -160 13zM525 452v-452h-68v41q-86 -56 -173 -56q-104 0 -167 68q-63 67 -63 180q2 111 63 177q63 67 171 67q111 0 237 -25zM365 571h-68l-109 156h92z" unicode="à" glyph-name="agrave"/>
<glyph d="M297 418q-83 0 -129 -50.5t-46 -136.5q0 -84 46.5 -135.5t123.5 -51.5q79 0 165 56v305q-81 13 -160 13zM525 452v-452h-68v41q-86 -56 -173 -56q-104 0 -167 68q-63 67 -63 180q2 111 63 177q63 67 171 67q111 0 237 -25zM447 727l-109 -156h-67l84 156h92z" unicode="á" glyph-name="aacute"/>
<glyph d="M297 418q-83 0 -129 -50.5t-46 -136.5q0 -84 46.5 -135.5t123.5 -51.5q79 0 165 56v305q-81 13 -160 13zM525 452v-452h-68v41q-86 -56 -173 -56q-104 0 -167 68q-63 67 -63 180q2 111 63 177q63 67 171 67q111 0 237 -25zM315 668l-89 -100h-69l126 149h64l126 -149h-69 z" unicode="â" glyph-name="acircumflex"/>
<glyph d="M297 418q-83 0 -129 -50.5t-46 -136.5q0 -84 46.5 -135.5t123.5 -51.5q79 0 165 56v305q-81 13 -160 13zM525 452v-452h-68v41q-86 -56 -173 -56q-104 0 -167 68q-63 67 -63 180q2 111 63 177q63 67 171 67q111 0 237 -25zM417 674h55q0 -48 -26 -72.5t-62 -24.5 q-27 0 -50 14l-55 36q-17 10 -29 10q-16 0 -27 -11.5t-11 -31.5h-54q0 42 23.5 69t54.5 27h2q32 0 58 -13l55 -36q17 -10 29 -10q16 0 26.5 11.5t10.5 31.5z" unicode="ã" glyph-name="atilde"/>
<glyph d="M297 418q-83 0 -129 -50.5t-46 -136.5q0 -84 46.5 -135.5t123.5 -51.5q79 0 165 56v305q-81 13 -160 13zM525 452v-452h-68v41q-86 -56 -173 -56q-104 0 -167 68q-63 67 -63 180q2 111 63 177q63 67 171 67q111 0 237 -25zM468 628q0 -19 -14 -32.5t-34 -13.5t-34 13.5 t-14 32.5q0 20 14 33.5t34 13.5t34 -13.5t14 -33.5zM258 628q0 -19 -14 -32.5t-34 -13.5t-34 13.5t-14 32.5t14 33t34 14t34 -13.5t14 -33.5z" unicode="ä" glyph-name="adieresis"/>
<glyph d="M297 418q-83 0 -129 -50.5t-46 -136.5q0 -84 46.5 -135.5t123.5 -51.5q79 0 165 56v305q-81 13 -160 13zM525 452v-452h-68v41q-86 -56 -173 -56q-104 0 -167 68q-63 67 -63 180q2 111 63 177q63 67 171 67q111 0 237 -25zM276 605q15 -15 40 -15q24 0 39 15q16 16 16 40 q0 23 -16 39t-39 16q-24 0 -40 -16q-15 -15 -15 -39q0 -25 15 -40zM316 739q42 0 69.5 -26t27.5 -68q0 -41 -27.5 -67.5t-69.5 -26.5t-69.5 26.5t-27.5 67.5q0 42 27 68t70 26z" unicode="å" glyph-name="aring"/>
<glyph horiz-adv-x="902" d="M109 133q0 -92 142 -92q75 0 180 37q-38 53 -44 122h-142h-6q-130 0 -130 -67zM626 421q-72 0 -118 -43.5t-53 -118.5h328q-1 74 -44 118t-113 44zM846 257q0 -29 -3 -52h-387q8 -72 57 -115t124 -43q57 0 170 26l10 -56q-108 -32 -182 -32q-98 0 -163 50 q-133 -50 -235 -50q-193 0 -193 150q0 123 201 123h5l134 -1v39q0 63 -23.5 92.5t-76.5 29.5q-86 0 -182 -16l-7 58q110 19 192 19q117 0 148 -88q68 86 190 86q97 0 159 -60q62 -59 62 -159v-1z" unicode="æ" glyph-name="ae"/>
<glyph horiz-adv-x="530" d="M262 -204h-59l51 154h67zM471 454l-10 -55q-83 21 -144 21q-88 0 -141 -51.5t-53 -136.5q0 -84 52 -136q53 -51 134 -51q59 0 160 26l11 -57q-93 -29 -173 -29q-112 0 -183 68q-70 67 -70 180q0 111 71 179q71 67 188 67q86 0 158 -25z" unicode="ç" glyph-name="ccedilla"/>
<glyph horiz-adv-x="570" d="M295 421q-73 0 -118.5 -44t-51.5 -118h328q-1 74 -44.5 118t-113.5 44zM294 477q98 0 159 -60q60 -58 62 -159q0 -30 -3 -53h-385q8 -73 56 -115.5t123 -42.5q66 0 170 26l11 -56q-110 -32 -183 -32q-115 0 -183 68q-67 68 -67 179q0 110 67 177q68 68 173 68zM357 571 h-68l-109 156h92z" unicode="è" glyph-name="egrave"/>
<glyph horiz-adv-x="570" d="M295 421q-73 0 -118.5 -44t-51.5 -118h328q-1 74 -44.5 118t-113.5 44zM294 477q98 0 159 -60q60 -58 62 -159q0 -30 -3 -53h-385q8 -73 56 -115.5t123 -42.5q66 0 170 26l11 -56q-110 -32 -183 -32q-115 0 -183 68q-67 68 -67 179q0 110 67 177q68 68 173 68zM439 727 l-109 -156h-67l84 156h92z" unicode="é" glyph-name="eacute"/>
<glyph horiz-adv-x="570" d="M295 421q-73 0 -118.5 -44t-51.5 -118h328q-1 74 -44.5 118t-113.5 44zM294 477q98 0 159 -60q60 -58 62 -159q0 -30 -3 -53h-385q8 -73 56 -115.5t123 -42.5q66 0 170 26l11 -56q-110 -32 -183 -32q-115 0 -183 68q-67 68 -67 179q0 110 67 177q68 68 173 68zM307 668 l-89 -100h-69l126 149h64l126 -149h-69z" unicode="ê" glyph-name="ecircumflex"/>
<glyph horiz-adv-x="570" d="M295 421q-73 0 -118.5 -44t-51.5 -118h328q-1 74 -44.5 118t-113.5 44zM294 477q98 0 159 -60q60 -58 62 -159q0 -30 -3 -53h-385q8 -73 56 -115.5t123 -42.5q66 0 170 26l11 -56q-110 -32 -183 -32q-115 0 -183 68q-67 68 -67 179q0 110 67 177q68 68 173 68zM461 628 q0 -19 -14 -32.5t-34 -13.5t-34 13.5t-14 32.5q0 20 14 33.5t34 13.5t34 -13.5t14 -33.5zM251 628q0 -19 -14 -32.5t-34 -13.5t-34 13.5t-14 32.5t14 33t34 14t34 -13.5t14 -33.5z" unicode="ë" glyph-name="edieresis"/>
<glyph horiz-adv-x="251" d="M159 462v-462h-68v462h68zM153 571h-67l-109 156h92z" unicode="ì" glyph-name="igrave"/>
<glyph horiz-adv-x="251" d="M159 462v-462h-68v462h68zM269 727l-109 -156h-68l85 156h92z" unicode="í" glyph-name="iacute"/>
<glyph horiz-adv-x="251" d="M159 462v-462h-68v462h68zM126 668l-89 -100h-69l126 149h64l126 -149h-69z" unicode="î" glyph-name="icircumflex"/>
<glyph horiz-adv-x="251" d="M159 462v-462h-68v462h68zM279 628q0 -19 -14 -32.5t-34 -13.5t-34 13.5t-14 32.5q0 20 14 33.5t34 13.5t34 -13.5t14 -33.5zM69 628q0 -19 -14 -32.5t-34 -13.5t-34 13.5t-14 32.5t14 33t34 14t34 -13.5t14 -33.5z" unicode="ï" glyph-name="idieresis"/>
<glyph horiz-adv-x="614" d="M124 233q0 -83 51 -135q52 -52 132 -52q85 0 134 51.5t49 141.5q0 82 -52 130q-51 48 -131 48q-79 0 -132 -51q-51 -51 -51 -133zM172 683l73 29q66 -24 118 -61l85 31l17 -44l-60 -23q73 -64 114 -159.5t41 -207.5q0 -124 -67.5 -194t-185.5 -70q-110 0 -182 69 q-71 69 -71 180q0 109 70 178t175 69q112 0 166 -81q-41 126 -126 193l-159 -59l-16 44l128 48q-54 37 -120 58z" unicode="ð" glyph-name="eth"/>
<glyph horiz-adv-x="609" d="M341 477q88 0 138 -50.5t50 -138.5v-288h-68v272q0 67 -35.5 104.5t-97.5 37.5q-90 0 -172 -14v-400h-68v452q110 25 253 25zM406 674h55q0 -48 -26 -72.5t-62 -24.5q-27 0 -50 14l-55 36q-17 10 -29 10q-16 0 -27 -11.5t-11 -31.5h-54q0 42 23.5 69t54.5 27h2 q32 0 58 -13l55 -36q17 -10 29 -10q16 0 26.5 11.5t10.5 31.5z" unicode="ñ" glyph-name="ntilde"/>
<glyph horiz-adv-x="614" d="M490 233q0 83 -51 133q-51 51 -132 51t-132 -51q-51 -50 -51 -133t51 -136q51 -51 132 -51t132 51q51 52 51 136zM560 233q0 -111 -71 -180t-182 -69q-113 0 -183 69t-70 180t70 178q70 69 183 69q111 0 182 -69q71 -68 71 -178zM357 571h-68l-109 156h92z" unicode="ò" glyph-name="ograve"/>
<glyph horiz-adv-x="614" d="M490 233q0 83 -51 133q-51 51 -132 51t-132 -51q-51 -50 -51 -133t51 -136q51 -51 132 -51t132 51q51 52 51 136zM560 233q0 -111 -71 -180t-182 -69q-113 0 -183 69t-70 180t70 178q70 69 183 69q111 0 182 -69q71 -68 71 -178zM438 727l-109 -156h-67l84 156h92z" unicode="ó" glyph-name="oacute"/>
<glyph horiz-adv-x="614" d="M490 233q0 83 -51 133q-51 51 -132 51t-132 -51q-51 -50 -51 -133t51 -136q51 -51 132 -51t132 51q51 52 51 136zM560 233q0 -111 -71 -180t-182 -69q-113 0 -183 69t-70 180t70 178q70 69 183 69q111 0 182 -69q71 -68 71 -178zM307 668l-89 -100h-69l126 149h64 l126 -149h-69z" unicode="ô" glyph-name="ocircumflex"/>
<glyph horiz-adv-x="614" d="M490 233q0 83 -51 133q-51 51 -132 51t-132 -51q-51 -50 -51 -133t51 -136q51 -51 132 -51t132 51q51 52 51 136zM560 233q0 -111 -71 -180t-182 -69q-113 0 -183 69t-70 180t70 178q70 69 183 69q111 0 182 -69q71 -68 71 -178zM409 674h55q0 -48 -26 -72.5t-62 -24.5 q-27 0 -50 14l-55 36q-17 10 -29 10q-16 0 -27 -11.5t-11 -31.5h-54q0 42 23.5 69t54.5 27h2q32 0 58 -13l55 -36q17 -10 29 -10q16 0 26.5 11.5t10.5 31.5z" unicode="õ" glyph-name="otilde"/>
<glyph horiz-adv-x="614" d="M490 233q0 83 -51 133q-51 51 -132 51t-132 -51q-51 -50 -51 -133t51 -136q51 -51 132 -51t132 51q51 52 51 136zM560 233q0 -111 -71 -180t-182 -69q-113 0 -183 69t-70 180t70 178q70 69 183 69q111 0 182 -69q71 -68 71 -178zM460 628q0 -19 -14 -32.5t-34 -13.5 t-34 13.5t-14 32.5q0 20 14 33.5t34 13.5t34 -13.5t14 -33.5zM250 628q0 -19 -14 -32.5t-34 -13.5t-34 13.5t-14 32.5t14 33t34 14t34 -13.5t14 -33.5z" unicode="ö" glyph-name="odieresis"/>
<glyph horiz-adv-x="693" d="M347 94h-4q-19 0 -30 13t-11 31t10.5 31.5t30.5 13.5h4q19 0 32.5 -13t13.5 -32t-13.5 -31.5t-32.5 -12.5zM117 355h459v-64h-459v64zM379 477q-13 -13 -32 -13q-17 0 -33 13q-13 13 -13 32t13 32q16 13 33 13q19 0 32 -13q14 -11 14 -32t-14 -32z" unicode="÷" glyph-name="divide"/>
<glyph horiz-adv-x="614" d="M307 46q81 0 132 51q51 52 51 136q0 77 -45 128l-240 -287q43 -28 102 -28zM124 233q0 -76 42 -125l239 285q-45 24 -98 24q-81 0 -132 -51q-51 -50 -51 -133zM545 480l-57 -67q72 -69 72 -180t-71 -180t-182 -69q-83 0 -145 39l-63 -75l-39 33l62 74q-68 71 -68 178 q0 111 70 178q70 69 183 69q78 0 140 -36l59 70z" unicode="ø" glyph-name="oslash"/>
<glyph horiz-adv-x="611" d="M524 462v-452q-104 -25 -253 -25q-91 0 -139.5 47.5t-48.5 141.5v288h68v-275q0 -70 34 -106.5t99 -36.5q80 0 172 14v404h68zM355 571h-68l-109 156h92z" unicode="ù" glyph-name="ugrave"/>
<glyph horiz-adv-x="611" d="M524 462v-452q-104 -25 -253 -25q-91 0 -139.5 47.5t-48.5 141.5v288h68v-275q0 -70 34 -106.5t99 -36.5q80 0 172 14v404h68zM436 727l-109 -156h-67l84 156h92z" unicode="ú" glyph-name="uacute"/>
<glyph horiz-adv-x="611" d="M524 462v-452q-104 -25 -253 -25q-91 0 -139.5 47.5t-48.5 141.5v288h68v-275q0 -70 34 -106.5t99 -36.5q80 0 172 14v404h68zM305 668l-89 -100h-69l126 149h64l126 -149h-69z" unicode="û" glyph-name="ucircumflex"/>
<glyph horiz-adv-x="611" d="M524 462v-452q-104 -25 -253 -25q-91 0 -139.5 47.5t-48.5 141.5v288h68v-275q0 -70 34 -106.5t99 -36.5q80 0 172 14v404h68zM458 628q0 -19 -14 -32.5t-34 -13.5t-34 13.5t-14 32.5q0 20 14 33.5t34 13.5t34 -13.5t14 -33.5zM248 628q0 -19 -14 -32.5t-34 -13.5 t-34 13.5t-14 32.5t14 33t34 14t34 -13.5t14 -33.5z" unicode="ü" glyph-name="udieresis"/>
<glyph horiz-adv-x="616" d="M580 462l-351 -687h-77l127 249l-238 438h78l197 -365l187 365h77zM331 571h-67l84 156h92z" unicode="ý" glyph-name="yacute"/>
<glyph horiz-adv-x="617" d="M322 44q77 0 123.5 51.5t46.5 135.5q0 86 -46 136.5t-128 50.5q-79 0 -161 -13v-347q78 -14 165 -14zM326 477q109 0 170 -67q62 -65 64 -177q0 -113 -63 -180q-63 -68 -167 -68q-94 0 -173 14v-225h-68v936h68v-247q84 14 169 14z" unicode="þ" glyph-name="thorn"/>
<glyph horiz-adv-x="760" d="M380 594l-162 -364h323zM190 166l-73 -166h-80l309 685h68l309 -685h-79l-74 166h-380zM524 836v-55h-288v55h288z" unicode="Ā" glyph-name="Amacron"/>
<glyph d="M297 418q-83 0 -129 -50.5t-46 -136.5q0 -84 46.5 -135.5t123.5 -51.5q79 0 165 56v305q-81 13 -160 13zM525 452v-452h-68v41q-86 -56 -173 -56q-104 0 -167 68q-63 67 -63 180q2 111 63 177q63 67 171 67q111 0 237 -25zM450 673v-56h-271v56h271z" unicode="ā" glyph-name="amacron"/>
<glyph horiz-adv-x="760" d="M380 594l-162 -364h323zM190 166l-73 -166h-80l309 685h68l309 -685h-79l-74 166h-380zM466 892h59q0 -66 -39.5 -104.5t-105.5 -38.5t-105.5 38.5t-39.5 104.5h58q0 -41 23.5 -64.5t63.5 -23.5t63 23t23 65z" unicode="Ă" glyph-name="Abreve"/>
<glyph d="M297 418q-83 0 -129 -50.5t-46 -136.5q0 -84 46.5 -135.5t123.5 -51.5q79 0 165 56v305q-81 13 -160 13zM525 452v-452h-68v41q-86 -56 -173 -56q-104 0 -167 68q-63 67 -63 180q2 111 63 177q63 67 171 67q111 0 237 -25zM401 706h59q0 -65 -39.5 -103.5t-105.5 -38.5 t-105.5 38.5t-39.5 103.5h58q0 -41 23.5 -64.5t63.5 -23.5q39 0 62.5 23t23.5 65z" unicode="ă" glyph-name="abreve"/>
<glyph horiz-adv-x="760" d="M541 230l-161 364l-162 -364h323zM727 -136l7 -53q-18 -7 -50 -7q-58 0 -93 29t-35 76q0 64 83 102l-69 155h-380l-73 -166h-80l309 685h68l309 -685h-39q-69 -31 -69 -80q0 -28 20.5 -44t57.5 -16q14 0 34 4z" unicode="Ą" glyph-name="Aogonek"/>
<glyph d="M292 44q79 0 165 56v305q-81 13 -160 13q-83 0 -129 -50.5t-46 -136.5q0 -84 46.5 -135.5t123.5 -51.5zM544 -143l7 -53q-18 -7 -50 -7q-58 0 -93 29t-35 76q0 66 84 103v36q-86 -56 -173 -56q-104 0 -167 68q-63 67 -63 180q2 111 63 177q63 67 171 67q111 0 237 -25 v-452h-8q-44 -19 -64.5 -39t-20.5 -48t20.5 -44t57.5 -16q14 0 34 4z" unicode="ą" glyph-name="aogonek"/>
<glyph horiz-adv-x="751" d="M672 661l-13 -66q-122 32 -210 32q-145 0 -227 -79q-81 -78 -81 -207q0 -131 81 -211q80 -79 216 -79q99 0 235 37l13 -62q-134 -41 -251 -41q-169 0 -269 97t-100 258q0 160 101 258q101 97 274 97q120 0 231 -34zM585 896l-109 -152h-72l89 152h92z" unicode="Ć" glyph-name="Cacute"/>
<glyph horiz-adv-x="530" d="M471 454l-10 -55q-83 21 -144 21q-88 0 -141 -51.5t-53 -136.5q0 -84 52 -136q53 -51 134 -51q59 0 160 26l11 -57q-93 -29 -173 -29q-112 0 -183 68q-70 67 -70 180q0 111 71 179q71 67 188 67q86 0 158 -25zM427 727l-109 -156h-67l84 156h92z" unicode="ć" glyph-name="cacute"/>
<glyph horiz-adv-x="751" d="M672 661l-13 -66q-122 32 -210 32q-145 0 -227 -79q-81 -78 -81 -207q0 -131 81 -211q80 -79 216 -79q99 0 235 37l13 -62q-134 -41 -251 -41q-169 0 -269 97t-100 258q0 160 101 258q101 97 274 97q120 0 231 -34zM386 819q0 19 14 32.5t34 13.5t34 -13.5t14 -32.5 q0 -20 -14 -33.5t-34 -13.5t-34 13.5t-14 33.5z" unicode="Ċ" glyph-name="Cdotaccent"/>
<glyph horiz-adv-x="530" d="M471 454l-10 -55q-83 21 -144 21q-88 0 -141 -51.5t-53 -136.5q0 -84 52 -136q53 -51 134 -51q59 0 160 26l11 -57q-93 -29 -173 -29q-112 0 -183 68q-70 67 -70 180q0 111 71 179q71 67 188 67q86 0 158 -25zM248 628q0 20 14 33.5t34 13.5t34 -13.5t14 -33.5 q0 -19 -14 -32.5t-34 -13.5t-34 13.5t-14 32.5z" unicode="ċ" glyph-name="cdotaccent"/>
<glyph horiz-adv-x="751" d="M672 661l-13 -66q-122 32 -210 32q-145 0 -227 -79q-81 -78 -81 -207q0 -131 81 -211q80 -79 216 -79q99 0 235 37l13 -62q-134 -41 -251 -41q-169 0 -269 97t-100 258q0 160 101 258q101 97 274 97q120 0 231 -34zM466 739h-64l-126 155h70l88 -106l88 106h70z" unicode="Č" glyph-name="Ccaron"/>
<glyph horiz-adv-x="530" d="M471 454l-10 -55q-83 21 -144 21q-88 0 -141 -51.5t-53 -136.5q0 -84 52 -136q53 -51 134 -51q59 0 160 26l11 -57q-93 -29 -173 -29q-112 0 -183 68q-70 67 -70 180q0 111 71 179q71 67 188 67q86 0 158 -25zM327 566h-64l-126 155h70l88 -106l88 106h70z" unicode="č" glyph-name="ccaron"/>
<glyph horiz-adv-x="751" d="M376 739h-64l-126 155h70l88 -106l88 106h70zM338 59q120 0 197 77q76 77 76 209q0 129 -78 202q-77 75 -204 75q-67 0 -158 -4v-556q81 -3 167 -3zM329 688q161 0 258 -93q99 -93 99 -250q0 -161 -97 -257q-98 -95 -251 -95q-109 0 -238 7v680q168 8 229 8z" unicode="Ď" glyph-name="Dcaron"/>
<glyph horiz-adv-x="613" d="M300 418q-86 0 -132.5 -49.5t-46.5 -134.5q0 -87 47 -138.5t128 -51.5q78 0 160 14v339q-74 21 -156 21zM658 710l-28 -196h-53l10 196h71zM525 710v-701q-116 -22 -241 -22q-102 0 -167 66q-63 67 -63 181q0 110 63 176q64 67 176 67q89 0 163 -21v254h69z" unicode="ď" glyph-name="dcaron"/>
<glyph horiz-adv-x="751" d="M338 59q120 0 197 77q76 77 76 209q0 129 -78 202q-77 75 -204 75q-67 0 -158 -4v-249h182v-65h-182v-242q81 -3 167 -3zM329 688q161 0 258 -93q99 -93 99 -250q0 -161 -97 -257q-98 -95 -251 -95q-109 0 -238 7v304h-66v65h66v311q168 8 229 8z" unicode="Đ" glyph-name="Dcroat"/>
<glyph horiz-adv-x="613" d="M456 58v339q-74 21 -156 21q-86 0 -132.5 -49.5t-46.5 -134.5q0 -87 47 -138.5t128 -51.5q78 0 160 14zM573 574h-48v-565q-116 -22 -241 -22q-102 0 -167 66q-63 67 -63 181q0 110 63 176q64 67 176 67q89 0 163 -21v118h-185v57h185v79h69v-79h48v-57z" unicode="đ" glyph-name="dslash"/>
<glyph horiz-adv-x="641" d="M477 836v-55h-288v55h288zM171 373h360v-66h-360v-242h402v-65h-473v680h473v-65h-402v-242z" unicode="Ē" glyph-name="Emacron"/>
<glyph horiz-adv-x="570" d="M295 421q-73 0 -118.5 -44t-51.5 -118h328q-1 74 -44.5 118t-113.5 44zM294 477q98 0 159 -60q60 -58 62 -159q0 -30 -3 -53h-385q8 -73 56 -115.5t123 -42.5q66 0 170 26l11 -56q-110 -32 -183 -32q-115 0 -183 68q-67 68 -67 179q0 110 67 177q68 68 173 68zM443 673 v-56h-271v56h271z" unicode="ē" glyph-name="emacron"/>
<glyph horiz-adv-x="641" d="M285 819q0 19 14 32.5t34 13.5t34 -13.5t14 -32.5q0 -20 -14 -33.5t-34 -13.5t-34 13.5t-14 33.5zM171 373h360v-66h-360v-242h402v-65h-473v680h473v-65h-402v-242z" unicode="Ė" glyph-name="Edotaccent"/>
<glyph horiz-adv-x="570" d="M295 421q-73 0 -118.5 -44t-51.5 -118h328q-1 74 -44.5 118t-113.5 44zM294 477q98 0 159 -60q60 -58 62 -159q0 -30 -3 -53h-385q8 -73 56 -115.5t123 -42.5q66 0 170 26l11 -56q-110 -32 -183 -32q-115 0 -183 68q-67 68 -67 179q0 110 67 177q68 68 173 68zM260 628 q0 20 14 33.5t34 13.5t34 -13.5t14 -33.5q0 -19 -14 -32.5t-34 -13.5t-34 13.5t-14 32.5z" unicode="ė" glyph-name="edotaccent"/>
<glyph horiz-adv-x="641" d="M171 615v-242h360v-66h-360v-242h402v-65h-57q-78 -34 -78 -84q0 -28 20.5 -44t57.5 -16q14 0 34 4l7 -53q-18 -7 -50 -7q-58 0 -93 29t-35 76q0 59 68 95h-347v680h473v-65h-402z" unicode="Ę" glyph-name="Eogonek"/>
<glyph horiz-adv-x="570" d="M125 259h328q-1 74 -44.5 118t-113.5 44q-73 0 -118.5 -44t-51.5 -118zM515 258q0 -30 -3 -53h-385q8 -73 56 -115.5t123 -42.5q66 0 170 26l11 -56q-3 -1 -24 -7t-33 -9q-44 -19 -63.5 -38.5t-19.5 -47.5t20.5 -44t57.5 -16q14 0 34 4l7 -53q-18 -7 -50 -7q-58 0 -93 29 t-35 76t47 82q-7 -1 -31 -1q-115 0 -183 68q-67 68 -67 179q0 110 67 177q68 68 173 68q98 0 159 -60q60 -58 62 -159z" unicode="ę" glyph-name="eogonek"/>
<glyph horiz-adv-x="641" d="M171 373h360v-66h-360v-242h402v-65h-473v680h473v-65h-402v-242zM365 739h-64l-126 155h70l88 -106l88 106h70z" unicode="Ě" glyph-name="Ecaron"/>
<glyph horiz-adv-x="570" d="M295 421q-73 0 -118.5 -44t-51.5 -118h328q-1 74 -44.5 118t-113.5 44zM294 477q98 0 159 -60q60 -58 62 -159q0 -30 -3 -53h-385q8 -73 56 -115.5t123 -42.5q66 0 170 26l11 -56q-110 -32 -183 -32q-115 0 -183 68q-67 68 -67 179q0 110 67 177q68 68 173 68zM339 566 h-64l-126 155h70l88 -106l88 106h70z" unicode="ě" glyph-name="ecaron"/>
<glyph horiz-adv-x="810" d="M738 371v-317q-158 -69 -309 -69q-163 0 -264 98q-99 97 -99 258q0 159 102 256q103 98 270 98q121 0 235 -34l-15 -65q-123 31 -216 31q-137 0 -219 -79q-83 -78 -83 -207q0 -130 79 -209t210 -79q120 0 241 44v208h-272v66h340zM514 892h59q0 -66 -39.5 -104.5 t-105.5 -38.5t-105.5 38.5t-39.5 104.5h58q0 -41 23.5 -64.5t63.5 -23.5t63 23t23 65z" unicode="Ğ" glyph-name="Gbreve"/>
<glyph horiz-adv-x="605" d="M297 418q-83 0 -129 -50.5t-46 -136.5q0 -78 46 -127q47 -50 124 -50q87 0 165 14v337q-81 13 -160 13zM288 477q118 0 237 -25v-442q0 -117 -67 -187q-66 -71 -183 -71q-83 0 -173 35l13 56q93 -29 158 -29q85 0 134 51.5t50 143.5q-79 -14 -173 -14q-102 0 -167 66 q-63 67 -63 172q0 109 63 177q63 67 171 67zM404 706h59q0 -65 -39.5 -103.5t-105.5 -38.5t-105.5 38.5t-39.5 103.5h58q0 -41 23.5 -64.5t63.5 -23.5t63 23t23 65z" unicode="ğ" glyph-name="gbreve"/>
<glyph horiz-adv-x="810" d="M738 371v-317q-158 -69 -309 -69q-163 0 -264 98q-99 97 -99 258q0 159 102 256q103 98 270 98q121 0 235 -34l-15 -65q-123 31 -216 31q-137 0 -219 -79q-83 -78 -83 -207q0 -130 79 -209t210 -79q120 0 241 44v208h-272v66h340zM380 819q0 19 14 32.5t34 13.5t34 -13.5 t14 -32.5q0 -20 -14 -33.5t-34 -13.5t-34 13.5t-14 33.5z" unicode="Ġ" glyph-name="Gdotaccent"/>
<glyph horiz-adv-x="605" d="M297 418q-83 0 -129 -50.5t-46 -136.5q0 -78 46 -127q47 -50 124 -50q87 0 165 14v337q-81 13 -160 13zM288 477q118 0 237 -25v-442q0 -117 -67 -187q-66 -71 -183 -71q-83 0 -173 35l13 56q93 -29 158 -29q85 0 134 51.5t50 143.5q-79 -14 -173 -14q-102 0 -167 66 q-63 67 -63 172q0 109 63 177q63 67 171 67zM270 628q0 20 14 33.5t34 13.5t34 -13.5t14 -33.5q0 -19 -14 -32.5t-34 -13.5t-34 13.5t-14 32.5z" unicode="ġ" glyph-name="gdotaccent"/>
<glyph horiz-adv-x="810" d="M378 -236l35 89q-29 11 -29 39q0 17 12.5 29.5t31.5 12.5t32 -12.5t13 -29.5q0 -6 -1 -11t-2.5 -9.5t-5.5 -14t-9 -19.5t-15 -31t-20 -43h-42zM738 371v-317q-158 -69 -309 -69q-163 0 -264 98q-99 97 -99 258q0 159 102 256q103 98 270 98q121 0 235 -34l-15 -65 q-123 31 -216 31q-137 0 -219 -79q-83 -78 -83 -207q0 -130 79 -209t210 -79q120 0 241 44v208h-272v66h340z" unicode="Ģ" glyph-name="Gcommaaccent"/>
<glyph horiz-adv-x="605" d="M297 418q-83 0 -129 -50.5t-46 -136.5q0 -78 46 -127q47 -50 124 -50q87 0 165 14v337q-81 13 -160 13zM288 477q118 0 237 -25v-442q0 -117 -67 -187q-66 -71 -183 -71q-83 0 -173 35l13 56q93 -29 158 -29q85 0 134 51.5t50 143.5q-79 -14 -173 -14q-102 0 -167 66 q-63 67 -63 172q0 109 63 177q63 67 171 67zM367 756l-35 -89q29 -11 29 -39q0 -17 -12.5 -29.5t-31.5 -12.5t-32 12.5t-13 29.5q0 6 1 11t2.5 9.5t5.5 14t9 19.5t15 31t20 43h42z" unicode="ģ" glyph-name="gcommaaccent"/>
<glyph horiz-adv-x="754" d="M583 502h-412v-133h412v133zM703 502h-49v-502h-71v304h-412v-304h-71v502h-48v59h48v119h71v-119h412v119h71v-119h49v-59z" unicode="Ħ" glyph-name="Hbar"/>
<glyph d="M342 477q88 0 138 -50.5t50 -138.5v-288h-68v272q0 67 -35.5 104.5t-97.5 37.5q-94 0 -172 -21v-393h-68v584h-60v51h60v75h68v-75h170v-51h-170v-129q82 22 185 22z" unicode="ħ" glyph-name="hbar"/>
<glyph horiz-adv-x="271" d="M279 836v-55h-288v55h288zM171 680v-680h-71v680h71z" unicode="Ī" glyph-name="Imacron"/>
<glyph horiz-adv-x="251" d="M159 462v-462h-68v462h68zM261 673v-56h-271v56h271z" unicode="ī" glyph-name="imacron"/>
<glyph horiz-adv-x="271" d="M185 -137l7 -53q-18 -7 -50 -7q-58 0 -93 29t-35 76q0 66 86 104v668h71v-680h-27q-71 -32 -71 -81q0 -28 20.5 -44t57.5 -16q14 0 34 4z" unicode="Į" glyph-name="Iogonek"/>
<glyph horiz-adv-x="251" d="M171 -140l7 -53q-18 -7 -50 -7q-58 0 -93 29t-35 76q0 69 91 106v451h68v-462h-22q-78 -34 -78 -84q0 -28 20.5 -44t57.5 -16q14 0 34 4zM78 628q0 20 14 33.5t34 13.5t34 -13.5t14 -33.5q0 -19 -14 -32.5t-34 -13.5t-34 13.5t-14 32.5z" unicode="į" glyph-name="iogonek"/>
<glyph horiz-adv-x="271" d="M171 680v-680h-71v680h71zM172 796q-15 -15 -37 -15q-23 0 -38 15t-15 37q0 21 15 36t38 15q22 0 37 -15q16 -16 16 -36q0 -21 -16 -37z" unicode="İ" glyph-name="Idot"/>
<glyph horiz-adv-x="251" d="M160 462v-462h-69v462h69z" unicode="ı" glyph-name="dotlessi"/>
<glyph horiz-adv-x="843" d="M171 680v-680h-71v680h71zM753 680v-431q0 -125 -62.5 -194.5t-171.5 -69.5q-103 0 -222 43l15 63q122 -38 207 -38q76 0 119 51t43 144v432h72z" unicode="Ĳ" glyph-name="IJ"/>
<glyph horiz-adv-x="500" d="M411 462v-499q0 -104 -38 -151q-37 -46 -137 -48l-5 60h3q60 0 84.5 30t24.5 102v506h68zM159 462v-462h-68v462h68zM427 629q0 -21 -14.5 -35t-35.5 -14t-36 14t-15 35t15 35.5t36 14.5t35.5 -14t14.5 -36zM75 632q0 21 15 33.5t35 12.5t35 -12.5t15 -33.5v-3 q0 -21 -14.5 -35t-35.5 -14q-22 0 -36 14.5t-14 37.5z" unicode="ĳ" glyph-name="ij"/>
<glyph horiz-adv-x="686" d="M274 -236l35 89q-29 11 -29 39q0 17 12.5 29.5t31.5 12.5t32 -12.5t13 -29.5q0 -6 -1 -11t-2.5 -9.5t-5.5 -14t-9 -19.5t-15 -31t-20 -43h-42zM171 282v-282h-71v680h71v-330h72l299 330h89l-303 -334l329 -346h-90l-275 282h-121z" unicode="Ķ" glyph-name="Kcommaaccent"/>
<glyph horiz-adv-x="567" d="M224 -236l35 89q-29 11 -29 39q0 17 12.5 29.5t31.5 12.5t32 -12.5t13 -29.5q0 -6 -1 -11t-2.5 -9.5t-5.5 -14t-9 -19.5t-15 -31t-20 -43h-42zM156 265h65l195 197h86l-205 -206l237 -256h-84l-194 202h-100v-202h-68v710h68v-445z" unicode="ķ" glyph-name="kcommaaccent"/>
<glyph horiz-adv-x="586" d="M288 896l-109 -152h-72l89 152h92zM550 0h-450v680h71v-616h379v-64z" unicode="Ĺ" glyph-name="Lacute"/>
<glyph horiz-adv-x="258" d="M163 710v-710h-68v710h68zM272 910l-109 -156h-67l84 156h92z" unicode="ĺ" glyph-name="lacute"/>
<glyph horiz-adv-x="586" d="M550 0h-450v680h71v-616h379v-64zM271 -236l35 89q-29 11 -29 39q0 17 12.5 29.5t31.5 12.5t32 -12.5t13 -29.5q0 -6 -1 -11t-2.5 -9.5t-5.5 -14t-9 -19.5t-15 -31t-20 -43h-42z" unicode="Ļ" glyph-name="Lcommaaccent"/>
<glyph horiz-adv-x="258" d="M163 710v-710h-68v710h68zM76 -236l35 89q-29 11 -29 39q0 17 12.5 29.5t31.5 12.5t32 -12.5t13 -29.5q0 -6 -1 -11t-2.5 -9.5t-5.5 -14t-9 -19.5t-15 -31t-20 -43h-42z" unicode="ļ" glyph-name="lcommaaccent"/>
<glyph horiz-adv-x="586" d="M361 680l-28 -196h-53l10 196h71zM550 0h-450v680h71v-616h379v-64z" unicode="Ľ" glyph-name="Lcaron"/>
<glyph horiz-adv-x="258" d="M289 710l-28 -196h-53l10 196h71zM163 710v-710h-68v710h68z" unicode="ľ" glyph-name="lcaron"/>
<glyph horiz-adv-x="586" d="M341 300q0 20 14 33.5t34 13.5t34 -13.5t14 -33.5q0 -19 -14 -32.5t-34 -13.5t-34 13.5t-14 32.5zM550 0h-450v680h71v-616h379v-64z" unicode="Ŀ" glyph-name="Ldot"/>
<glyph horiz-adv-x="307" d="M219 327q0 20 13.5 33.5t33.5 13.5t34 -13.5t14 -33.5q0 -19 -14 -32.5t-34 -13.5t-33.5 13.5t-13.5 32.5zM163 710v-710h-68v710h68z" unicode="ŀ" glyph-name="ldot"/>
<glyph horiz-adv-x="586" d="M550 64v-64h-450v242l-79 -39v61l79 39v377h71v-341l156 77v-62l-156 -77v-213h379z" unicode="Ł" glyph-name="Lslash"/>
<glyph horiz-adv-x="258" d="M236 359l-73 -37v-322h-68v288l-72 -36v61l72 36v361h68v-327l73 37v-61z" unicode="ł" glyph-name="lslash"/>
<glyph horiz-adv-x="781" d="M537 896l-109 -152h-72l89 152h92zM681 680v-680h-72l-438 564v-564h-71v680h69l441 -566v566h71z" unicode="Ń" glyph-name="Nacute"/>
<glyph horiz-adv-x="609" d="M341 477q88 0 138 -50.5t50 -138.5v-288h-68v272q0 67 -35.5 104.5t-97.5 37.5q-90 0 -172 -14v-400h-68v452q110 25 253 25zM436 727l-109 -156h-67l84 156h92z" unicode="ń" glyph-name="nacute"/>
<glyph horiz-adv-x="781" d="M681 680v-680h-72l-438 564v-564h-71v680h69l441 -566v566h71zM332 -240l35 89q-29 11 -29 39q0 17 12.5 29.5t31.5 12.5t32 -12.5t13 -29.5q0 -6 -1 -11t-2.5 -9.5t-5.5 -14t-9 -19.5t-15 -31t-20 -43h-42z" unicode="Ņ" glyph-name="Ncommaaccent"/>
<glyph horiz-adv-x="609" d="M248 -236l35 89q-29 11 -29 39q0 17 12.5 29.5t31.5 12.5t32 -12.5t13 -29.5q0 -6 -1 -11t-2.5 -9.5t-5.5 -14t-9 -19.5t-15 -31t-20 -43h-42zM341 477q88 0 138 -50.5t50 -138.5v-288h-68v272q0 67 -35.5 104.5t-97.5 37.5q-90 0 -172 -14v-400h-68v452q110 25 253 25z " unicode="ņ" glyph-name="ncommaaccent"/>
<glyph horiz-adv-x="781" d="M681 680v-680h-72l-438 564v-564h-71v680h69l441 -566v566h71zM418 739h-64l-126 155h70l88 -106l88 106h70z" unicode="Ň" glyph-name="Ncaron"/>
<glyph horiz-adv-x="609" d="M341 477q88 0 138 -50.5t50 -138.5v-288h-68v272q0 67 -35.5 104.5t-97.5 37.5q-90 0 -172 -14v-400h-68v452q110 25 253 25zM336 566h-64l-126 155h70l88 -106l88 106h70z" unicode="ň" glyph-name="ncaron"/>
<glyph horiz-adv-x="847" d="M218 131q80 -80 205 -80t205 80q79 79 79 209q0 129 -79 208q-80 80 -205 80t-205 -80q-78 -80 -78 -208q0 -130 78 -209zM424 695q158 0 258 -98q99 -97 99 -257q0 -159 -99 -257q-100 -98 -258 -98q-159 0 -259 98q-99 98 -99 257t99 257q100 98 259 98zM567 836v-55 h-288v55h288z" unicode="Ō" glyph-name="Omacron"/>
<glyph horiz-adv-x="614" d="M490 233q0 83 -51 133q-51 51 -132 51t-132 -51q-51 -50 -51 -133t51 -136q51 -51 132 -51t132 51q51 52 51 136zM560 233q0 -111 -71 -180t-182 -69q-113 0 -183 69t-70 180t70 178q70 69 183 69q111 0 182 -69q71 -68 71 -178zM442 673v-56h-271v56h271z" unicode="ō" glyph-name="omacron"/>
<glyph horiz-adv-x="847" d="M218 131q80 -80 205 -80t205 80q79 79 79 209q0 129 -79 208q-80 80 -205 80t-205 -80q-78 -80 -78 -208q0 -130 78 -209zM424 695q158 0 258 -98q99 -97 99 -257q0 -159 -99 -257q-100 -98 -258 -98q-159 0 -259 98q-99 98 -99 257t99 257q100 98 259 98zM611 896 l-79 -152h-63l70 152h72zM474 896l-80 -152h-62l70 152h72z" unicode="Ő" glyph-name="Ohungarumlaut"/>
<glyph horiz-adv-x="614" d="M490 233q0 83 -51 133q-51 51 -132 51t-132 -51q-51 -50 -51 -133t51 -136q51 -51 132 -51t132 51q51 52 51 136zM560 233q0 -111 -71 -180t-182 -69q-113 0 -183 69t-70 180t70 178q70 69 183 69q111 0 182 -69q71 -68 71 -178zM484 717l-80 -151h-63l71 151h72z M347 717l-80 -151h-63l71 151h72z" unicode="ő" glyph-name="ohungarumlaut"/>
<glyph horiz-adv-x="1003" d="M140 340q0 -130 83.5 -201.5t238.5 -72.5v547q-155 -1 -238.5 -72.5t-83.5 -200.5zM533 373h360v-66h-360v-242h402v-65h-473q-184 2 -290 91q-106 91 -106 249t106 248q105 90 290 92h473v-65h-402v-242z" unicode="Œ" glyph-name="OE"/>
<glyph horiz-adv-x="1006" d="M490 233q0 83 -51 133q-51 51 -132 51t-132 -51q-51 -50 -51 -133t51 -136q51 -51 132 -51t132 51q51 52 51 136zM562 259h327q-1 74 -44 118t-113 44q-73 0 -119 -44t-51 -118zM952 258q0 -28 -4 -53h-384q8 -73 55.5 -115.5t122.5 -42.5q65 0 171 26l10 -56 q-108 -32 -182 -32q-153 0 -217 112q-32 -54 -88.5 -83.5t-128.5 -29.5q-113 0 -183 69t-70 180t70 178q70 69 183 69q72 0 128.5 -29.5t89.5 -83.5q30 52 84 81t122 29q97 0 159 -60q60 -58 62 -159z" unicode="œ" glyph-name="oe"/>
<glyph horiz-adv-x="658" d="M171 308h159q85 0 136 44t51 118q0 75 -50 113.5t-141 38.5q-70 0 -155 -3v-311zM541 0l-181 247q-46 -2 -53 -2h-136v-245h-71v680q146 7 224 7q122 0 192.5 -57t70.5 -160q0 -75 -41 -128.5t-115 -77.5l196 -264h-86zM450 896l-109 -152h-72l89 152h92z" unicode="Ŕ" glyph-name="Racute"/>
<glyph horiz-adv-x="387" d="M345 473v-67q-108 0 -189 -10v-396h-68v449q134 24 257 24zM349 727l-109 -156h-67l84 156h92z" unicode="ŕ" glyph-name="racute"/>
<glyph horiz-adv-x="658" d="M285 -236l35 89q-29 11 -29 39q0 17 12.5 29.5t31.5 12.5t32 -12.5t13 -29.5q0 -6 -1 -11t-2.5 -9.5t-5.5 -14t-9 -19.5t-15 -31t-20 -43h-42zM171 308h159q85 0 136 44t51 118q0 75 -50 113.5t-141 38.5q-70 0 -155 -3v-311zM541 0l-181 247q-46 -2 -53 -2h-136v-245 h-71v680q146 7 224 7q122 0 192.5 -57t70.5 -160q0 -75 -41 -128.5t-115 -77.5l196 -264h-86z" unicode="Ŗ" glyph-name="Rcommaaccent"/>
<glyph horiz-adv-x="387" d="M70 -236l35 89q-29 11 -29 39q0 17 12.5 29.5t31.5 12.5t32 -12.5t13 -29.5q0 -6 -1 -11t-2.5 -9.5t-5.5 -14t-9 -19.5t-15 -31t-20 -43h-42zM345 473v-67q-108 0 -189 -10v-396h-68v449q134 24 257 24z" unicode="ŗ" glyph-name="rcommaaccent"/>
<glyph horiz-adv-x="658" d="M171 308h159q85 0 136 44t51 118q0 75 -50 113.5t-141 38.5q-70 0 -155 -3v-311zM541 0l-181 247q-46 -2 -53 -2h-136v-245h-71v680q146 7 224 7q122 0 192.5 -57t70.5 -160q0 -75 -41 -128.5t-115 -77.5l196 -264h-86zM331 739h-64l-126 155h70l88 -106l88 106h70z" unicode="Ř" glyph-name="Rcaron"/>
<glyph horiz-adv-x="387" d="M345 473v-67q-108 0 -189 -10v-396h-68v449q134 24 257 24zM249 566h-64l-126 155h70l88 -106l88 106h70z" unicode="ř" glyph-name="rcaron"/>
<glyph horiz-adv-x="682" d="M584 651l-19 -61q-129 38 -229 38q-76 0 -119.5 -33t-43.5 -92q0 -50 38 -74q40 -25 135 -44q99 -22 155 -46q37 -15 57 -35q47 -44 47 -118q0 -96 -70 -148q-70 -53 -183 -53q-142 0 -283 57l19 66q140 -57 267 -57q82 0 130 34.5t48 94.5q0 69 -66 99q-50 23 -140 41 q-5 1 -11.5 2.5t-9.5 1.5q-115 24 -162 62q-46 39 -46 114q0 89 65 140q65 52 175 52q131 0 246 -41zM497 896l-109 -152h-72l89 152h92z" unicode="Ś" glyph-name="Sacute"/>
<glyph horiz-adv-x="518" d="M61 31l16 57q104 -46 194 -46q55 0 88 21t33 59q0 46 -61 65q-23 7 -98 24q-81 18 -116.5 46.5t-35.5 81.5q0 65 48.5 101t134.5 36q87 0 178 -32l-18 -54q-93 30 -165 30q-111 0 -111 -78q0 -33 26 -48q27 -14 97 -30q97 -21 141 -48q44 -26 44 -88q0 -68 -51 -105.5 t-138 -37.5q-101 0 -206 46zM391 726l-109 -156h-67l84 156h92z" unicode="ś" glyph-name="sacute"/>
<glyph horiz-adv-x="682" d="M319 -204h-59l51 154h67zM584 651l-19 -61q-129 38 -229 38q-76 0 -119.5 -33t-43.5 -92q0 -50 38 -74q40 -25 135 -44q99 -22 155 -46q37 -15 57 -35q47 -44 47 -118q0 -96 -70 -148q-70 -53 -183 -53q-142 0 -283 57l19 66q140 -57 267 -57q82 0 130 34.5t48 94.5 q0 69 -66 99q-50 23 -140 41q-5 1 -11.5 2.5t-9.5 1.5q-115 24 -162 62q-46 39 -46 114q0 89 65 140q65 52 175 52q131 0 246 -41z" unicode="Ş" glyph-name="Scedilla"/>
<glyph horiz-adv-x="518" d="M234 -204h-59l51 154h67zM61 31l16 57q104 -46 194 -46q55 0 88 21t33 59q0 46 -61 65q-23 7 -98 24q-81 18 -116.5 46.5t-35.5 81.5q0 65 48.5 101t134.5 36q87 0 178 -32l-18 -54q-93 30 -165 30q-111 0 -111 -78q0 -33 26 -48q27 -14 97 -30q97 -21 141 -48 q44 -26 44 -88q0 -68 -51 -105.5t-138 -37.5q-101 0 -206 46z" unicode="ş" glyph-name="scedilla"/>
<glyph horiz-adv-x="682" d="M584 651l-19 -61q-129 38 -229 38q-76 0 -119.5 -33t-43.5 -92q0 -50 38 -74q40 -25 135 -44q99 -22 155 -46q37 -15 57 -35q47 -44 47 -118q0 -96 -70 -148q-70 -53 -183 -53q-142 0 -283 57l19 66q140 -57 267 -57q82 0 130 34.5t48 94.5q0 69 -66 99q-50 23 -140 41 q-5 1 -11.5 2.5t-9.5 1.5q-115 24 -162 62q-46 39 -46 114q0 89 65 140q65 52 175 52q131 0 246 -41zM379 739h-64l-126 155h70l88 -106l88 106h70z" unicode="Š" glyph-name="Scaron"/>
<glyph horiz-adv-x="518" d="M61 31l16 57q104 -46 194 -46q55 0 88 21t33 59q0 46 -61 65q-23 7 -98 24q-81 18 -116.5 46.5t-35.5 81.5q0 65 48.5 101t134.5 36q87 0 178 -32l-18 -54q-93 30 -165 30q-111 0 -111 -78q0 -33 26 -48q27 -14 97 -30q97 -21 141 -48q44 -26 44 -88q0 -68 -51 -105.5 t-138 -37.5q-101 0 -206 46zM291 565h-64l-126 155h70l88 -106l88 106h70z" unicode="š" glyph-name="scaron"/>
<glyph horiz-adv-x="669" d="M370 615v-615h-71v615h-269v65h609v-65h-269zM366 739h-64l-126 155h70l88 -106l88 106h70z" unicode="Ť" glyph-name="Tcaron"/>
<glyph horiz-adv-x="434" d="M383 55l9 -57q-51 -13 -103 -13q-80 0 -118.5 43t-38.5 133v239h-106v62h106v194h68v-194h165v-62h-165v-233q0 -63 23.5 -91.5t76.5 -28.5q32 0 83 8zM339 736l-28 -196h-53l10 196h71z" unicode="ť" glyph-name="tcaron"/>
<glyph horiz-adv-x="763" d="M525 836v-55h-288v55h288zM673 680v-407q0 -130 -80 -210q-79 -78 -212 -78q-131 0 -211 78q-80 80 -80 210v407h71v-407q0 -101 60 -162q61 -60 160 -60q100 0 160 60q61 60 61 162v407h71z" unicode="Ū" glyph-name="Umacron"/>
<glyph horiz-adv-x="611" d="M524 462v-452q-104 -25 -253 -25q-91 0 -139.5 47.5t-48.5 141.5v288h68v-275q0 -70 34 -106.5t99 -36.5q80 0 172 14v404h68zM440 673v-56h-271v56h271z" unicode="ū" glyph-name="umacron"/>
<glyph horiz-adv-x="763" d="M673 680v-407q0 -130 -80 -210q-79 -78 -212 -78q-131 0 -211 78q-80 80 -80 210v407h71v-407q0 -101 60 -162q61 -60 160 -60q100 0 160 60q61 60 61 162v407h71zM437 823v5q0 23 -16 36.5t-39 13.5t-39 -13.5t-16 -36.5v-5q0 -24 15.5 -39t39.5 -15t39.5 15t15.5 39z M382 917q42 0 69.5 -26t27.5 -68q0 -41 -27.5 -67t-69.5 -26t-69.5 26t-27.5 67q0 42 27 68t70 26z" unicode="Ů" glyph-name="Uring"/>
<glyph horiz-adv-x="611" d="M524 462v-452q-104 -25 -253 -25q-91 0 -139.5 47.5t-48.5 141.5v288h68v-275q0 -70 34 -106.5t99 -36.5q80 0 172 14v404h68zM266 605q15 -15 40 -15q24 0 39 15q16 16 16 40q0 23 -16 39t-39 16q-24 0 -40 -16q-15 -15 -15 -39q0 -25 15 -40zM306 739q42 0 69.5 -26 t27.5 -68q0 -41 -27.5 -67.5t-69.5 -26.5t-69.5 26.5t-27.5 67.5q0 42 27 68t70 26z" unicode="ů" glyph-name="uring"/>
<glyph horiz-adv-x="763" d="M673 680v-407q0 -130 -80 -210q-79 -78 -212 -78q-131 0 -211 78q-80 80 -80 210v407h71v-407q0 -101 60 -162q61 -60 160 -60q100 0 160 60q61 60 61 162v407h71zM570 896l-79 -152h-63l70 152h72zM433 896l-80 -152h-62l70 152h72z" unicode="Ű" glyph-name="Uhungarumlaut"/>
<glyph horiz-adv-x="611" d="M524 462v-452q-104 -25 -253 -25q-91 0 -139.5 47.5t-48.5 141.5v288h68v-275q0 -70 34 -106.5t99 -36.5q80 0 172 14v404h68zM481 717l-79 -151h-63l70 151h72zM344 717l-79 -151h-63l70 151h72z" unicode="ű" glyph-name="uhungarumlaut"/>
<glyph horiz-adv-x="763" d="M673 680v-407q0 -110 -58 -184.5t-158 -95.5q-73 -34 -73 -82q0 -28 20.5 -44t57.5 -16q14 0 34 4l7 -53q-18 -7 -50 -7q-58 0 -93 29t-35 76q0 49 51 85q-128 1 -208 80q-78 78 -78 208v407h71v-407q0 -101 60 -162q61 -60 160 -60q100 0 160 60q61 60 61 162v407h71z " unicode="Ų" glyph-name="Uogonek"/>
<glyph horiz-adv-x="611" d="M551 -133l7 -53q-18 -7 -50 -7q-58 0 -93 29t-35 76t47 82q-77 -9 -156 -9q-91 0 -139.5 47.5t-48.5 141.5v288h68v-275q0 -70 34 -106.5t99 -36.5q80 0 172 14v404h68v-452q-44 -19 -64.5 -39t-20.5 -48t20.5 -44t57.5 -16q14 0 34 4z" unicode="ų" glyph-name="uogonek"/>
<glyph horiz-adv-x="1057" d="M787 0h-67l-191 562l-192 -562h-67l-233 680h75l193 -571l192 571h62l193 -570l192 570h76zM529 848l-89 -104h-69l126 152h64l126 -152h-69z" unicode="Ŵ" glyph-name="Wcircumflex"/>
<glyph horiz-adv-x="823" d="M411 668l-89 -100h-69l126 149h64l126 -149h-69zM609 0h-67l-131 362l-130 -362h-67l-169 462h70l135 -367l134 367h56l132 -368l136 368h70z" unicode="ŵ" glyph-name="wcircumflex"/>
<glyph horiz-adv-x="694" d="M312 243l-286 437h81l240 -364l241 364h80l-285 -437v-243h-71v243zM347 848l-89 -104h-69l126 152h64l126 -152h-69z" unicode="Ŷ" glyph-name="Ycircumflex"/>
<glyph horiz-adv-x="616" d="M580 462l-351 -687h-77l127 249l-238 438h78l197 -365l187 365h77zM219 568h-69l126 149h64l126 -149h-69l-89 100z" unicode="ŷ" glyph-name="ycircumflex"/>
<glyph horiz-adv-x="694" d="M312 243l-286 437h81l240 -364l241 364h80l-285 -437v-243h-71v243zM404 819q0 19 14 32.5t34 13.5t34 -13.5t14 -32.5q0 -20 -14 -33.5t-34 -13.5t-34 13.5t-14 33.5zM194 819q0 19 14 32.5t34 13.5t34 -13.5t14 -32.5q0 -20 -14 -33.5t-34 -13.5t-34 13.5t-14 33.5z " unicode="Ÿ" glyph-name="Ydieresis"/>
<glyph horiz-adv-x="663" d="M592 634l-425 -569h428v-65h-530v46l430 569h-418v65h515v-46zM482 896l-109 -152h-72l89 152h92z" unicode="Ź" glyph-name="Zacute"/>
<glyph horiz-adv-x="496" d="M439 421l-289 -361h298v-60h-396v36l293 366h-283v60h377v-41zM377 727l-109 -156h-67l84 156h92z" unicode="ź" glyph-name="zacute"/>
<glyph horiz-adv-x="663" d="M592 634l-425 -569h428v-65h-530v46l430 569h-418v65h515v-46zM284 819q0 19 14 32.5t34 13.5t34 -13.5t14 -32.5q0 -20 -14 -33.5t-34 -13.5t-34 13.5t-14 33.5z" unicode="Ż" glyph-name="Zdotaccent"/>
<glyph horiz-adv-x="496" d="M439 421l-289 -361h298v-60h-396v36l293 366h-283v60h377v-41zM198 628q0 20 14 33.5t34 13.5t34 -13.5t14 -33.5q0 -19 -14 -32.5t-34 -13.5t-34 13.5t-14 32.5z" unicode="ż" glyph-name="zdotaccent"/>
<glyph horiz-adv-x="663" d="M592 634l-425 -569h428v-65h-530v46l430 569h-418v65h515v-46zM364 739h-64l-126 155h70l88 -106l88 106h70z" unicode="Ž" glyph-name="Zcaron"/>
<glyph horiz-adv-x="496" d="M439 421l-289 -361h298v-60h-396v36l293 366h-283v60h377v-41zM277 566h-64l-126 155h70l88 -106l88 106h70z" unicode="ž" glyph-name="zcaron"/>
<glyph horiz-adv-x="543" d="M405 695q34 0 90 -14l-12 -56q-46 8 -76 8q-48 0 -69 -27.5t-30 -97.5l-14 -104h188v-62h-197l-23 -172q-13 -100 -50 -142.5t-115 -42.5q-34 0 -90 14l12 56q46 -8 76 -8q48 0 69 27.5t30 97.5l23 170h-127v62h136l14 106q13 100 50 142.5t115 42.5z" unicode="ƒ" glyph-name="florin"/>
<glyph horiz-adv-x="760" d="M380 594l-162 -364h323zM190 166l-73 -166h-80l309 685h68l309 -685h-79l-74 166h-380zM412 739h-64l-126 155h70l88 -106l88 106h70z" unicode="Ǎ" glyph-name="Acaron"/>
<glyph d="M297 418q-83 0 -129 -50.5t-46 -136.5q0 -84 46.5 -135.5t123.5 -51.5q79 0 165 56v305q-81 13 -160 13zM525 452v-452h-68v41q-86 -56 -173 -56q-104 0 -167 68q-63 67 -63 180q2 111 63 177q63 67 171 67q111 0 237 -25zM347 566h-64l-126 155h70l88 -106l88 106h70z " unicode="ǎ" glyph-name="acaron"/>
<glyph horiz-adv-x="682" d="M282 -236l35 89q-29 11 -29 39q0 17 12.5 29.5t31.5 12.5t32 -12.5t13 -29.5q0 -6 -1 -11t-2.5 -9.5t-5.5 -14t-9 -19.5t-15 -31t-20 -43h-42zM584 651l-19 -61q-129 38 -229 38q-76 0 -119.5 -33t-43.5 -92q0 -50 38 -74q40 -25 135 -44q99 -22 155 -46q37 -15 57 -35 q47 -44 47 -118q0 -96 -70 -148q-70 -53 -183 -53q-142 0 -283 57l19 66q140 -57 267 -57q82 0 130 34.5t48 94.5q0 69 -66 99q-50 23 -140 41q-5 1 -11.5 2.5t-9.5 1.5q-115 24 -162 62q-46 39 -46 114q0 89 65 140q65 52 175 52q131 0 246 -41z" unicode="Ș" glyph-name="Scommaaccent"/>
<glyph horiz-adv-x="518" d="M211 -236l35 89q-29 11 -29 39q0 17 12.5 29.5t31.5 12.5t32 -12.5t13 -29.5q0 -6 -1 -11t-2.5 -9.5t-5.5 -14t-9 -19.5t-15 -31t-20 -43h-42zM61 31l16 57q104 -46 194 -46q55 0 88 21t33 59q0 46 -61 65q-23 7 -98 24q-81 18 -116.5 46.5t-35.5 81.5q0 65 48.5 101 t134.5 36q87 0 178 -32l-18 -54q-93 30 -165 30q-111 0 -111 -78q0 -33 26 -48q27 -14 97 -30q97 -21 141 -48q44 -26 44 -88q0 -68 -51 -105.5t-138 -37.5q-101 0 -206 46z" unicode="ș" glyph-name="scommaaccent"/>
<glyph horiz-adv-x="669" d="M370 615v-615h-71v615h-269v65h609v-65h-269zM283 -236l35 89q-29 11 -29 39q0 17 12.5 29.5t31.5 12.5t32 -12.5t13 -29.5q0 -6 -1 -11t-2.5 -9.5t-5.5 -14t-9 -19.5t-15 -31t-20 -43h-42z" unicode="Ț" glyph-name="uni021A"/>
<glyph horiz-adv-x="434" d="M197 -236l35 89q-29 11 -29 39q0 17 12.5 29.5t31.5 12.5t32 -12.5t13 -29.5q0 -6 -1 -11t-2.5 -9.5t-5.5 -14t-9 -19.5t-15 -31t-20 -43h-42zM383 55l9 -57q-51 -13 -103 -13q-80 0 -118.5 43t-38.5 133v239h-106v62h106v194h68v-194h165v-62h-165v-233 q0 -63 23.5 -91.5t76.5 -28.5q32 0 83 8z" unicode="ț" glyph-name="uni021B"/>
</font>
</defs>
</svg>
